<?xml version="1.0" encoding="iso-8859-1"?>
<!-- Generator: Adobe Illustrator 27.0.0, SVG Export Plug-In . SVG Version: 6.00 Build 0)  -->
<svg version="1.1" id="Layer_1" xmlns="http://www.w3.org/2000/svg" xmlns:xlink="http://www.w3.org/1999/xlink" x="0px" y="0px"
	 viewBox="0 0 500 500" style="enable-background:new 0 0 500 500;" xml:space="preserve">
<g id="watermark_1_">
	<g>
		<g id="watermark" style="opacity:0.61;">
			<g>
				<g>
					<g>
						<g>
							<polygon style="fill:#FFFFFF;" points="213.765,461.172 208.204,474.017 205.268,474.017 199.726,461.172 202.938,461.172 
								206.846,470.347 210.81,461.172 							"/>
						</g>
						<g>
							<path style="fill:#FFFFFF;" d="M223.507,469.741h-7.469c0.275,1.23,1.321,1.982,2.826,1.982c1.046,0,1.798-0.312,2.477-0.954
								l1.523,1.651c-0.917,1.046-2.294,1.597-4.074,1.597c-3.413,0-5.634-2.147-5.634-5.083c0-2.954,2.257-5.083,5.267-5.083
								c2.899,0,5.138,1.945,5.138,5.12C223.562,469.191,223.526,469.503,223.507,469.741 M216.002,468.071h4.863
								c-0.202-1.248-1.138-2.055-2.422-2.055C217.139,466.016,216.204,466.805,216.002,468.071"/>
						</g>
						<g>
							<path style="fill:#FFFFFF;" d="M224.735,468.934c0-2.973,2.294-5.083,5.505-5.083c2.074,0,3.707,0.899,4.423,2.514
								l-2.22,1.193c-0.532-0.936-1.321-1.358-2.221-1.358c-1.45,0-2.587,1.009-2.587,2.734c0,1.725,1.138,2.734,2.587,2.734
								c0.899,0,1.688-0.404,2.221-1.358l2.22,1.211c-0.716,1.578-2.349,2.495-4.423,2.495
								C227.029,474.017,224.735,471.907,224.735,468.934"/>
						</g>
						<g>
							<path style="fill:#FFFFFF;" d="M242.828,473.393c-0.587,0.422-1.45,0.624-2.331,0.624c-2.33,0-3.688-1.193-3.688-3.542
								v-4.055h-1.523v-2.202h1.523v-2.404h2.863v2.404h2.459v2.202h-2.459v4.019c0,0.844,0.458,1.303,1.229,1.303
								c0.422,0,0.844-0.128,1.156-0.367L242.828,473.393z"/>
						</g>
					</g>
					<g>
						<path style="fill:#FFFFFF;" d="M262.474,463.997v2.643c-0.238-0.018-0.422-0.037-0.642-0.037
							c-1.578,0-2.624,0.862-2.624,2.753v4.661h-2.863v-9.873h2.734v1.303C259.776,464.493,260.951,463.997,262.474,463.997"/>
					</g>
					<g>
						<path style="fill:#FFFFFF;" d="M263.299,472.53l1.009-2.239c1.083,0.789,2.697,1.339,4.239,1.339
							c1.762,0,2.477-0.587,2.477-1.376c0-2.404-7.469-0.752-7.469-5.524c0-2.184,1.762-4,5.413-4c1.615,0,3.267,0.385,4.459,1.138
							l-0.918,2.257c-1.193-0.679-2.422-1.009-3.56-1.009c-1.761,0-2.44,0.66-2.44,1.468c0,2.367,7.468,0.734,7.468,5.45
							c0,2.147-1.78,3.982-5.45,3.982C266.492,474.017,264.437,473.411,263.299,472.53"/>
					</g>
					<g>
						<path style="fill:#FFFFFF;" d="M285.428,469.741h-7.469c0.275,1.23,1.321,1.982,2.826,1.982c1.046,0,1.798-0.312,2.477-0.954
							l1.523,1.651c-0.918,1.046-2.294,1.597-4.074,1.597c-3.413,0-5.634-2.147-5.634-5.083c0-2.954,2.257-5.083,5.267-5.083
							c2.9,0,5.138,1.945,5.138,5.12C285.484,469.191,285.447,469.503,285.428,469.741 M277.923,468.071h4.863
							c-0.202-1.248-1.138-2.055-2.422-2.055C279.061,466.016,278.125,466.805,277.923,468.071"/>
					</g>
					<g>
						<path style="fill:#FFFFFF;" d="M297.007,469.741h-7.469c0.275,1.23,1.321,1.982,2.826,1.982c1.046,0,1.798-0.312,2.477-0.954
							l1.523,1.651c-0.918,1.046-2.294,1.597-4.074,1.597c-3.413,0-5.634-2.147-5.634-5.083c0-2.954,2.257-5.083,5.267-5.083
							c2.899,0,5.138,1.945,5.138,5.12C297.062,469.191,297.025,469.503,297.007,469.741 M289.501,468.071h4.863
							c-0.202-1.248-1.138-2.055-2.422-2.055C290.639,466.016,289.703,466.805,289.501,468.071"/>
					</g>
					<g>
						<polygon style="fill:#FFFFFF;" points="303.208,470.145 301.831,471.503 301.831,474.017 298.969,474.017 298.969,460.401 
							301.831,460.401 301.831,468.108 306.016,464.144 309.429,464.144 305.318,468.328 309.796,474.017 306.327,474.017 						"/>
					</g>
					<g>
						<path style="fill:#FFFFFF;" d="M256.601,475.359L256.601,475.359l-2.86-2.86c-0.435,0.508-0.953,0.943-1.534,1.284
							c-0.092,0.069-0.186,0.136-0.283,0.199l3.027,3.027c0.456,0.456,1.195,0.456,1.65,0
							C257.057,476.554,257.057,475.815,256.601,475.359"/>
					</g>
					<g>
						<path style="fill:#FFFFFF;" d="M249.984,463.244c0.221-0.173,0.495-0.281,0.797-0.281c0.042,0,0.083,0.002,0.124,0.006
							c-0.214-0.156-0.478-0.249-0.764-0.249c-0.395,0-0.744,0.18-0.981,0.458c-0.051,0-0.1,0.006-0.151,0.008
							c0.039-0.077,0.064-0.162,0.064-0.255c0-0.234-0.143-0.434-0.346-0.519c0.087,0.126,0.138,0.279,0.138,0.445
							c0,0.122-0.031,0.237-0.081,0.341c-2.811,0.201-5.03,2.539-5.03,5.4c0,2.993,2.426,5.42,5.42,5.42
							c2.993,0,5.42-2.426,5.42-5.42C254.595,465.879,252.593,463.635,249.984,463.244 M247.983,464.656
							c0.435,0,0.844,0.112,1.199,0.309c0.374-0.245,0.82-0.387,1.299-0.387c0.711,0,1.348,0.312,1.784,0.806
							c-0.435-0.379-1.004-0.61-1.627-0.61c-0.449,0-0.87,0.12-1.234,0.329c-0.079,0.046-0.156,0.096-0.229,0.15
							c-0.065-0.048-0.133-0.093-0.204-0.134c-0.369-0.219-0.8-0.344-1.26-0.344c-0.3,0-0.588,0.054-0.854,0.152
							C247.196,464.754,247.578,464.656,247.983,464.656 M251.772,469.098c0.115,0.305,0.181,0.634,0.181,0.979
							c0,1.534-1.244,2.777-2.778,2.777c-1.534,0-2.777-1.243-2.777-2.777c0-0.345,0.066-0.674,0.181-0.979
							c-0.62-0.382-1.035-1.064-1.035-1.846c0-1.197,0.971-2.168,2.168-2.168c0.565,0,1.078,0.218,1.463,0.572
							c0.386-0.354,0.899-0.572,1.464-0.572c1.197,0,2.168,0.971,2.168,2.168C252.807,468.034,252.392,468.716,251.772,469.098"/>
					</g>
					<g>
						<path style="fill:#FFFFFF;" d="M251.666,467.061c0,0.497-0.404,0.901-0.901,0.901c-0.497,0-0.901-0.404-0.901-0.901
							s0.404-0.901,0.901-0.901c0.101,0,0.197,0.017,0.287,0.047c-0.03,0.062-0.045,0.132-0.045,0.204
							c0,0.273,0.221,0.494,0.494,0.494c0.05,0,0.099-0.008,0.146-0.022C251.66,466.941,251.666,467,251.666,467.061"/>
					</g>
					<g>
						<path style="fill:#FFFFFF;" d="M248.255,467.061c0,0.376-0.305,0.681-0.681,0.681c-0.376,0-0.681-0.305-0.681-0.681
							s0.305-0.681,0.681-0.681c0.076,0,0.149,0.013,0.217,0.035c-0.023,0.047-0.034,0.1-0.034,0.155
							c0,0.206,0.167,0.374,0.374,0.374c0.038,0,0.075-0.006,0.11-0.017C248.25,466.97,248.255,467.015,248.255,467.061"/>
					</g>
					<g>
						<g>
							<g>
								<rect x="242.908" y="467.83" style="fill:#FFFFFF;" width="0.616" height="0.616"/>
							</g>
							<g>
								<rect x="254.827" y="467.83" style="fill:#FFFFFF;" width="0.616" height="0.616"/>
							</g>
							<g>
								<path style="fill:#FFFFFF;" d="M255.205,468.082h-0.14c0-3.248-2.642-5.89-5.89-5.89c-3.248,0-5.89,2.642-5.89,5.89h-0.14
									c0-1.611,0.627-3.125,1.766-4.264c1.139-1.139,2.653-1.766,4.264-1.766c1.611,0,3.125,0.627,4.264,1.766
									C254.578,464.957,255.205,466.471,255.205,468.082"/>
							</g>
						</g>
						<g>
							<rect x="248.868" y="461.814" style="fill:#FFFFFF;" width="0.616" height="0.616"/>
						</g>
						<g>
							<rect x="244.95" y="462.052" style="fill:#FFFFFF;" width="8.45" height="0.14"/>
						</g>
						<g>
							<path style="fill:#FFFFFF;" d="M245.174,462.15c0,0.108-0.088,0.196-0.196,0.196c-0.108,0-0.196-0.088-0.196-0.196
								c0-0.108,0.088-0.196,0.196-0.196C245.086,461.954,245.174,462.042,245.174,462.15"/>
						</g>
						<g>
							<path style="fill:#FFFFFF;" d="M253.596,462.15c0,0.108-0.088,0.196-0.196,0.196c-0.108,0-0.196-0.088-0.196-0.196
								c0-0.108,0.088-0.196,0.196-0.196C253.509,461.954,253.596,462.042,253.596,462.15"/>
						</g>
					</g>
				</g>
				<g>
					<path style="fill:#FFFFFF;" d="M314.356,473.409c0,1.559-2.364,1.559-2.364,0C311.993,471.851,314.356,471.851,314.356,473.409
						z"/>
				</g>
				<g>
					<g>
						<g>
							<path style="fill:#FFFFFF;" d="M161.739,466.549l1.772,6.088l1.855-6.088h2.215l-2.823,8.14h-2.33l-0.837-2.396l-0.722-2.708
								l-0.722,2.708l-0.837,2.396h-2.33l-2.839-8.14h2.231l1.855,6.088l1.756-6.088H161.739z"/>
						</g>
						<g>
							<path style="fill:#FFFFFF;" d="M176.713,466.549l1.772,6.088l1.855-6.088h2.215l-2.823,8.14h-2.33l-0.837-2.396l-0.722-2.708
								l-0.722,2.708l-0.837,2.396h-2.33l-2.839-8.14h2.231l1.855,6.088l1.756-6.088H176.713z"/>
						</g>
						<g>
							<path style="fill:#FFFFFF;" d="M191.687,466.549l1.772,6.088l1.855-6.088h2.215l-2.823,8.14h-2.33l-0.837-2.396l-0.722-2.708
								l-0.722,2.708l-0.837,2.396h-2.33l-2.839-8.14h2.231l1.855,6.088l1.756-6.088H191.687z"/>
						</g>
					</g>
					<g>
						<path style="fill:#FFFFFF;" d="M200.908,473.52c0,1.559-2.364,1.559-2.364,0C198.545,471.962,200.908,471.962,200.908,473.52z
							"/>
					</g>
					<g>
						<path style="fill:#FFFFFF;" d="M322.71,473.409c-0.935,0.919-1.919,1.28-3.117,1.28c-2.346,0-4.3-1.411-4.3-4.282
							s1.953-4.284,4.3-4.284c1.149,0,2.035,0.329,2.921,1.199l-1.264,1.329c-0.476-0.428-1.066-0.64-1.623-0.64
							c-1.346,0-2.33,0.985-2.33,2.396c0,1.542,1.05,2.362,2.297,2.362c0.64,0,1.28-0.18,1.772-0.672L322.71,473.409z"/>
					</g>
					<g>
						<path style="fill:#FFFFFF;" d="M331.805,470.472c0,2.33-1.591,4.217-4.217,4.217c-2.626,0-4.201-1.887-4.201-4.217
							c0-2.314,1.609-4.217,4.185-4.217C330.149,466.255,331.805,468.158,331.805,470.472z M325.389,470.472
							c0,1.231,0.739,2.38,2.199,2.38c1.46,0,2.199-1.149,2.199-2.38c0-1.215-0.854-2.396-2.199-2.396
							C326.144,468.077,325.389,469.258,325.389,470.472z"/>
					</g>
					<g>
						<path style="fill:#FFFFFF;" d="M338.572,474.689v-4.332c0-1.068-0.559-2.035-1.658-2.035c-1.082,0-1.722,0.967-1.722,2.035
							v4.332h-2.003v-8.107h1.855l0.148,0.985c0.426-0.82,1.362-1.116,2.133-1.116c0.969,0,1.937,0.394,2.396,1.51
							c0.723-1.149,1.658-1.478,2.708-1.478c2.297,0,3.43,1.412,3.43,3.84v4.365h-2.003v-4.365c0-1.066-0.442-1.97-1.526-1.97
							c-1.082,0-1.756,0.935-1.756,2.003v4.332H338.572z"/>
					</g>
				</g>
			</g>
		</g>
		<g style="opacity:0.61;">
			<g>
				<g>
					<path style="fill:#FFFFFF;" d="M345.988,431.299c-0.006-1.224-0.959-2.121-2.189-2.14c-0.924-0.014-0.832,0.12-0.834-0.867
						c-0.003-1.097-0.007-2.194,0.003-3.292c0.003-0.379-0.112-0.691-0.362-0.976c-2.342-2.668-4.678-5.342-7.019-8.011
						c-0.12-0.137-0.275-0.244-0.414-0.366c-6.214,0-12.427,0-18.641,0c-0.794,0.293-1.14,0.868-1.138,1.709
						c0.01,3.748,0.004,7.496,0.004,11.243c0,0.556-0.003,0.589-0.55,0.551c-1.497-0.102-2.516,0.986-2.497,2.492
						c0.044,3.476,0.013,6.953,0.014,10.429c0.001,1.58,0.867,2.443,2.45,2.449c0.582,0.002,0.582,0.002,0.582,0.6
						c0,2.219-0.001,4.438,0.001,6.657c0.001,1.192,0.58,1.771,1.768,1.771c8.013,0.001,16.027,0.001,24.04,0
						c1.168,0,1.755-0.583,1.757-1.745c0.002-2.256,0-4.512,0.001-6.768c0-0.512,0.002-0.511,0.52-0.515
						c0.271-0.002,0.541,0.008,0.809-0.058c0.996-0.246,1.69-1.044,1.694-2.069C346.003,438.696,346.005,434.997,345.988,431.299z
						 M317.537,417.162c5.337,0,10.674,0,16.01,0c0.548,0,0.554,0.007,0.554,0.561c0.001,2.243-0.001,4.486,0.001,6.73
						c0.001,0.811,0.249,1.059,1.06,1.059c1.91,0.001,3.821,0,5.731,0.001c0.458,0,0.479,0.021,0.481,0.483
						c0.003,0.887,0.002,1.775,0,2.662c-0.001,0.477-0.024,0.498-0.504,0.499c-3.895,0.001-7.79,0-11.684,0
						c-3.882,0-7.765,0-11.647,0c-0.55,0-0.552-0.001-0.552-0.561c-0.001-3.624-0.001-7.247,0-10.871
						C316.987,417.166,316.991,417.162,317.537,417.162z M340.822,451.579c-3.883,0.001-7.766,0-11.65,0c-3.871,0-7.742,0-11.613,0
						c-0.572,0-0.574-0.002-0.574-0.579c-0.001-1.997-0.001-3.994,0.001-5.991c0-0.464,0.023-0.486,0.478-0.487
						c7.803-0.001,15.607-0.001,23.41,0c0.478,0,0.499,0.02,0.499,0.503c0.002,1.997,0.001,3.994,0,5.991
						C341.375,451.574,341.37,451.579,340.822,451.579z"/>
				</g>
				<g>
					<g>
						<rect x="327.418" y="417.053" style="fill:#FFFFFF;" width="1.757" height="1.054"/>
					</g>
					<g>
						<rect x="325.662" y="418.107" style="fill:#FFFFFF;" width="1.757" height="1.054"/>
					</g>
					<g>
						<rect x="327.418" y="419.161" style="fill:#FFFFFF;" width="1.757" height="1.054"/>
					</g>
					<g>
						<rect x="325.662" y="420.215" style="fill:#FFFFFF;" width="1.757" height="1.054"/>
					</g>
					<g>
						<rect x="327.418" y="421.269" style="fill:#FFFFFF;" width="1.757" height="1.054"/>
					</g>
					<g>
						<rect x="325.662" y="422.323" style="fill:#FFFFFF;" width="1.757" height="1.054"/>
					</g>
					<g>
						<rect x="327.418" y="423.378" style="fill:#FFFFFF;" width="1.757" height="1.054"/>
					</g>
					<g>
						<rect x="325.662" y="424.432" style="fill:#FFFFFF;" width="1.757" height="1.054"/>
					</g>
					<g>
						<rect x="327.418" y="425.486" style="fill:#FFFFFF;" width="1.757" height="1.054"/>
					</g>
					<g>
						<rect x="325.662" y="426.54" style="fill:#FFFFFF;" width="1.757" height="1.054"/>
					</g>
					<g>
						<rect x="327.418" y="427.594" style="fill:#FFFFFF;" width="1.757" height="1.054"/>
					</g>
					<g>
						<rect x="325.662" y="428.648" style="fill:#FFFFFF;" width="1.757" height="1.054"/>
					</g>
				</g>
			</g>
			<g>
				<path style="fill:#FFFFFF;" d="M187.637,431.299c-0.006-1.224-0.959-2.121-2.189-2.14c-0.924-0.014-0.832,0.12-0.834-0.867
					c-0.003-1.097-0.007-2.194,0.003-3.292c0.003-0.379-0.112-0.691-0.362-0.976c-2.342-2.668-4.678-5.342-7.019-8.011
					c-0.12-0.137-0.275-0.244-0.414-0.366c-6.214,0-12.427,0-18.641,0c-0.794,0.293-1.14,0.868-1.138,1.709
					c0.01,3.748,0.004,7.496,0.004,11.243c0,0.556-0.003,0.589-0.55,0.551c-1.497-0.102-2.516,0.986-2.497,2.492
					c0.044,3.476,0.013,6.953,0.014,10.429c0.001,1.58,0.867,2.443,2.45,2.449c0.582,0.002,0.582,0.002,0.582,0.6
					c0,2.219-0.001,4.438,0.001,6.657c0.001,1.192,0.58,1.771,1.768,1.771c8.013,0.001,16.027,0.001,24.04,0
					c1.168,0,1.755-0.583,1.757-1.745c0.002-2.256,0-4.512,0.001-6.768c0-0.512,0.002-0.511,0.52-0.515
					c0.271-0.002,0.541,0.008,0.809-0.058c0.996-0.246,1.69-1.044,1.694-2.069C187.652,438.696,187.655,434.997,187.637,431.299z
					 M159.187,417.162c5.337,0,10.674,0,16.01,0c0.548,0,0.554,0.007,0.554,0.561c0.001,2.243-0.001,4.486,0.001,6.73
					c0.001,0.811,0.249,1.059,1.06,1.059c1.91,0.001,3.821,0,5.731,0.001c0.458,0,0.479,0.021,0.481,0.483
					c0.003,0.887,0.002,1.775,0,2.662c-0.001,0.477-0.024,0.498-0.504,0.499c-3.895,0.001-7.79,0-11.684,0
					c-3.882,0-7.765,0-11.647,0c-0.55,0-0.552-0.001-0.552-0.561c-0.001-3.624-0.001-7.247,0-10.871
					C158.636,417.166,158.64,417.162,159.187,417.162z M182.472,451.579c-3.883,0.001-7.766,0-11.65,0c-3.871,0-7.742,0-11.613,0
					c-0.572,0-0.574-0.002-0.574-0.579c-0.001-1.997-0.001-3.994,0.001-5.991c0-0.464,0.023-0.486,0.478-0.487
					c7.803-0.001,15.607-0.001,23.41,0c0.478,0,0.499,0.02,0.499,0.503c0.002,1.997,0.001,3.994,0,5.991
					C183.024,451.574,183.019,451.579,182.472,451.579z"/>
			</g>
			<g>
				<path style="fill:#FFFFFF;" d="M159.779,440.669v-7.897h2.779c0.375,0,0.726,0.061,1.053,0.182
					c0.327,0.121,0.612,0.292,0.855,0.513c0.242,0.221,0.434,0.483,0.573,0.789c0.14,0.305,0.21,0.642,0.21,1.009
					c0,0.375-0.07,0.715-0.21,1.02c-0.14,0.305-0.331,0.568-0.573,0.789c-0.243,0.221-0.528,0.392-0.855,0.513
					c-0.327,0.121-0.678,0.182-1.053,0.182h-1.29v2.901H159.779z M162.58,436.356c0.39,0,0.684-0.111,0.882-0.331
					c0.199-0.22,0.298-0.474,0.298-0.761c0-0.14-0.024-0.276-0.072-0.408c-0.048-0.132-0.121-0.248-0.221-0.347
					c-0.099-0.099-0.223-0.178-0.37-0.237c-0.147-0.059-0.32-0.089-0.518-0.089h-1.312v2.173H162.58z"/>
				<path style="fill:#FFFFFF;" d="M166.308,432.771h1.731l3.177,5.294h0.088l-0.088-1.522v-3.772h1.478v7.897h-1.566l-3.353-5.592
					h-0.088l0.088,1.522v4.07h-1.467V432.771z"/>
				<path style="fill:#FFFFFF;" d="M177.922,436.334h3.872c0.022,0.089,0.04,0.195,0.055,0.32c0.014,0.125,0.022,0.25,0.022,0.375
					c0,0.507-0.077,0.985-0.231,1.434c-0.154,0.449-0.397,0.849-0.728,1.202c-0.353,0.375-0.776,0.666-1.268,0.871
					c-0.493,0.206-1.055,0.309-1.688,0.309c-0.574,0-1.114-0.103-1.622-0.309c-0.507-0.206-0.948-0.492-1.323-0.86
					c-0.375-0.367-0.673-0.803-0.894-1.307c-0.221-0.504-0.331-1.053-0.331-1.649c0-0.595,0.11-1.145,0.331-1.649
					c0.221-0.504,0.518-0.939,0.894-1.307c0.375-0.367,0.816-0.654,1.323-0.86c0.507-0.206,1.048-0.309,1.622-0.309
					c0.64,0,1.211,0.11,1.715,0.331c0.504,0.221,0.935,0.526,1.296,0.915l-1.025,1.004c-0.258-0.272-0.544-0.48-0.861-0.623
					c-0.316-0.143-0.695-0.215-1.136-0.215c-0.361,0-0.703,0.065-1.026,0.193c-0.324,0.129-0.607,0.311-0.85,0.546
					c-0.242,0.235-0.436,0.52-0.579,0.855c-0.143,0.335-0.215,0.708-0.215,1.119c0,0.412,0.072,0.785,0.215,1.12
					c0.143,0.335,0.338,0.62,0.584,0.855c0.246,0.235,0.531,0.418,0.855,0.546c0.323,0.129,0.669,0.193,1.037,0.193
					c0.419,0,0.773-0.061,1.064-0.182c0.29-0.121,0.538-0.278,0.744-0.469c0.148-0.132,0.275-0.3,0.381-0.502
					c0.106-0.202,0.189-0.428,0.248-0.678h-2.482V436.334z"/>
			</g>
			<g>
				<path style="fill:#FFFFFF;" d="M224.019,431.299c-0.006-1.224-0.959-2.121-2.189-2.14c-0.924-0.014-0.832,0.12-0.834-0.867
					c-0.003-1.097-0.007-2.194,0.003-3.292c0.003-0.379-0.112-0.691-0.362-0.976c-2.342-2.668-4.678-5.342-7.019-8.011
					c-0.12-0.137-0.275-0.244-0.414-0.366c-6.214,0-12.427,0-18.641,0c-0.794,0.293-1.14,0.868-1.138,1.709
					c0.01,3.748,0.004,7.496,0.004,11.243c0,0.556-0.003,0.589-0.55,0.551c-1.497-0.102-2.516,0.986-2.497,2.492
					c0.044,3.476,0.013,6.953,0.014,10.429c0.001,1.58,0.867,2.443,2.45,2.449c0.582,0.002,0.582,0.002,0.582,0.6
					c0,2.219-0.001,4.438,0.001,6.657c0.001,1.192,0.58,1.771,1.768,1.771c8.013,0.001,16.027,0.001,24.04,0
					c1.168,0,1.755-0.583,1.757-1.745c0.002-2.256,0-4.512,0.001-6.768c0-0.512,0.002-0.511,0.52-0.515
					c0.271-0.002,0.541,0.008,0.809-0.058c0.997-0.246,1.69-1.044,1.694-2.069C224.034,438.696,224.036,434.997,224.019,431.299z
					 M195.568,417.162c5.337,0,10.674,0,16.01,0c0.548,0,0.554,0.007,0.554,0.561c0.001,2.243-0.001,4.486,0.001,6.73
					c0.001,0.811,0.249,1.059,1.06,1.059c1.91,0.001,3.821,0,5.731,0.001c0.458,0,0.479,0.021,0.481,0.483
					c0.003,0.887,0.002,1.775,0,2.662c-0.001,0.477-0.024,0.498-0.504,0.499c-3.895,0.001-7.79,0-11.684,0
					c-3.882,0-7.765,0-11.647,0c-0.55,0-0.552-0.001-0.552-0.561c-0.001-3.624-0.001-7.247,0-10.871
					C195.018,417.166,195.022,417.162,195.568,417.162z M218.854,451.579c-3.883,0.001-7.766,0-11.65,0c-3.871,0-7.742,0-11.613,0
					c-0.572,0-0.574-0.002-0.574-0.579c-0.001-1.997-0.001-3.994,0.001-5.991c0-0.464,0.023-0.486,0.478-0.487
					c7.803-0.001,15.607-0.001,23.41,0c0.478,0,0.499,0.02,0.499,0.503c0.002,1.997,0.001,3.994,0,5.991
					C219.406,451.574,219.401,451.579,218.854,451.579z"/>
			</g>
			<g>
				<path style="fill:#FFFFFF;" d="M205.111,432.771h1.699l2.967,7.897h-1.644l-0.651-1.886h-3.044l-0.651,1.886h-1.643
					L205.111,432.771z M206.997,437.415l-0.706-1.974l-0.287-0.96h-0.088l-0.287,0.96l-0.706,1.974H206.997z"/>
				<path style="fill:#FFFFFF;" d="M211.331,434.536c-0.125,0-0.245-0.024-0.359-0.072c-0.114-0.048-0.213-0.114-0.298-0.199
					c-0.084-0.084-0.151-0.182-0.198-0.292c-0.048-0.11-0.072-0.232-0.072-0.364s0.024-0.254,0.072-0.364
					c0.048-0.11,0.114-0.208,0.198-0.292c0.084-0.084,0.184-0.151,0.298-0.198c0.114-0.048,0.233-0.072,0.359-0.072
					c0.257,0,0.478,0.09,0.662,0.27c0.184,0.181,0.276,0.399,0.276,0.656s-0.092,0.476-0.276,0.656
					C211.809,434.446,211.589,434.536,211.331,434.536z M210.615,440.669v-5.404h1.445v5.404H210.615z"/>
			</g>
			<g>
				<path style="fill:#FFFFFF;" d="M261.044,431.299c-0.006-1.224-0.959-2.121-2.189-2.14c-0.924-0.014-0.832,0.12-0.834-0.867
					c-0.003-1.097-0.007-2.194,0.003-3.292c0.003-0.379-0.112-0.691-0.362-0.976c-2.342-2.668-4.678-5.342-7.019-8.011
					c-0.12-0.137-0.275-0.244-0.414-0.366c-6.214,0-12.427,0-18.641,0c-0.794,0.293-1.14,0.868-1.138,1.709
					c0.01,3.748,0.004,7.496,0.004,11.243c0,0.556-0.003,0.589-0.55,0.551c-1.497-0.102-2.516,0.986-2.497,2.492
					c0.044,3.476,0.013,6.953,0.014,10.429c0.001,1.58,0.867,2.443,2.45,2.449c0.582,0.002,0.582,0.002,0.582,0.6
					c0,2.219-0.001,4.438,0.001,6.657c0.001,1.192,0.58,1.771,1.768,1.771c8.013,0.001,16.027,0.001,24.04,0
					c1.168,0,1.755-0.583,1.757-1.745c0.002-2.256,0-4.512,0.001-6.768c0-0.512,0.002-0.511,0.52-0.515
					c0.271-0.002,0.541,0.008,0.809-0.058c0.996-0.246,1.69-1.044,1.694-2.069C261.059,438.696,261.061,434.997,261.044,431.299z
					 M232.593,417.162c5.337,0,10.674,0,16.01,0c0.548,0,0.554,0.007,0.554,0.561c0.001,2.243-0.001,4.486,0.001,6.73
					c0.001,0.811,0.249,1.059,1.06,1.059c1.91,0.001,3.821,0,5.731,0.001c0.458,0,0.479,0.021,0.481,0.483
					c0.003,0.887,0.002,1.775,0,2.662c-0.001,0.477-0.024,0.498-0.504,0.499c-3.895,0.001-7.79,0-11.684,0
					c-3.882,0-7.765,0-11.647,0c-0.55,0-0.552-0.001-0.552-0.561c-0.001-3.624-0.001-7.247,0-10.871
					C232.042,417.166,232.047,417.162,232.593,417.162z M255.878,451.579c-3.883,0.001-7.766,0-11.65,0c-3.871,0-7.742,0-11.613,0
					c-0.572,0-0.574-0.002-0.574-0.579c-0.001-1.997-0.001-3.994,0.001-5.991c0-0.464,0.023-0.486,0.478-0.487
					c7.803-0.001,15.607-0.001,23.41,0c0.478,0,0.499,0.02,0.499,0.503c0.002,1.997,0.001,3.994,0,5.991
					C256.431,451.574,256.426,451.579,255.878,451.579z"/>
			</g>
			<g>
				<path style="fill:#FFFFFF;" d="M236.361,440.845c-0.338,0-0.662-0.048-0.971-0.143c-0.309-0.095-0.592-0.239-0.849-0.43
					c-0.257-0.191-0.481-0.425-0.673-0.7c-0.191-0.276-0.342-0.597-0.452-0.965l1.401-0.551c0.103,0.397,0.283,0.726,0.54,0.987
					c0.257,0.261,0.596,0.392,1.015,0.392c0.154,0,0.303-0.02,0.447-0.061c0.143-0.04,0.272-0.099,0.386-0.176
					s0.204-0.175,0.27-0.292c0.066-0.118,0.099-0.254,0.099-0.408c0-0.147-0.026-0.279-0.077-0.397
					c-0.051-0.117-0.138-0.227-0.259-0.331c-0.121-0.103-0.28-0.202-0.475-0.298c-0.195-0.095-0.435-0.195-0.722-0.298l-0.485-0.176
					c-0.213-0.073-0.429-0.173-0.645-0.298c-0.217-0.125-0.413-0.276-0.59-0.452c-0.177-0.176-0.322-0.384-0.436-0.623
					c-0.114-0.239-0.171-0.509-0.171-0.81c0-0.309,0.06-0.597,0.182-0.866c0.121-0.268,0.294-0.503,0.518-0.706
					c0.224-0.202,0.492-0.36,0.805-0.474s0.66-0.171,1.042-0.171c0.397,0,0.74,0.053,1.031,0.16
					c0.291,0.107,0.537,0.243,0.739,0.408c0.202,0.165,0.366,0.348,0.491,0.546c0.125,0.199,0.217,0.386,0.276,0.563l-1.312,0.551
					c-0.074-0.221-0.208-0.419-0.402-0.596c-0.195-0.176-0.462-0.265-0.8-0.265c-0.324,0-0.592,0.075-0.805,0.226
					c-0.213,0.151-0.32,0.348-0.32,0.59c0,0.235,0.103,0.436,0.309,0.601c0.206,0.165,0.533,0.325,0.982,0.48l0.497,0.165
					c0.316,0.111,0.605,0.237,0.866,0.381c0.261,0.143,0.485,0.314,0.673,0.513c0.187,0.199,0.331,0.425,0.43,0.678
					c0.1,0.254,0.149,0.546,0.149,0.877c0,0.412-0.083,0.767-0.248,1.064c-0.165,0.298-0.377,0.542-0.634,0.734
					c-0.258,0.191-0.548,0.335-0.872,0.43C236.986,440.797,236.67,440.845,236.361,440.845z"/>
				<path style="fill:#FFFFFF;" d="M239.516,432.771h1.61l1.633,4.754l0.287,1.015h0.088l0.309-1.015l1.699-4.754h1.61l-2.879,7.897
					h-1.566L239.516,432.771z"/>
				<path style="fill:#FFFFFF;" d="M251.097,436.334h3.871c0.022,0.089,0.04,0.195,0.055,0.32c0.015,0.125,0.023,0.25,0.023,0.375
					c0,0.507-0.078,0.985-0.232,1.434c-0.154,0.449-0.397,0.849-0.728,1.202c-0.353,0.375-0.775,0.666-1.268,0.871
					c-0.493,0.206-1.055,0.309-1.688,0.309c-0.574,0-1.114-0.103-1.621-0.309c-0.507-0.206-0.949-0.492-1.324-0.86
					c-0.375-0.367-0.673-0.803-0.894-1.307c-0.22-0.504-0.331-1.053-0.331-1.649c0-0.595,0.11-1.145,0.331-1.649
					c0.221-0.504,0.518-0.939,0.894-1.307c0.375-0.367,0.816-0.654,1.324-0.86c0.507-0.206,1.047-0.309,1.621-0.309
					c0.64,0,1.211,0.11,1.715,0.331c0.504,0.221,0.936,0.526,1.296,0.915l-1.026,1.004c-0.257-0.272-0.544-0.48-0.861-0.623
					c-0.316-0.143-0.694-0.215-1.136-0.215c-0.36,0-0.702,0.065-1.026,0.193c-0.323,0.129-0.607,0.311-0.849,0.546
					c-0.243,0.235-0.436,0.52-0.579,0.855c-0.143,0.335-0.215,0.708-0.215,1.119c0,0.412,0.072,0.785,0.215,1.12
					c0.143,0.335,0.338,0.62,0.585,0.855c0.246,0.235,0.531,0.418,0.854,0.546c0.324,0.129,0.669,0.193,1.037,0.193
					c0.419,0,0.774-0.061,1.064-0.182c0.29-0.121,0.539-0.278,0.745-0.469c0.147-0.132,0.274-0.3,0.38-0.502
					c0.107-0.202,0.189-0.428,0.248-0.678h-2.482V436.334z"/>
			</g>
			<g>
				<path style="fill:#FFFFFF;" d="M297.3,431.299c-0.006-1.224-0.959-2.121-2.189-2.14c-0.924-0.014-0.832,0.12-0.834-0.867
					c-0.003-1.097-0.007-2.194,0.003-3.292c0.003-0.379-0.112-0.691-0.362-0.976c-2.342-2.668-4.678-5.342-7.019-8.011
					c-0.12-0.137-0.275-0.244-0.414-0.366c-6.214,0-12.427,0-18.641,0c-0.794,0.293-1.14,0.868-1.138,1.709
					c0.01,3.748,0.004,7.496,0.004,11.243c0,0.556-0.003,0.589-0.55,0.551c-1.497-0.102-2.516,0.986-2.497,2.492
					c0.044,3.476,0.013,6.953,0.014,10.429c0.001,1.58,0.867,2.443,2.45,2.449c0.582,0.002,0.582,0.002,0.582,0.6
					c0,2.219-0.001,4.438,0.001,6.657c0.001,1.192,0.58,1.771,1.768,1.771c8.013,0.001,16.027,0.001,24.04,0
					c1.168,0,1.755-0.583,1.757-1.745c0.002-2.256,0-4.512,0.001-6.768c0-0.512,0.002-0.511,0.52-0.515
					c0.271-0.002,0.541,0.008,0.809-0.058c0.996-0.246,1.69-1.044,1.694-2.069C297.315,438.696,297.318,434.997,297.3,431.299z
					 M268.85,417.162c5.337,0,10.674,0,16.01,0c0.548,0,0.554,0.007,0.554,0.561c0.001,2.243-0.001,4.486,0.001,6.73
					c0.001,0.811,0.249,1.059,1.06,1.059c1.91,0.001,3.821,0,5.731,0.001c0.458,0,0.479,0.021,0.481,0.483
					c0.003,0.887,0.002,1.775,0,2.662c-0.001,0.477-0.024,0.498-0.504,0.499c-3.895,0.001-7.79,0-11.684,0
					c-3.882,0-7.765,0-11.647,0c-0.55,0-0.552-0.001-0.552-0.561c-0.001-3.624-0.001-7.247,0-10.871
					C268.299,417.166,268.303,417.162,268.85,417.162z M292.135,451.579c-3.883,0.001-7.766,0-11.65,0c-3.871,0-7.742,0-11.613,0
					c-0.572,0-0.574-0.002-0.574-0.579c-0.001-1.997-0.001-3.994,0.001-5.991c0-0.464,0.023-0.486,0.478-0.487
					c7.803-0.001,15.607-0.001,23.41,0c0.478,0,0.499,0.02,0.499,0.503c0.001,1.997,0.001,3.994,0,5.991
					C292.687,451.574,292.682,451.579,292.135,451.579z"/>
			</g>
			<g>
				<path style="fill:#FFFFFF;" d="M272.966,434.183v1.831h3.165v1.412h-3.165v1.831h3.518v1.412h-5.007v-7.897h5.007v1.412H272.966
					z"/>
				<path style="fill:#FFFFFF;" d="M277.852,440.669v-7.897h2.779c0.375,0,0.726,0.061,1.053,0.182
					c0.327,0.121,0.612,0.292,0.855,0.513c0.243,0.221,0.434,0.483,0.574,0.789c0.14,0.305,0.209,0.642,0.209,1.009
					c0,0.375-0.07,0.715-0.209,1.02c-0.14,0.305-0.331,0.568-0.574,0.789c-0.243,0.221-0.528,0.392-0.855,0.513
					c-0.327,0.121-0.678,0.182-1.053,0.182h-1.29v2.901H277.852z M280.653,436.356c0.389,0,0.684-0.111,0.882-0.331
					c0.199-0.22,0.298-0.474,0.298-0.761c0-0.14-0.024-0.276-0.072-0.408c-0.048-0.132-0.121-0.248-0.221-0.347
					c-0.099-0.099-0.222-0.178-0.37-0.237c-0.147-0.059-0.32-0.089-0.518-0.089h-1.312v2.173H280.653z"/>
				<path style="fill:#FFFFFF;" d="M286.797,440.845c-0.338,0-0.662-0.048-0.971-0.143c-0.309-0.095-0.592-0.239-0.849-0.43
					c-0.257-0.191-0.482-0.425-0.673-0.7c-0.191-0.276-0.342-0.597-0.452-0.965l1.401-0.551c0.103,0.397,0.283,0.726,0.541,0.987
					c0.257,0.261,0.595,0.392,1.015,0.392c0.154,0,0.303-0.02,0.447-0.061c0.143-0.04,0.272-0.099,0.386-0.176
					c0.114-0.077,0.204-0.175,0.27-0.292c0.066-0.118,0.1-0.254,0.1-0.408c0-0.147-0.026-0.279-0.077-0.397
					c-0.051-0.117-0.138-0.227-0.259-0.331c-0.121-0.103-0.279-0.202-0.474-0.298c-0.195-0.095-0.436-0.195-0.723-0.298
					l-0.485-0.176c-0.213-0.073-0.428-0.173-0.645-0.298c-0.217-0.125-0.414-0.276-0.59-0.452c-0.176-0.176-0.322-0.384-0.436-0.623
					c-0.114-0.239-0.171-0.509-0.171-0.81c0-0.309,0.061-0.597,0.182-0.866c0.121-0.268,0.294-0.503,0.518-0.706
					c0.224-0.202,0.493-0.36,0.805-0.474c0.312-0.114,0.66-0.171,1.042-0.171c0.397,0,0.741,0.053,1.031,0.16
					c0.29,0.107,0.537,0.243,0.739,0.408c0.202,0.165,0.365,0.348,0.491,0.546c0.125,0.199,0.217,0.386,0.276,0.563l-1.312,0.551
					c-0.074-0.221-0.208-0.419-0.403-0.596c-0.195-0.176-0.462-0.265-0.799-0.265c-0.324,0-0.592,0.075-0.805,0.226
					c-0.213,0.151-0.32,0.348-0.32,0.59c0,0.235,0.103,0.436,0.309,0.601c0.206,0.165,0.533,0.325,0.982,0.48l0.496,0.165
					c0.316,0.111,0.605,0.237,0.866,0.381c0.261,0.143,0.485,0.314,0.673,0.513c0.187,0.199,0.331,0.425,0.43,0.678
					c0.099,0.254,0.149,0.546,0.149,0.877c0,0.412-0.083,0.767-0.248,1.064c-0.165,0.298-0.377,0.542-0.634,0.734
					c-0.258,0.191-0.548,0.335-0.872,0.43C287.422,440.797,287.105,440.845,286.797,440.845z"/>
			</g>
			<g>
				<path style="fill:#FFFFFF;" d="M321.394,439.168l4.004-4.985h-3.827v-1.412h5.559v1.5l-3.96,4.985h4.004v1.412h-5.779V439.168z"
					/>
				<path style="fill:#FFFFFF;" d="M328.409,432.771h1.489v7.897h-1.489V432.771z"/>
				<path style="fill:#FFFFFF;" d="M331.486,440.669v-7.897h2.779c0.375,0,0.726,0.061,1.053,0.182
					c0.327,0.121,0.612,0.292,0.855,0.513s0.434,0.483,0.574,0.789c0.14,0.305,0.209,0.642,0.209,1.009
					c0,0.375-0.07,0.715-0.209,1.02c-0.14,0.305-0.331,0.568-0.574,0.789c-0.243,0.221-0.528,0.392-0.855,0.513
					c-0.327,0.121-0.678,0.182-1.053,0.182h-1.29v2.901H331.486z M334.288,436.356c0.389,0,0.684-0.111,0.882-0.331
					c0.199-0.22,0.298-0.474,0.298-0.761c0-0.14-0.024-0.276-0.072-0.408c-0.048-0.132-0.121-0.248-0.221-0.347
					c-0.099-0.099-0.222-0.178-0.37-0.237c-0.147-0.059-0.32-0.089-0.518-0.089h-1.312v2.173H334.288z"/>
			</g>
		</g>
		<g style="opacity:0.61;">
			<path style="fill:#FFFFFF;" d="M300.133,433.27h9.067v2.242h-9.067V433.27z M300.133,437.136h9.067v2.243h-9.067V437.136z"/>
		</g>
	</g>
	<g style="opacity:0.61;">
		<path style="fill:#FFFFFF;" d="M156.756,478.878h1.607c1.263,0,2.114,0.812,2.114,1.974c0,1.161-0.851,1.973-2.114,1.973h-1.607
			V478.878z M158.34,482.464c1.049,0,1.725-0.665,1.725-1.612c0-0.947-0.677-1.613-1.725-1.613h-1.167v3.225H158.34z"/>
		<path style="fill:#FFFFFF;" d="M165.139,480.851c0-1.15,0.879-2.007,2.075-2.007c1.184,0,2.069,0.851,2.069,2.007
			c0,1.156-0.885,2.007-2.069,2.007C166.019,482.858,165.139,482.002,165.139,480.851z M168.866,480.851
			c0-0.942-0.705-1.635-1.652-1.635c-0.953,0-1.663,0.693-1.663,1.635c0,0.941,0.71,1.635,1.663,1.635
			C168.162,482.486,168.866,481.793,168.866,480.851z"/>
		<path style="fill:#FFFFFF;" d="M179.596,478.878l-1.331,3.947h-0.44l-1.156-3.366l-1.161,3.366h-0.434l-1.331-3.947h0.429
			l1.139,3.394l1.178-3.394h0.389l1.161,3.411l1.156-3.411H179.596z"/>
		<path style="fill:#FFFFFF;" d="M187.731,478.878v3.947h-0.344l-2.537-3.202v3.202h-0.417v-3.947h0.344l2.543,3.203v-3.203H187.731
			z"/>
		<path style="fill:#FFFFFF;" d="M193.093,478.878h0.417v3.586h2.21v0.361h-2.627V478.878z"/>
		<path style="fill:#FFFFFF;" d="M200.061,480.851c0-1.15,0.879-2.007,2.075-2.007c1.184,0,2.069,0.851,2.069,2.007
			c0,1.156-0.885,2.007-2.069,2.007C200.941,482.858,200.061,482.002,200.061,480.851z M203.788,480.851
			c0-0.942-0.705-1.635-1.652-1.635c-0.953,0-1.663,0.693-1.663,1.635c0,0.941,0.71,1.635,1.663,1.635
			C203.083,482.486,203.788,481.793,203.788,480.851z"/>
		<path style="fill:#FFFFFF;" d="M211.636,481.77h-2.199l-0.474,1.054h-0.434l1.804-3.947h0.412l1.804,3.947h-0.44L211.636,481.77z
			 M211.484,481.432l-0.947-2.12l-0.947,2.12H211.484z"/>
		<path style="fill:#FFFFFF;" d="M217.28,478.878h1.607c1.263,0,2.114,0.812,2.114,1.974c0,1.161-0.851,1.973-2.114,1.973h-1.607
			V478.878z M218.864,482.464c1.049,0,1.725-0.665,1.725-1.612c0-0.947-0.677-1.613-1.725-1.613h-1.167v3.225H218.864z"/>
		<path style="fill:#FFFFFF;" d="M234.041,481.77h-2.199l-0.474,1.054h-0.434l1.804-3.947h0.412l1.804,3.947h-0.44L234.041,481.77z
			 M233.889,481.432l-0.947-2.12l-0.947,2.12H233.889z"/>
		<path style="fill:#FFFFFF;" d="M239.685,478.878h0.417v3.586h2.21v0.361h-2.627V478.878z"/>
		<path style="fill:#FFFFFF;" d="M247.082,478.878h0.417v3.586h2.21v0.361h-2.627V478.878z"/>
		<path style="fill:#FFFFFF;" d="M260.449,479.239v1.551h2.041v0.361h-2.041v1.675h-0.417v-3.947h2.706v0.361H260.449z"/>
		<path style="fill:#FFFFFF;" d="M267.678,478.878h0.417v3.947h-0.417V478.878z"/>
		<path style="fill:#FFFFFF;" d="M273.456,478.878h0.417v3.586h2.21v0.361h-2.627V478.878z"/>
		<path style="fill:#FFFFFF;" d="M283.644,482.464v0.361h-2.791v-3.947h2.706v0.361h-2.289v1.404h2.041v0.355h-2.041v1.466H283.644z
			"/>
		<path style="fill:#FFFFFF;" d="M294.672,479.239v1.551h2.041v0.361h-2.041v1.675h-0.417v-3.947h2.706v0.361H294.672z"/>
		<path style="fill:#FFFFFF;" d="M301.5,480.851c0-1.15,0.879-2.007,2.075-2.007c1.184,0,2.069,0.851,2.069,2.007
			c0,1.156-0.885,2.007-2.069,2.007C302.379,482.858,301.5,482.002,301.5,480.851z M305.226,480.851
			c0-0.942-0.705-1.635-1.652-1.635c-0.953,0-1.663,0.693-1.663,1.635c0,0.941,0.71,1.635,1.663,1.635
			C304.522,482.486,305.226,481.793,305.226,480.851z"/>
		<path style="fill:#FFFFFF;" d="M313.351,482.825l-0.902-1.269c-0.102,0.011-0.203,0.017-0.316,0.017h-1.06v1.252h-0.417v-3.947
			h1.477c1.004,0,1.613,0.507,1.613,1.353c0,0.62-0.327,1.054-0.902,1.24l0.964,1.353H313.351z M313.328,480.231
			c0-0.632-0.417-0.992-1.207-0.992h-1.048v1.979h1.048C312.911,481.218,313.328,480.851,313.328,480.231z"/>
		<path style="fill:#FFFFFF;" d="M322.907,478.878v3.947h-0.4v-3.158l-1.551,2.656h-0.197l-1.551-2.639v3.14h-0.4v-3.947h0.344
			l1.714,2.926l1.697-2.926H322.907z"/>
		<path style="fill:#FFFFFF;" d="M330.744,481.77h-2.199l-0.473,1.054h-0.434l1.804-3.947h0.411l1.804,3.947h-0.44L330.744,481.77z
			 M330.592,481.432l-0.947-2.12l-0.947,2.12H330.592z"/>
		<path style="fill:#FFFFFF;" d="M336.957,479.239h-1.387v-0.361h3.192v0.361h-1.387v3.586h-0.417V479.239z"/>
		<path style="fill:#FFFFFF;" d="M343.063,482.346l0.164-0.321c0.282,0.276,0.784,0.479,1.302,0.479c0.739,0,1.06-0.31,1.06-0.699
			c0-1.083-2.43-0.417-2.43-1.877c0-0.581,0.451-1.083,1.455-1.083c0.446,0,0.908,0.13,1.224,0.35l-0.141,0.333
			c-0.338-0.22-0.733-0.327-1.083-0.327c-0.722,0-1.043,0.321-1.043,0.716c0,1.083,2.43,0.429,2.43,1.866
			c0,0.581-0.462,1.077-1.472,1.077C343.937,482.858,343.356,482.65,343.063,482.346z"/>
	</g>
</g>
<g>
</g>
<g>
	<path style="fill-rule:evenodd;clip-rule:evenodd;fill:#6ACFF6;" d="M440.92,302.491c-2.542-1.253-1.227-4.996,1.335-5.833
		c5.534-1.785,6.986-2.706,10.841-4.996c4.009-2.362,6.322-4.252,9.93-9.181c4.374-5.962,6.974-11.386,4.788-18.677
		c-0.24-0.827-1.211-2.315-2.683-2.315c-1.256,0-2.823,1.175-3.591,2.486c-2.62,4.512-0.954,11.599-6.136,14.458
		c-0.999,0.551-2.044,0.149-2.662,0.074c-3.212-0.381-6.504-2.175-10.211-0.935c-3.508,1.174-5.54,4.886-10.627,5.295
		c-5.071,0.393-6.704-1.549-8.483-4.945c-0.92-1.766-1.526-4.922-4.358-5.203c-2.082-0.208-4.732,0.373-7.653,2.643
		c-5.212,4.06-7.072,6.841-12.135,5.711c-5.239-1.161-2.942-8.466-5.909-9.673c-2.504-1.018-7.381,3.592-9.404,5.363
		c-2.023,1.772-5.632,5.626-7.44,6.876c-1.804,1.248-4.952,1.095-7.754-0.914c-6.774-4.865-8.244-9.652-8.141-12.154
		c0.137-3.572,5.114-5,6.116-5.16c2.033-0.317,3.196,0.39,3.59,1.37c0.935,2.339,0.191,9.001,3.108,9.617
		c2.32,0.488,7.222-3.737,11.926-8.607c1.926-2.017,3.675-4.784,5.544-6.659c2.354-2.354,4.737-3.596,6.037-3.54
		c2.413,0.112,3.823,1.731,3.736,4.754c-0.041,1.608-1.289,5.293-1.169,8.219c0.124,2.376,0.45,4.503,2.257,4.81
		c5.451,0.921,11.917-9.818,13.453-11.789c1.698-2.177,5.981-3.538,8.329-2.646c2.434,0.931,4.051,3.92,4.171,6.497
		c0.12,2.568-0.299,6.196,1.981,7.538c2.828,1.677,7.87-0.462,12.99-2.566c2.782-1.14,5.485-0.585,7.869-1.383
		c5.485-1.833,2.972-13.129,10.518-15.762c2.794-0.982,6.277-0.773,7.982-0.113c4.043,1.569,4.954,6.306,5.332,8.165
		c0.249,1.283,2.84,8.352-5.104,20.741c-3.815,5.954-8.152,10.108-16.092,14.793C449.043,301.333,444.208,304.118,440.92,302.491
		L440.92,302.491z"/>
	<path style="fill-rule:evenodd;clip-rule:evenodd;fill:#6ACFF6;" d="M332.204,298.706c-0.056-1.876,4.059-21.684,4.273-23.851
		c0.07-0.738-1.779-0.869-3.276,0.794c-2.246,2.49-5.721,8.112-13.146,6.757c-4.141-0.751-5.278-4.089-5.709-5.328
		c-0.364-1.064-0.769-3.75-1.872-3.808c-1.31-0.06-3.128,1.862-3.86,3.701c-0.908,2.299-1.825,4.732-3.564,5.516
		c-2.119,0.954-7.612,1.206-10.579-1.488c-1.358-1.238-3.469-4.928-1.42-8.127c2.743-4.271,6.015-7.213,7.752-8.618
		c2.214-1.792,6.486-3.204,8.251-2.843c2.218,0.458,3.099,1.673,4.406,1.638c0.931-0.021,5.427-0.446,5.854,1.69
		c0.738,3.75-0.171,8.84,1.227,10.523c1.886,2.245,4.463,1.969,6.341,0.56c5.888-4.443,9.524-13.56,18.194-14.761
		c1.664-2.523,8.97-19.244,13.079-23.403c3.962-3.993,9.329-2.104,10.963-0.226c3.584,4.115,1.768,7.355-2.556,8.718
		c-3.719,1.185-6.136,3.287-8.543,6.267c-6.696,8.257-10.542,15.447-13.824,25.095c-2.519,7.421-3.249,13.819-5.772,20.998
		c-0.184,0.535-0.348,1.308-0.825,1.624C336.933,300.584,332.352,302.794,332.204,298.706L332.204,298.706z M300.708,276.196
		c-6.008-0.863,0.585-6.646,2.768-7.76c1.061-0.527,4.462-0.8,4.725-0.142C308.857,269.956,303.231,276.602,300.708,276.196
		L300.708,276.196z"/>
	<path style="fill-rule:evenodd;clip-rule:evenodd;fill:#6ACFF6;" d="M246.987,289.345c-1.084-3.23,0.78-7.069,1.87-8.537
		c1.118-1.519,3.061-3.688,5.399-5.61c1.513-1.252,5.203-3.754,8.189-6.18c2.209-1.788,4.011-3.678,4.308-4.281
		c0.438-0.862,0.543-2.54-0.192-2.998c-0.394-0.247-1.273,0.245-1.943,0.535c-2.336,1.026-6.692,3.703-10.259,4.35
		c-2.045,0.364-4.53-0.115-5.615-1.215c-0.975-0.989-1.662-2.357-0.207-3.846c1.629-1.681,13.005-5.286,13.491-5.417
		c1.447-0.406,3.523-0.589,4.814-0.589c2.913,0,4.118,2.102,5.029,3.796c1.121,2.086,1.779,4.627,1.735,7.316
		c-0.048,2.844-3.141,4.245-5.2,4.442c-0.974,0.091-2.106,0.183-3.194,0.552c-0.772,0.255-3.477,2.254-4.53,3.203
		c-2.567,2.331-5.029,4.795-5.479,9.329c-0.398,4.014,5.11,3.317,5.852,3.278c0.821-0.047,3.91-0.75,7.944-3.435
		c0.664-0.443,2.871-2,4.804-2.848c1.62-0.716,2.902-0.533,3.503-0.139c1.412,0.94,2.19,2.49,0.793,4.568
		c-1.277,1.88-4.925,2.523-8.234,3.557c-2.973,0.939-9.983,4.932-17.374,4.348C250.638,293.374,247.898,292.031,246.987,289.345
		L246.987,289.345z"/>
	<path style="fill-rule:evenodd;clip-rule:evenodd;fill:#6ACFF6;" d="M192.128,329.663c-0.62,0.284-1.938,0.707-5.035,1.704
		c-3.401,1.099-12.452,2.046-19.707,0.595c-7.25-1.452-36.491-10.98-29.414-46.929c3.052-15.484,12.352-26.504,32.335-30.056
		c9.118-1.625,16.834-2.465,26.141-2.328c9.383,0.126,20.035,1.936,29.54,6.593c0.817,0.402,1.86,1.337,2.757,1.751
		c0.904,0.417,3.118,0.128,4.447-1.306c0.771-1.31,0.678-2.506-0.823-3.733c-5.382-4.445-18.098-8.239-34.58-8.972
		c-16.493-0.738-23.769,0.69-31.842,1.283c-5.193,0.391-2.897-1.964-2.542-2.376c5.962-6.971,16.53-19.53,41.254-34.805
		c24.724-15.28,40.475-18.566,44.259-19.01c4.028-0.469,10.695,2.683,16.103,3.655c3.769,0.667,8.199,0.898,9.207-0.51
		c1.005-1.406,0.52-2.737-3.962-5.048c-4.49-2.318-16.588-4.478-19.563-4.313c-17.45,0.96-33.05,10.051-51.084,20.999
		c-18.025,10.95-35.779,27.176-41.161,33.149c-3.472,3.855-7.027,6.905-8.609,8.885c-0.872,1.109-3.719,2.415-5.265,2.803
		c-3.664,0.916-29.267,4.975-64.195,18.734c-36.263,14.29-50.142,26.832-54.252,33.14c-1.423,2.187-1.613,4.887,0.021,6.441
		c1.511,1.431,4.811,3.373,8.469,4.655c5.728,1.995,9.477,2.685,11.403,2.366c1.407-0.23,1.674-1.055,1.925-1.986
		c0.375-1.408-0.585-1.941-0.835-2.857c-0.387-1.407-2.704-2.241-6.314-3.173c-1.951-0.508-8.251-3.159-2.396-7.986
		c10.122-8.358,19.277-14.611,44.521-24.664c37.216-14.82,51.895-15.669,55.635-16.296c3.592-0.597,2.265,1.023,0.703,3.162
		c-6.317,9.837-7.876,13.8-9.111,22.669c-5.581,40.023,26.459,50.613,36.878,52.103c13.664,1.952,24.148-2.048,27.031-3.827
		c1.397-0.862,1.403-2.227,0.938-3.988C194.798,329.385,194.563,328.544,192.128,329.663L192.128,329.663z"/>
	<path style="fill-rule:evenodd;clip-rule:evenodd;fill:#6ACFF6;" d="M202.008,330.428c0.891-0.491,2.361-2.1,1.867-3.362
		c-0.729-1.895-2.593-1.404-3.646-0.975c-1.152,0.478-3.128,0.602-3.536,1.806c-0.357,1.078,0.173,1.364,0.391,2.082
		C197.594,331.6,199.85,331.622,202.008,330.428L202.008,330.428z"/>
	<path style="fill-rule:evenodd;clip-rule:evenodd;fill:#6ACFF6;" d="M205.831,327.208c0.833,0.67,2.998,0.552,5.5-0.537
		c1.633-0.708,2.717-2.398,4.726-3.114c1.47-0.531,3.361-1.969,5.162-2.59c4.981-1.701,6.327-5.203,2.904-4.838
		c-4.811,0.507-17.022,6.223-18.183,6.967C204.147,324.267,204.463,326.099,205.831,327.208L205.831,327.208z"/>
	<path style="fill-rule:evenodd;clip-rule:evenodd;fill:#6ACFF6;" d="M55.435,318.164c-1.396,0-2.339-0.595-3.164-1.424
		c-0.748-0.746-1.637-0.713-2.145-2.552c-0.378-1.352,2.498-2.457,3.675-2.247c1.716,0.301,4.38,0.648,6.03,0.41
		c2.844-0.414,4.924-0.263,6.032,0.912c0.948,1.012,1.349,1.638,0.022,3.159c-1.01,1.159-3.556,1.576-6.214,1.609
		C58.76,318.044,56.832,318.164,55.435,318.164L55.435,318.164z"/>
	<path style="fill-rule:evenodd;clip-rule:evenodd;fill:#6ACFF6;" d="M68.888,314.233c-0.229-0.728,0.155-1.285,0.74-1.717
		c0.433-0.324,2.741-0.935,3.759-0.587c0.544,0.187,1.256,0.497,1.369,1.103c0.22,1.14,0.228,1.857-1.095,2.56
		c-1.014,0.533-0.936,0.757-2.086,0.757l-0.86-0.075C69.347,316.289,69.215,315.286,68.888,314.233L68.888,314.233z"/>
	<polygon style="fill-rule:evenodd;clip-rule:evenodd;fill:#00458D;" points="89.19,201.973 89.19,161.777 111.301,161.777 
		111.301,168.584 97.271,168.584 97.271,177.762 110.65,177.762 110.65,184.787 97.255,184.787 97.255,194.973 111.366,194.973 
		111.366,201.973 89.19,201.973 	"/>
	<path style="fill-rule:evenodd;clip-rule:evenodd;fill:#00458D;" d="M137.518,177.306c-5.933-1.228-8.901,2.643-8.901,11.545
		v13.099h-8.257v-32.067h7.807c0,1.614-0.197,4.198-0.581,6.454h0.129c1.545-4.065,4.644-7.611,10.193-7.16L137.518,177.306
		L137.518,177.306z"/>
	<path style="fill-rule:evenodd;clip-rule:evenodd;fill:#00458D;" d="M159.778,188.53c0,3.868-2.778,7.747-6.839,7.747
		c-2.394,0-3.808-1.358-3.808-3.422c0-2.58,1.937-5.1,10.646-5.1V188.53L159.778,188.53z M168.227,201.951
		c-0.128-2.643-0.192-5.674-0.192-8.259v-13.355c0-6.966-2.902-11.159-13.227-11.159c-4.121,0-8.257,0.839-11.478,1.996l0.708,6.908
		c2.707-1.551,6.578-2.517,9.478-2.517c4.648,0,6.262,1.742,6.262,5.094v1.743c-10.908,0-18.519,4.066-18.519,11.742
		c0,5.164,3.357,8.454,9.164,8.454c4.774,0,8.711-2.521,10.256-6.137l0.066,0.065c-0.261,1.685-0.324,3.551-0.324,5.425H168.227
		L168.227,201.951z"/>
	<path style="fill-rule:evenodd;clip-rule:evenodd;fill:#00458D;" d="M182.614,202.597c-2.323,0-4.645-0.261-6.71-0.584l0.19-6.771
		c2.003,0.514,4.454,0.964,6.904,0.964c3.164,0,5.227-1.288,5.227-3.421c0-5.674-12.967-2.448-12.967-13.353
		c0-5.614,4.581-10.255,13.612-10.255c1.874,0,3.939,0.258,5.873,0.582l-0.26,6.509c-1.807-0.512-3.935-0.835-5.936-0.835
		c-3.224,0-4.773,1.289-4.773,3.291c0,5.227,13.162,2.9,13.162,13.289C196.935,198.341,191.388,202.597,182.614,202.597
		L182.614,202.597z"/>
	<path style="fill-rule:evenodd;clip-rule:evenodd;fill:#00458D;" d="M242.671,201.951v-20.325c0-3.414-0.772-5.548-3.806-5.548
		c-3.613,0-7.355,4.258-7.355,10.517v15.356h-8.128v-20.325c0-3.159-0.64-5.548-3.804-5.548c-3.806,0-7.349,4.516-7.349,10.517
		v15.356h-8.261v-32.067h7.807c0,1.489-0.131,3.873-0.452,5.738h0.126c1.936-3.928,5.807-6.444,10.577-6.444
		c5.684,0,8.071,3.355,8.842,6.444c1.486-3.155,5.033-6.444,10.452-6.444c6.198,0,9.609,3.418,9.609,10.706v22.067H242.671
		L242.671,201.951z"/>
	<path style="fill-rule:evenodd;clip-rule:evenodd;fill:#00458D;" d="M279.958,201.951c0-1.491,0.067-3.998,0.392-5.674l-0.066-0.07
		c-1.934,3.806-5.608,6.452-10.901,6.452c-7.226,0-9.544-4.642-9.544-10.26v-22.514h8.187v20.516c0,3.358,0.906,5.356,3.999,5.356
		c4.197,0,7.419-4.772,7.419-10.386v-15.486h8.26v32.067H279.958L279.958,201.951z"/>
	<path style="fill-rule:evenodd;clip-rule:evenodd;fill:#00458D;" d="M302.159,202.597c-2.32,0-4.648-0.261-6.715-0.584l0.197-6.771
		c1.998,0.514,4.441,0.964,6.902,0.964c3.159,0,5.22-1.288,5.22-3.421c0-5.674-12.968-2.448-12.968-13.353
		c0-5.614,4.58-10.255,13.618-10.255c1.866,0,3.935,0.258,5.872,0.582l-0.261,6.509c-1.804-0.512-3.935-0.835-5.938-0.835
		c-3.222,0-4.772,1.289-4.772,3.291c0,5.227,13.158,2.9,13.158,13.289C316.472,198.341,310.928,202.597,302.159,202.597
		L302.159,202.597z"/>
	<path style="fill-rule:evenodd;clip-rule:evenodd;fill:#00458D;" d="M368.732,201.969l-2.861-19.177
		c-0.589-3.813-0.948-6.786-1.242-9.584h-0.129c-0.535,2.558-1.186,5.412-2.197,8.572l-6.369,20.19h-7.681l-6.14-18.643
		c-1.074-3.273-2.079-6.91-2.556-10.118h-0.122c-0.237,3.57-0.651,6.725-1.132,10.239l-2.262,18.523h-7.855l6.187-40.196h9.054
		l6.721,20.664c0.955,2.857,1.673,5.593,2.206,8.453h0.12c0.6-3.099,1.253-5.361,2.264-8.34l6.908-20.778h8.988l6.251,40.196
		H368.732L368.732,201.969z"/>
	<path style="fill-rule:evenodd;clip-rule:evenodd;fill:#00458D;" d="M401.068,202.5c-14.058,0-18.581-9.348-18.581-19.356
		c0-12.735,6.671-21.671,20.134-21.671c2.847,0,5.889,0.359,8.506,1.075l-0.829,7.021c-2.625-0.772-5.359-1.19-8.1-1.19
		c-7.506,0-11.191,5.66-11.191,13.461c0,8.755,3.626,13.635,11.724,13.635c2.444,0,5.715-0.713,7.8-1.669l0.896,6.906
		C408.446,201.781,404.814,202.5,401.068,202.5L401.068,202.5z"/>
	<path style="fill-rule:evenodd;clip-rule:evenodd;fill:#00458D;" d="M93.902,226.227c-3.846,0-4.713-2.094-4.713-4.424v-7.965
		h2.348v7.82c0,1.534,0.506,2.619,2.528,2.619c1.806,0,2.564-0.756,2.564-2.833v-7.605h2.329v7.46
		C98.957,224.638,97.115,226.227,93.902,226.227L93.902,226.227z"/>
	<path style="fill-rule:evenodd;clip-rule:evenodd;fill:#00458D;" d="M107.878,226.028v-5.742c0-0.939-0.253-1.499-1.102-1.499
		c-1.174,0-2.095,1.337-2.095,2.908v4.333h-2.311v-8.974h2.185c0,0.417-0.036,1.119-0.126,1.59l0.019,0.017
		c0.541-1.066,1.589-1.806,3.051-1.806c2.022,0,2.672,1.299,2.672,2.871v6.303H107.878L107.878,226.028z"/>
	<path style="fill-rule:evenodd;clip-rule:evenodd;fill:#00458D;" d="M116.184,214.489c0-0.775-0.65-1.389-1.444-1.389
		c-0.795,0-1.428,0.63-1.428,1.389c0,0.774,0.633,1.41,1.428,1.41C115.534,215.898,116.184,215.263,116.184,214.489L116.184,214.489
		z M115.895,226.028v-8.974h-2.311v8.974H115.895L115.895,226.028z"/>
	<path style="fill-rule:evenodd;clip-rule:evenodd;fill:#00458D;" d="M123.768,226.028h-2.348l-3.322-8.974h2.528l1.427,4.044
		c0.216,0.614,0.433,1.335,0.596,1.986h0.036c0.144-0.613,0.325-1.3,0.541-1.913l1.445-4.117h2.455L123.768,226.028L123.768,226.028
		z"/>
	<path style="fill-rule:evenodd;clip-rule:evenodd;fill:#00458D;" d="M134.059,220.339h-3.305c0.127-1.082,0.795-1.788,1.752-1.788
		C133.482,218.551,134.095,219.22,134.059,220.339L134.059,220.339z M136.353,220.864c0-2.22-1.156-4.009-3.774-4.009
		c-2.691,0-4.207,2.023-4.207,4.766c0,3.162,1.59,4.588,4.442,4.588c1.12,0,2.257-0.197,3.215-0.578l-0.217-1.787
		c-0.776,0.361-1.733,0.56-2.618,0.56c-1.662,0-2.492-0.812-2.474-2.492h5.562C136.334,221.531,136.353,221.171,136.353,220.864
		L136.353,220.864z"/>
	<path style="fill-rule:evenodd;clip-rule:evenodd;fill:#00458D;" d="M143.991,219.128c-1.661-0.342-2.492,0.743-2.492,3.233v3.666
		h-2.311v-8.974h2.184c0,0.452-0.054,1.174-0.161,1.805h0.035c0.434-1.136,1.301-2.13,2.853-2.004L143.991,219.128L143.991,219.128z
		"/>
	<path style="fill-rule:evenodd;clip-rule:evenodd;fill:#00458D;" d="M148.054,226.208c-0.65,0-1.3-0.073-1.878-0.164l0.055-1.894
		c0.56,0.144,1.246,0.271,1.932,0.271c0.884,0,1.462-0.363,1.462-0.958c0-1.59-3.63-0.687-3.63-3.738
		c0-1.571,1.282-2.871,3.81-2.871c0.524,0,1.101,0.072,1.643,0.163l-0.073,1.825c-0.504-0.146-1.101-0.237-1.661-0.237
		c-0.903,0-1.336,0.361-1.336,0.921c0,1.463,3.683,0.812,3.683,3.718C152.062,225.015,150.509,226.208,148.054,226.208
		L148.054,226.208z"/>
	<path style="fill-rule:evenodd;clip-rule:evenodd;fill:#00458D;" d="M156.089,215.898c-0.794,0-1.426-0.635-1.426-1.41
		c0-0.759,0.632-1.389,1.426-1.389c0.795,0,1.445,0.614,1.445,1.389C157.534,215.263,156.884,215.898,156.089,215.898
		L156.089,215.898z M154.934,226.028v-8.974h2.311v8.974H154.934L154.934,226.028z"/>
	<path style="fill-rule:evenodd;clip-rule:evenodd;fill:#00458D;" d="M163.655,226.208c-1.986,0-2.6-0.724-2.6-2.817v-4.548h-1.554
		v-1.789h1.535v-2.764l2.312-0.613v3.377h2.185v1.789h-2.185v3.934c0,1.158,0.271,1.481,1.065,1.481
		c0.379,0,0.794-0.054,1.119-0.145v1.862C164.954,226.118,164.287,226.208,163.655,226.208L163.655,226.208z"/>
	<path style="fill-rule:evenodd;clip-rule:evenodd;fill:#00458D;" d="M172.395,226.857c-1.066,2.801-2.005,3.649-4.064,3.649
		c-0.397,0-0.884-0.054-1.264-0.145l0.144-1.986c0.415,0.128,0.795,0.199,1.228,0.199c0.758,0,1.264-0.344,1.733-1.679l0.307-0.867
		l-3.305-8.974h2.564l1.21,3.431c0.271,0.775,0.506,1.662,0.704,2.473h0.018c0.2-0.811,0.577-2.004,0.867-2.852l1.065-3.051h2.474
		L172.395,226.857L172.395,226.857z"/>
	<path style="fill-rule:evenodd;clip-rule:evenodd;fill:#00458D;" d="M195.651,226.028l-0.866-5.814
		c-0.18-1.156-0.289-2.06-0.38-2.908h-0.036c-0.163,0.777-0.361,1.644-0.668,2.6l-1.932,6.122h-2.329l-1.86-5.652
		c-0.324-0.995-0.631-2.094-0.777-3.07h-0.036c-0.072,1.084-0.199,2.04-0.344,3.105l-0.686,5.617h-2.383l1.878-12.191h2.744
		l2.041,6.267c0.289,0.867,0.506,1.698,0.668,2.564h0.036c0.181-0.939,0.379-1.625,0.686-2.53l2.095-6.302h2.728l1.896,12.191
		H195.651L195.651,226.028z"/>
	<path style="fill-rule:evenodd;clip-rule:evenodd;fill:#00458D;" d="M208.111,221.91h-5.561c-0.019,1.68,0.812,2.492,2.474,2.492
		c0.885,0,1.841-0.199,2.618-0.56l0.216,1.787c-0.957,0.382-2.093,0.578-3.213,0.578c-2.853,0-4.443-1.426-4.443-4.588
		c0-2.743,1.518-4.766,4.207-4.766c2.618,0,3.774,1.789,3.774,4.009C208.184,221.171,208.166,221.531,208.111,221.91L208.111,221.91
		z M204.338,218.551c-0.957,0-1.625,0.706-1.751,1.788h3.305C205.926,219.22,205.312,218.551,204.338,218.551L204.338,218.551z"/>
	<path style="fill-rule:evenodd;clip-rule:evenodd;fill:#00458D;" d="M216.292,221.369c0,1.534-0.723,2.942-1.932,2.942
		c-1.048,0-1.535-0.867-1.535-2.546c0-2.221,0.939-3.051,2.257-3.051c0.397,0,0.794,0.054,1.21,0.144V221.369L216.292,221.369z
		 M218.584,226.028v-13.18h-2.293v4.117c-0.397-0.054-0.759-0.074-1.139-0.074c-2.979,0-4.748,2.095-4.748,5.128
		c0,2.564,1.084,4.208,3.269,4.208c1.372,0,2.365-0.705,2.834-1.698h0.036c-0.073,0.486-0.109,1.065-0.109,1.499H218.584
		L218.584,226.028z"/>
	<path style="fill-rule:evenodd;clip-rule:evenodd;fill:#00458D;" d="M223.153,215.898c-0.795,0-1.428-0.635-1.428-1.41
		c0-0.759,0.633-1.389,1.428-1.389c0.793,0,1.444,0.614,1.444,1.389C224.598,215.263,223.947,215.898,223.153,215.898
		L223.153,215.898z M221.997,226.028v-8.974h2.312v8.974H221.997L221.997,226.028z"/>
	<path style="fill-rule:evenodd;clip-rule:evenodd;fill:#00458D;" d="M231.116,226.189c-2.492,0-4.045-1.3-4.045-4.351
		c0-2.799,1.463-4.948,4.639-4.948c0.616,0,1.265,0.091,1.844,0.253l-0.234,2.006c-0.489-0.182-1.049-0.327-1.625-0.327
		c-1.463,0-2.204,1.084-2.204,2.783c0,1.534,0.597,2.582,2.132,2.582c0.613,0,1.281-0.128,1.768-0.382l0.182,1.97
		C232.957,226.011,232.074,226.189,231.116,226.189L231.116,226.189z"/>
	<path style="fill-rule:evenodd;clip-rule:evenodd;fill:#00458D;" d="M241.084,226.028c0-0.523,0.019-1.047,0.091-1.518
		l-0.018-0.017c-0.433,1.012-1.537,1.714-2.871,1.714c-1.625,0-2.565-0.921-2.565-2.365c0-2.148,2.132-3.286,5.183-3.286v-0.488
		c0-0.941-0.451-1.425-1.751-1.425c-0.813,0-1.897,0.269-2.654,0.703l-0.2-1.932c0.902-0.326,2.059-0.56,3.214-0.56
		c2.89,0,3.702,1.175,3.702,3.123v3.739c0,0.723,0.017,1.571,0.054,2.312H241.084L241.084,226.028z M240.903,222.055
		c-2.437,0-2.979,0.705-2.979,1.426c0,0.576,0.396,0.957,1.066,0.957c1.136,0,1.913-1.084,1.913-2.168V222.055L240.903,222.055z"/>
	<polygon style="fill-rule:evenodd;clip-rule:evenodd;fill:#00458D;" points="246.646,226.028 246.646,212.847 248.957,212.847 
		248.957,226.028 246.646,226.028 	"/>
	<path style="fill-rule:evenodd;clip-rule:evenodd;fill:#00458D;" d="M263.365,226.189c-4.26,0-5.633-2.834-5.633-5.867
		c0-3.864,2.021-6.574,6.104-6.574c0.867,0,1.786,0.11,2.581,0.325l-0.253,2.132c-0.794-0.237-1.626-0.361-2.455-0.361
		c-2.276,0-3.396,1.715-3.396,4.08c0,2.654,1.101,4.133,3.558,4.133c0.74,0,1.733-0.216,2.365-0.506l0.271,2.096
		C265.604,225.973,264.503,226.189,263.365,226.189L263.365,226.189z"/>
	<path style="fill-rule:evenodd;clip-rule:evenodd;fill:#00458D;" d="M274.216,220.339h-3.305c0.126-1.082,0.794-1.788,1.751-1.788
		C273.638,218.551,274.251,219.22,274.216,220.339L274.216,220.339z M276.508,220.864c0-2.22-1.156-4.009-3.775-4.009
		c-2.688,0-4.206,2.023-4.206,4.766c0,3.162,1.588,4.588,4.443,4.588c1.119,0,2.256-0.197,3.214-0.578l-0.216-1.787
		c-0.777,0.361-1.735,0.56-2.618,0.56c-1.663,0-2.492-0.812-2.475-2.492h5.562C276.49,221.531,276.508,221.171,276.508,220.864
		L276.508,220.864z"/>
	<path style="fill-rule:evenodd;clip-rule:evenodd;fill:#00458D;" d="M284.851,226.028v-5.742c0-0.939-0.253-1.499-1.102-1.499
		c-1.175,0-2.095,1.337-2.095,2.908v4.333h-2.312v-8.974h2.185c0,0.417-0.036,1.119-0.126,1.59l0.018,0.017
		c0.541-1.066,1.59-1.806,3.052-1.806c2.023,0,2.672,1.299,2.672,2.871v6.303H284.851L284.851,226.028z"/>
	<path style="fill-rule:evenodd;clip-rule:evenodd;fill:#00458D;" d="M293.479,226.208c-1.986,0-2.6-0.724-2.6-2.817v-4.548h-1.553
		v-1.789h1.534v-2.764l2.311-0.613v3.377h2.185v1.789h-2.185v3.934c0,1.158,0.271,1.481,1.066,1.481
		c0.379,0,0.793-0.054,1.119-0.145v1.862C294.78,226.118,294.111,226.208,293.479,226.208L293.479,226.208z"/>
	<path style="fill-rule:evenodd;clip-rule:evenodd;fill:#00458D;" d="M305.416,221.91h-5.563c-0.018,1.68,0.813,2.492,2.474,2.492
		c0.885,0,1.843-0.199,2.618-0.56l0.218,1.787c-0.958,0.382-2.094,0.578-3.213,0.578c-2.855,0-4.443-1.426-4.443-4.588
		c0-2.743,1.516-4.766,4.206-4.766c2.619,0,3.776,1.789,3.776,4.009C305.489,221.171,305.47,221.531,305.416,221.91L305.416,221.91z
		 M301.641,218.551c-0.956,0-1.623,0.706-1.749,1.788h3.304C303.231,219.22,302.617,218.551,301.641,218.551L301.641,218.551z"/>
	<path style="fill-rule:evenodd;clip-rule:evenodd;fill:#00458D;" d="M313.126,219.128c-1.661-0.342-2.492,0.743-2.492,3.233v3.666
		h-2.312v-8.974h2.185c0,0.452-0.054,1.174-0.162,1.805h0.036c0.433-1.136,1.3-2.13,2.852-2.004L313.126,219.128L313.126,219.128z"
		/>
	<path style="fill-rule:evenodd;clip-rule:evenodd;fill:#00458D;" d="M326.868,217.432c0,1.137-0.869,1.859-2.276,1.859
		c-0.361,0-0.686-0.018-0.848-0.035v-3.522c0.234-0.035,0.576-0.054,0.92-0.054C326.144,215.681,326.868,216.259,326.868,217.432
		L326.868,217.432z M330.135,226.028l-2.925-4.099c-0.307-0.416-0.651-0.885-0.993-1.337c1.841-0.287,3.106-1.587,3.106-3.395
		c0-2.492-1.733-3.43-4.424-3.43c-1.407,0-2.546,0.018-3.503,0.07v12.191h2.349v-5.038h0.089l3.396,5.038H330.135L330.135,226.028z"
		/>
	<path style="fill-rule:evenodd;clip-rule:evenodd;fill:#00458D;" d="M337.918,221.495c0,1.825-0.867,2.746-2.005,2.746
		c-1.337,0-2.005-0.94-2.005-2.783c0-1.841,1.011-2.637,2.04-2.637C337.304,218.821,337.918,219.762,337.918,221.495
		L337.918,221.495z M340.299,221.369c0-3.087-1.641-4.496-4.187-4.496c-2.728,0-4.588,2.024-4.588,4.822
		c0,3.194,1.644,4.513,4.19,4.513C338.405,226.208,340.299,224.186,340.299,221.369L340.299,221.369z"/>
	<path style="fill-rule:evenodd;clip-rule:evenodd;fill:#00458D;" d="M346.079,226.208c-1.986,0-2.601-0.724-2.601-2.817v-4.548
		h-1.553v-1.789h1.536v-2.764l2.312-0.613v3.377h2.185v1.789h-2.185v3.934c0,1.158,0.269,1.481,1.065,1.481
		c0.377,0,0.795-0.054,1.12-0.145v1.862C347.379,226.118,346.712,226.208,346.079,226.208L346.079,226.208z"/>
	<path style="fill-rule:evenodd;clip-rule:evenodd;fill:#00458D;" d="M353.754,226.208c-1.986,0-2.601-0.724-2.601-2.817v-4.548
		h-1.553v-1.789h1.537v-2.764l2.311-0.613v3.377h2.183v1.789h-2.183v3.934c0,1.158,0.27,1.481,1.063,1.481
		c0.38,0,0.796-0.054,1.12-0.145v1.862C355.054,226.118,354.385,226.208,353.754,226.208L353.754,226.208z"/>
	<path style="fill-rule:evenodd;clip-rule:evenodd;fill:#00458D;" d="M363.469,220.339h-3.305c0.127-1.082,0.795-1.788,1.752-1.788
		C362.89,218.551,363.504,219.22,363.469,220.339L363.469,220.339z M365.761,220.864c0-2.22-1.155-4.009-3.773-4.009
		c-2.691,0-4.208,2.023-4.208,4.766c0,3.162,1.59,4.588,4.443,4.588c1.12,0,2.257-0.197,3.213-0.578l-0.216-1.787
		c-0.777,0.361-1.735,0.56-2.618,0.56c-1.663,0-2.492-0.812-2.476-2.492h5.562C365.743,221.531,365.761,221.171,365.761,220.864
		L365.761,220.864z"/>
	<path style="fill-rule:evenodd;clip-rule:evenodd;fill:#00458D;" d="M373.399,219.128c-1.661-0.342-2.492,0.743-2.492,3.233v3.666
		h-2.312v-8.974h2.185c0,0.452-0.054,1.174-0.162,1.805h0.035c0.433-1.136,1.302-2.13,2.855-2.004L373.399,219.128L373.399,219.128z
		"/>
	<path style="fill-rule:evenodd;clip-rule:evenodd;fill:#00458D;" d="M381.09,221.369c0,1.534-0.724,2.942-1.933,2.942
		c-1.047,0-1.536-0.867-1.536-2.546c0-2.221,0.939-3.051,2.258-3.051c0.398,0,0.794,0.054,1.211,0.144V221.369L381.09,221.369z
		 M383.382,226.028v-13.18h-2.292v4.117c-0.398-0.054-0.759-0.074-1.138-0.074c-2.979,0-4.75,2.095-4.75,5.128
		c0,2.564,1.084,4.208,3.269,4.208c1.373,0,2.365-0.705,2.834-1.698h0.039c-0.073,0.486-0.109,1.065-0.109,1.499H383.382
		L383.382,226.028z"/>
	<path style="fill-rule:evenodd;clip-rule:evenodd;fill:#00458D;" d="M391.418,222.271c0,1.084-0.776,2.168-1.913,2.168
		c-0.668,0-1.066-0.381-1.066-0.957c0-0.721,0.541-1.426,2.979-1.426V222.271L391.418,222.271z M393.783,226.028
		c-0.035-0.741-0.053-1.589-0.053-2.312v-3.739c0-1.948-0.814-3.123-3.703-3.123c-1.155,0-2.31,0.234-3.213,0.56l0.199,1.932
		c0.759-0.433,1.841-0.703,2.654-0.703c1.299,0,1.751,0.485,1.751,1.425v0.488c-3.051,0-5.183,1.138-5.183,3.286
		c0,1.444,0.938,2.365,2.565,2.365c1.337,0,2.437-0.703,2.871-1.714l0.019,0.017c-0.073,0.47-0.091,0.995-0.091,1.518H393.783
		L393.783,226.028z"/>
	<path style="fill-rule:evenodd;clip-rule:evenodd;fill:#00458D;" d="M407.995,226.028v-5.689c0-0.958-0.216-1.552-1.066-1.552
		c-1.012,0-2.058,1.191-2.058,2.944v4.297h-2.274v-5.689c0-0.883-0.181-1.552-1.065-1.552c-1.066,0-2.059,1.264-2.059,2.944v4.297
		h-2.312v-8.974h2.185c0,0.417-0.036,1.084-0.126,1.607h0.035c0.544-1.101,1.626-1.806,2.963-1.806c1.588,0,2.258,0.939,2.473,1.806
		c0.415-0.883,1.408-1.806,2.926-1.806c1.733,0,2.691,0.957,2.691,2.998v6.176H407.995L407.995,226.028z"/>
</g>
</svg>
