<?xml version="1.0" encoding="UTF-8"?>
<svg xmlns="http://www.w3.org/2000/svg" version="1.1"
     width="1024" height="1024" viewBox="0 0 1024 1024"
     style="shape-rendering:geometricPrecision; text-rendering:geometricPrecision; image-rendering:optimizeQuality">

  <!-- Background Circle -->
  <circle cx="512" cy="512" r="512" fill="#07418C"/>

  <!-- Original Logo scaled/translated to fit -->
  <g transform="scale(0.85) translate(80,80)">
  <g><path style="opacity:0.997" fill="#fecc42" d="M 644.5,549.5 C 641.124,547.918 637.458,547.251 633.5,547.5C 633.828,535.655 633.495,523.988 632.5,512.5C 631.649,504.33 630.316,496.33 628.5,488.5C 627.377,477.343 624.711,466.676 620.5,456.5C 618.844,448.862 615.844,441.862 611.5,435.5C 608.834,428.824 605.167,422.824 600.5,417.5C 599.974,415.77 598.974,414.436 597.5,413.5C 596.167,411.5 594.5,409.833 592.5,408.5C 592.262,406.596 591.262,405.262 589.5,404.5C 587.1,401.097 584.1,398.43 580.5,396.5C 577.399,393.067 573.732,390.4 569.5,388.5C 560.098,381.136 549.431,376.47 537.5,374.5C 519.199,370.228 500.866,370.728 482.5,376C 478.771,376.844 475.437,378.344 472.5,380.5C 471.209,380.263 470.209,380.596 469.5,381.5C 468.508,381.328 467.842,381.662 467.5,382.5C 463.58,383.127 460.247,384.793 457.5,387.5C 455.973,387.427 454.973,388.094 454.5,389.5C 453.508,389.328 452.842,389.662 452.5,390.5C 444.321,394.68 436.988,400.013 430.5,406.5C 423.167,411.833 416.833,418.167 411.5,425.5C 408.87,427.628 406.37,429.961 404,432.5C 398.867,438.453 394.367,444.786 390.5,451.5C 383.315,460.709 377.315,470.709 372.5,481.5C 360.131,504.403 349.964,528.403 342,553.5C 341.5,554 341,554.5 340.5,555C 325.105,557.979 309.771,561.146 294.5,564.5C 286.522,517.044 290.689,470.71 307,425.5C 341.782,345.507 402.616,300.674 489.5,291C 576.042,286.347 641.875,320.513 687,393.5C 714.875,446.959 722.875,503.292 711,562.5C 710.581,563.672 709.915,564.672 709,565.5C 687.867,558.675 666.367,553.342 644.5,549.5 Z"/></g>
<g><path style="opacity:0.012" fill="#feaa54" d="M 504.5,372.5 C 505.833,373.167 505.833,373.167 504.5,372.5 Z"/></g>
<g><path style="opacity:0.004" fill="#feff00" d="M 507.5,372.5 C 508.833,373.167 508.833,373.167 507.5,372.5 Z"/></g>
<g><path style="opacity:0.008" fill="#feff7f" d="M 519.5,372.5 C 520.833,373.167 520.833,373.167 519.5,372.5 Z"/></g>
<g><path style="opacity:0.008" fill="#fffe6b" d="M 498.5,374.5 C 499.251,373.427 500.251,373.26 501.5,374C 500.552,374.483 499.552,374.649 498.5,374.5 Z"/></g>
<g><path style="opacity:0.004" fill="#feff00" d="M 528.5,373.5 C 529.833,374.167 529.833,374.167 528.5,373.5 Z"/></g>
<g><path style="opacity:0.008" fill="#fffe64" d="M 530.5,374.5 C 530.897,373.475 531.563,373.308 532.5,374C 531.906,374.464 531.239,374.631 530.5,374.5 Z"/></g>
<g><path style="opacity:0.004" fill="#feff00" d="M 493.5,374.5 C 494.833,375.167 494.833,375.167 493.5,374.5 Z"/></g>
<g><path style="opacity:0.004" fill="#feff00" d="M 537.5,374.5 C 536.833,375.167 536.833,375.167 537.5,374.5 Z"/></g>
<g><path style="opacity:0.004" fill="#feff00" d="M 478.5,378.5 C 479.833,379.167 479.833,379.167 478.5,378.5 Z"/></g>
<g><path style="opacity:0.024" fill="#d3d454" d="M 472.5,380.5 C 473.833,381.167 473.833,381.167 472.5,380.5 Z"/></g>
<g><path style="opacity:0.008" fill="#feff7f" d="M 469.5,381.5 C 470.833,382.167 470.833,382.167 469.5,381.5 Z"/></g>
<g><path style="opacity:0.004" fill="#feff00" d="M 555.5,381.5 C 556.833,382.167 556.833,382.167 555.5,381.5 Z"/></g>
<g><path style="opacity:0.004" fill="#feff00" d="M 467.5,382.5 C 468.833,383.167 468.833,383.167 467.5,382.5 Z"/></g>
<g><path style="opacity:0.004" fill="#feff00" d="M 457.5,387.5 C 458.833,388.167 458.833,388.167 457.5,387.5 Z"/></g>
<g><path style="opacity:0.008" fill="#fffe64" d="M 569.5,388.5 C 569.103,389.525 568.437,389.692 567.5,389C 568.094,388.536 568.761,388.369 569.5,388.5 Z"/></g>
<g><path style="opacity:0.004" fill="#feff00" d="M 454.5,389.5 C 455.525,389.897 455.692,390.563 455,391.5C 454.536,390.906 454.369,390.239 454.5,389.5 Z"/></g>
<g><path style="opacity:0.008" fill="#feff7f" d="M 452.5,390.5 C 453.833,391.167 453.833,391.167 452.5,390.5 Z"/></g>
<g><path style="opacity:0.004" fill="#feff00" d="M 575.5,394.5 C 576.833,395.167 576.833,395.167 575.5,394.5 Z"/></g>
<g><path style="opacity:0.004" fill="#feff00" d="M 577.5,396.5 C 578.833,397.167 578.833,397.167 577.5,396.5 Z"/></g>
<g><path style="opacity:0.008" fill="#feff7f" d="M 580.5,396.5 C 580.5,396.833 580.5,397.167 580.5,397.5C 579.83,397.019 579.83,396.685 580.5,396.5 Z"/></g>
<g><path style="opacity:0.004" fill="#feff00" d="M 442.5,397.5 C 443.833,398.167 443.833,398.167 442.5,397.5 Z"/></g>
<g><path style="opacity:0.004" fill="#feff00" d="M 580.5,397.5 C 581.167,397.5 581.5,397.833 581.5,398.5C 581.167,398.167 580.833,397.833 580.5,397.5 Z"/></g>
<g><path style="opacity:0.004" fill="#feff00" d="M 581.5,398.5 C 582.833,399.167 582.833,399.167 581.5,398.5 Z"/></g>
<g><path style="opacity:0.016" fill="#80bfbe" d="M 488.5,399.5 C 489.833,400.167 489.833,400.167 488.5,399.5 Z"/></g>
<g><path style="opacity:0.004" fill="#00fffe" d="M 536.5,399.5 C 537.833,400.167 537.833,400.167 536.5,399.5 Z"/></g>
<g><path style="opacity:0.008" fill="#feff7f" d="M 438.5,400.5 C 439.833,401.167 439.833,401.167 438.5,400.5 Z"/></g>
<g><path style="opacity:0.008" fill="#7f807f" d="M 487.5,401.5 C 486.833,400.167 486.833,400.167 487.5,401.5 Z"/></g>
<g><path style="opacity:0.997" fill="#2486d3" d="M 536.5,400.5 C 546.257,404.546 555.257,409.879 563.5,416.5C 566.833,420.5 570.5,424.167 574.5,427.5C 575.786,430.117 577.453,432.45 579.5,434.5C 589.561,450.84 596.395,468.506 600,487.5C 603.434,506.522 604.434,525.522 603,544.5C 596.799,515.261 583.632,489.761 563.5,468C 536.555,444.572 507.221,441.239 475.5,458C 451.294,472.53 430.461,491.03 413,513.5C 400.384,529.891 388.884,547.058 378.5,565C 407.756,561.826 437.423,559.159 467.5,557C 528.146,552.923 588.479,556.756 648.5,568.5C 669.811,573.998 690.144,582.165 709.5,593C 751.095,622.445 750.428,651.112 707.5,679C 674.879,696.206 640.213,707.206 603.5,712C 571.633,717.044 539.966,718.378 508.5,716C 540.831,711.944 572.831,705.944 604.5,698C 626.253,692.648 646.253,683.648 664.5,671C 672.376,665.141 677.876,657.641 681,648.5C 682.001,641.169 680.334,634.502 676,628.5C 664.965,616.817 651.799,608.317 636.5,603C 597.833,590.277 558.167,582.611 517.5,580C 469.205,576.382 420.872,575.715 372.5,578C 371.234,578.309 370.067,578.809 369,579.5C 344.289,621.302 325.623,665.635 313,712.5C 319.546,666.987 331.713,622.987 349.5,580.5C 347.833,580.167 346.167,579.833 344.5,579.5C 323.104,580.944 301.937,582.277 281,583.5C 279.941,583.37 279.108,582.87 278.5,582C 282.082,580.749 285.749,579.749 289.5,579C 311.162,575.358 332.828,571.858 354.5,568.5C 367.627,540.906 382.294,514.24 398.5,488.5C 405.468,478.523 412.468,468.523 419.5,458.5C 427.138,449.859 434.805,441.192 442.5,432.5C 448.936,427.238 455.27,421.738 461.5,416C 468.409,411.572 475.409,407.405 482.5,403.5C 483.492,403.672 484.158,403.338 484.5,402.5C 485.791,402.737 486.791,402.404 487.5,401.5C 503.743,396.604 520.077,396.271 536.5,400.5 Z"/></g>
<g><path style="opacity:0.008" fill="#7f807f" d="M 539.5,400.5 C 540.833,401.167 540.833,401.167 539.5,400.5 Z"/></g>
<g><path style="opacity:0.012" fill="#55aaa9" d="M 484.5,402.5 C 483.833,401.167 483.833,401.167 484.5,402.5 Z"/></g>
<g><path style="opacity:0.004" fill="#00fffe" d="M 542.5,401.5 C 543.833,402.167 543.833,402.167 542.5,401.5 Z"/></g>
<g><path style="opacity:0.008" fill="#7f807f" d="M 482.5,403.5 C 481.833,402.167 481.833,402.167 482.5,403.5 Z"/></g>
<g><path style="opacity:0.004" fill="#feff00" d="M 589.5,404.5 C 588.833,405.167 588.833,405.167 589.5,404.5 Z"/></g>
<g><path style="opacity:0.012" fill="#feaa54" d="M 430.5,406.5 C 431.833,407.167 431.833,407.167 430.5,406.5 Z"/></g>
<g><path style="opacity:0.004" fill="#feff00" d="M 435.5,406.5 C 436.833,407.167 436.833,407.167 435.5,406.5 Z"/></g>
<g><path style="opacity:0.004" fill="#feff00" d="M 589.5,406.5 C 590.833,407.167 590.833,407.167 589.5,406.5 Z"/></g>
<g><path style="opacity:0.004" fill="#63d8d7" d="M 469.5,407.5 C 471.975,407.747 471.975,408.413 469.5,409.5C 468.537,409.03 468.537,408.363 469.5,407.5 Z"/></g>
<g><path style="opacity:0.004" fill="#feff00" d="M 592.5,408.5 C 591.833,409.167 591.833,409.167 592.5,408.5 Z"/></g>
<g><path style="opacity:0.008" fill="#7f807f" d="M 464.5,411.5 C 465.833,412.167 465.833,412.167 464.5,411.5 Z"/></g>
<g><path style="opacity:0.008" fill="#feff7f" d="M 597.5,413.5 C 596.833,414.167 596.833,414.167 597.5,413.5 Z"/></g>
<g><path style="opacity:0.024" fill="#d3d454" d="M 422.5,414.5 C 423.833,415.167 423.833,415.167 422.5,414.5 Z"/></g>
<g><path style="opacity:0.008" fill="#7f807f" d="M 563.5,415.5 C 564.833,416.167 564.833,416.167 563.5,415.5 Z"/></g>
<g><path style="opacity:0.012" fill="#ffc647" d="M 600.5,417.5 C 600.5,418.167 600.5,418.833 600.5,419.5C 599.167,418.833 599.167,418.167 600.5,417.5 Z"/></g>
<g><path style="opacity:0.004" fill="#feff00" d="M 600.5,419.5 C 601.833,420.167 601.833,420.167 600.5,419.5 Z"/></g>
<g><path style="opacity:0.02" fill="#cbcc65" d="M 414.5,422.5 C 415.833,423.167 415.833,423.167 414.5,422.5 Z"/></g>
<g><path style="opacity:0.004" fill="#feff00" d="M 411.5,425.5 C 412.833,426.167 412.833,426.167 411.5,425.5 Z"/></g>
<g><path style="opacity:0.008" fill="#feff7f" d="M 604.5,425.5 C 605.833,426.167 605.833,426.167 604.5,425.5 Z"/></g>
<g><path style="opacity:0.012" fill="#55aaa9" d="M 574.5,426.5 C 575.833,427.167 575.833,427.167 574.5,426.5 Z"/></g>
<g><path style="opacity:0.004" fill="#00fffe" d="M 442.5,432.5 C 441.833,431.167 441.833,431.167 442.5,432.5 Z"/></g>
<g><path style="opacity:0.012" fill="#feaa54" d="M 608.5,432.5 C 609.833,433.167 609.833,433.167 608.5,432.5 Z"/></g>
<g><path style="opacity:0.008" fill="#7f807f" d="M 579.5,433.5 C 580.833,434.167 580.833,434.167 579.5,433.5 Z"/></g>
<g><path style="opacity:0.004" fill="#fefffe" d="M 582.5,433.5 C 583.833,434.167 583.833,434.167 582.5,433.5 Z"/></g>
<g><path style="opacity:0.004" fill="#feff00" d="M 608.5,433.5 C 607.833,434.167 607.833,434.167 608.5,433.5 Z"/></g>
<g><path style="opacity:0.008" fill="#feff7f" d="M 611.5,435.5 C 610.833,436.167 610.833,436.167 611.5,435.5 Z"/></g>
<g><path style="opacity:0.004" fill="#feff00" d="M 398.5,442.5 C 399.833,443.167 399.833,443.167 398.5,442.5 Z"/></g>
<g><path style="opacity:0.012" fill="#feaa54" d="M 615.5,446.5 C 616.833,447.167 616.833,447.167 615.5,446.5 Z"/></g>
<g><path style="opacity:0.004" fill="#00fffe" d="M 589.5,450.5 C 590.833,451.167 590.833,451.167 589.5,450.5 Z"/></g>
<g><path style="opacity:0.016" fill="#febf7f" d="M 390.5,451.5 C 391.833,452.167 391.833,452.167 390.5,451.5 Z"/></g>
<g><path style="opacity:0.004" fill="#00fffe" d="M 590.5,452.5 C 591.833,453.167 591.833,453.167 590.5,452.5 Z"/></g>
<g><path style="opacity:0.008" fill="#feff7f" d="M 389.5,453.5 C 390.833,454.167 390.833,454.167 389.5,453.5 Z"/></g>
<g><path style="opacity:0.004" fill="#feff00" d="M 615.5,457.5 C 615.897,456.475 616.563,456.308 617.5,457C 616.906,457.464 616.239,457.631 615.5,457.5 Z"/></g>
<g><path style="opacity:0.008" fill="#feff7f" d="M 620.5,456.5 C 619.833,457.167 619.833,457.167 620.5,456.5 Z"/></g>
<g><path style="opacity:0.012" fill="#55aaa9" d="M 419.5,458.5 C 418.833,457.167 418.833,457.167 419.5,458.5 Z"/></g>
<g><path style="opacity:0.012" fill="#4cc5c5" d="M 415.5,457.5 C 416.525,457.897 416.692,458.563 416,459.5C 415.536,458.906 415.369,458.239 415.5,457.5 Z"/></g>
<g><path style="opacity:0.004" fill="#fffe44" d="M 620.5,460.5 C 621.525,460.897 621.692,461.563 621,462.5C 620.536,461.906 620.369,461.239 620.5,460.5 Z"/></g>
<g><path style="opacity:0.004" fill="#00fffe" d="M 413.5,463.5 C 414.833,464.167 414.833,464.167 413.5,463.5 Z"/></g>
<g><path style="opacity:0.016" fill="#758eb8" d="M 413.5,464.5 C 413.103,465.525 412.437,465.692 411.5,465C 412.094,464.536 412.761,464.369 413.5,464.5 Z"/></g>
<g><path style="opacity:0.008" fill="#7f807f" d="M 407.5,467.5 C 407.897,466.475 408.563,466.308 409.5,467C 408.906,467.464 408.239,467.631 407.5,467.5 Z"/></g>
<g><path style="opacity:0.004" fill="#00fffe" d="M 407.5,468.5 C 408.833,469.167 408.833,469.167 407.5,468.5 Z"/></g>
<g><path style="opacity:0.004" fill="#feff00" d="M 623.5,470.5 C 624.833,471.167 624.833,471.167 623.5,470.5 Z"/></g>
<g><path style="opacity:0.024" fill="#d3d454" d="M 374.5,478.5 C 375.833,479.167 375.833,479.167 374.5,478.5 Z"/></g>
<g><path style="opacity:0.008" fill="#7f807f" d="M 399.5,480.5 C 400.525,480.897 400.692,481.563 400,482.5C 399.536,481.906 399.369,481.239 399.5,480.5 Z"/></g>
<g><path style="opacity:0.004" fill="#feff00" d="M 625.5,480.5 C 626.833,481.167 626.833,481.167 625.5,480.5 Z"/></g>
<g><path style="opacity:0.004" fill="#feff00" d="M 372.5,481.5 C 373.833,482.167 373.833,482.167 372.5,481.5 Z"/></g>
<g><path style="opacity:0.004" fill="#62d3d2" d="M 398.5,488.5 C 397.761,488.631 397.094,488.464 396.5,488C 397.437,487.308 398.103,487.475 398.5,488.5 Z"/></g>
<g><path style="opacity:0.008" fill="#feff7f" d="M 628.5,488.5 C 628.631,489.239 628.464,489.906 628,490.5C 627.308,489.563 627.475,488.897 628.5,488.5 Z"/></g>
<g><path style="opacity:0.012" fill="#4cc5c5" d="M 391.5,488.5 C 392.525,488.897 392.692,489.563 392,490.5C 391.536,489.906 391.369,489.239 391.5,488.5 Z"/></g>
<g><path style="opacity:0.008" fill="#feff7f" d="M 366.5,494.5 C 367.833,495.167 367.833,495.167 366.5,494.5 Z"/></g>
<g><path style="opacity:0.004" fill="#feff00" d="M 363.5,502.5 C 364.833,503.167 364.833,503.167 363.5,502.5 Z"/></g>
<g><path style="opacity:0.004" fill="#feff00" d="M 366.5,502.5 C 367.833,503.167 367.833,503.167 366.5,502.5 Z"/></g>
<g><path style="opacity:0.004" fill="#fefffe" d="M 376.5,516.5 C 377.833,517.167 377.833,517.167 376.5,516.5 Z"/></g>
<g><path style="opacity:0.004" fill="#fefffe" d="M 367.5,529.5 C 368.833,530.167 368.833,530.167 367.5,529.5 Z"/></g>
<g><path style="opacity:0.051" fill="#f2d493" d="M 632.5,512.5 C 633.495,523.988 633.828,535.655 633.5,547.5C 637.458,547.251 641.124,547.918 644.5,549.5C 640.594,548.643 636.76,548.643 633,549.5C 632.5,537.171 632.333,524.838 632.5,512.5 Z"/></g>
<g><path style="opacity:0.004" fill="#00fffe" d="M 370.5,532.5 C 371.833,533.167 371.833,533.167 370.5,532.5 Z"/></g>
<g><path style="opacity:0.004" fill="#00fffe" d="M 368.5,535.5 C 369.833,536.167 369.833,536.167 368.5,535.5 Z"/></g>
<g><path style="opacity:0.008" fill="#feff7f" d="M 348.5,537.5 C 349.833,538.167 349.833,538.167 348.5,537.5 Z"/></g>
<g><path style="opacity:0.008" fill="#fe807f" d="M 347.5,540.5 C 348.833,541.167 348.833,541.167 347.5,540.5 Z"/></g>
<g><path style="opacity:0.004" fill="#feff00" d="M 669.5,555.5 C 670.833,556.167 670.833,556.167 669.5,555.5 Z"/></g>
<g><path style="opacity:0.008" fill="#7f807f" d="M 337.5,556.5 C 338.833,557.167 338.833,557.167 337.5,556.5 Z"/></g>
<g><path style="opacity:0.004" fill="#feff00" d="M 695.5,562.5 C 696.833,563.167 696.833,563.167 695.5,562.5 Z"/></g>
<g><path style="opacity:0.004" fill="#feff00" d="M 697.5,562.5 C 698.833,563.167 698.833,563.167 697.5,562.5 Z"/></g>
<g><path style="opacity:0.004" fill="#00fffe" d="M 354.5,564.5 C 355.833,565.167 355.833,565.167 354.5,564.5 Z"/></g>
<g><path style="opacity:0.004" fill="#fefffe" d="M 648.5,567.5 C 649.833,568.167 649.833,568.167 648.5,567.5 Z"/></g>
<g><path style="opacity:0.004" fill="#fefffe" d="M 653.5,568.5 C 654.833,569.167 654.833,569.167 653.5,568.5 Z"/></g>
  </g>

</svg>
