<?xml version="1.0" encoding="UTF-8"?>
<!DOCTYPE svg PUBLIC "-//W3C//DTD SVG 1.1//EN" "http://www.w3.org/Graphics/SVG/1.1/DTD/svg11.dtd">
<svg xmlns="http://www.w3.org/2000/svg" version="1.1" width="1021px" height="395px" style="shape-rendering:geometricPrecision; text-rendering:geometricPrecision; image-rendering:optimizeQuality; fill-rule:evenodd; clip-rule:evenodd" xmlns:xlink="http://www.w3.org/1999/xlink">
<g><path style="opacity:1" fill="#f7f7f7" d="M -0.5,-0.5 C 339.833,-0.5 680.167,-0.5 1020.5,-0.5C 1020.5,131.167 1020.5,262.833 1020.5,394.5C 680.167,394.5 339.833,394.5 -0.5,394.5C -0.5,262.833 -0.5,131.167 -0.5,-0.5 Z"/></g>
<g><path style="opacity:1" fill="#17215c" d="M 837.5,101.5 C 846.823,99.6581 850.656,103.325 849,112.5C 844.577,117.191 839.91,117.524 835,113.5C 832.511,108.757 833.345,104.757 837.5,101.5 Z"/></g>
<g><path style="opacity:1" fill="#1b4085" d="M 838.5,102.5 C 844.364,100.955 847.698,103.121 848.5,109C 847.089,114.141 843.755,115.808 838.5,114C 837.584,113.626 836.75,113.126 836,112.5C 834.861,108.579 835.695,105.246 838.5,102.5 Z"/></g>
<g><path style="opacity:1" fill="#183371" d="M 463.5,111.5 C 461.825,113.002 459.992,114.335 458,115.5C 457.02,114.019 455.853,112.685 454.5,111.5C 455.857,122.262 458.524,132.928 462.5,143.5C 462.03,144.463 461.363,144.463 460.5,143.5C 458.315,134.762 455.815,126.096 453,117.5C 450.566,124.315 448.066,130.982 445.5,137.5C 445.982,133.551 446.982,129.717 448.5,126C 447.491,124.832 446.491,123.665 445.5,122.5C 446.213,120.224 446.713,117.891 447,115.5C 447.833,117.5 448.667,119.5 449.5,121.5C 449.833,120.667 450.167,119.833 450.5,119C 449.498,116.999 448.498,114.999 447.5,113C 447.833,112.5 448.167,112 448.5,111.5C 450.104,115.29 451.104,114.956 451.5,110.5C 462.044,109.621 462.044,108.621 451.5,107.5C 450.579,109.756 448.912,110.756 446.5,110.5C 446.688,112.103 446.188,113.437 445,114.5C 444.776,111.89 445.276,109.39 446.5,107C 450.833,106.667 455.167,106.333 459.5,106C 454.581,105.198 449.748,105.365 445,106.5C 440.937,119.152 436.437,131.485 431.5,143.5C 435.358,130.426 439.524,117.426 444,104.5C 449.779,103.193 455.612,103.193 461.5,104.5C 462.577,106.729 463.244,109.063 463.5,111.5 Z"/></g>
<g><path style="opacity:1" fill="#1b3e81" d="M 495.5,101.5 C 498.287,100.523 501.287,100.19 504.5,100.5C 504.169,108.528 504.502,116.528 505.5,124.5C 517.173,118.998 527.339,120.998 536,130.5C 537.275,132.717 538.275,135.051 539,137.5C 542.746,164.754 530.913,176.921 503.5,174C 499.755,173.698 496.422,172.531 493.5,170.5C 493.217,169.711 492.717,169.044 492,168.5C 491.5,146.503 491.333,124.503 491.5,102.5C 495.167,102.5 498.833,102.5 502.5,102.5C 502.334,109.841 502.5,117.174 503,124.5C 503.5,116.841 503.666,109.174 503.5,101.5C 500.833,101.5 498.167,101.5 495.5,101.5 Z"/></g>
<g><path style="opacity:1" fill="#a3b0cc" d="M 595.5,172.5 C 595.5,148.833 595.5,125.167 595.5,101.5C 591.167,101.5 586.833,101.5 582.5,101.5C 582.5,108.5 582.5,115.5 582.5,122.5C 581.833,123.833 581.167,123.833 580.5,122.5C 581.492,115.352 581.825,108.019 581.5,100.5C 586.5,100.5 591.5,100.5 596.5,100.5C 596.831,124.672 596.498,148.672 595.5,172.5 Z"/></g>
<g><path style="opacity:1" fill="#0b1d5d" d="M 680.5,166.5 C 680.5,168.833 680.5,171.167 680.5,173.5C 679.448,173.649 678.448,173.483 677.5,173C 679.321,170.544 679.988,167.711 679.5,164.5C 677.61,164.703 676.11,164.037 675,162.5C 674.5,142.503 674.333,122.503 674.5,102.5C 670.833,102.5 667.167,102.5 663.5,102.5C 663.333,124.169 663.5,145.836 664,167.5C 664.785,169.286 665.951,170.786 667.5,172C 667.272,172.399 666.938,172.565 666.5,172.5C 663.73,170.634 662.23,167.968 662,164.5C 661.5,143.503 661.333,122.503 661.5,101.5C 666.167,101.5 670.833,101.5 675.5,101.5C 675.333,121.503 675.5,141.503 676,161.5C 677.11,163.037 678.61,163.703 680.5,163.5C 680.5,164.5 680.5,165.5 680.5,166.5 Z"/></g>
<g><path style="opacity:1" fill="#011247" d="M 809.5,127.5 C 808.566,126.432 808.232,125.099 808.5,123.5C 804.833,123.5 801.167,123.5 797.5,123.5C 797.5,139.5 797.5,155.5 797.5,171.5C 801.167,171.5 804.833,171.5 808.5,171.5C 808.334,161.828 808.5,152.161 809,142.5C 809.5,152.494 809.666,162.494 809.5,172.5C 805.167,172.5 800.833,172.5 796.5,172.5C 796.5,155.833 796.5,139.167 796.5,122.5C 800.833,122.5 805.167,122.5 809.5,122.5C 809.5,124.167 809.5,125.833 809.5,127.5 Z"/></g>
<g><path style="opacity:1" fill="#04144c" d="M 873.5,122.5 C 870.038,123.482 866.371,123.815 862.5,123.5C 862.5,139.5 862.5,155.5 862.5,171.5C 866.437,171.793 870.27,171.46 874,170.5C 874.157,159.089 874.657,148.422 875.5,138.5C 875.5,149.833 875.5,161.167 875.5,172.5C 870.833,172.5 866.167,172.5 861.5,172.5C 861.5,155.833 861.5,139.167 861.5,122.5C 865.5,122.5 869.5,122.5 873.5,122.5 Z"/></g>
<g><path style="opacity:1" fill="#30376d" d="M 834.5,122.5 C 839.5,122.5 844.5,122.5 849.5,122.5C 849.5,139.167 849.5,155.833 849.5,172.5C 844.5,172.5 839.5,172.5 834.5,172.5C 834.5,155.833 834.5,139.167 834.5,122.5 Z"/></g>
<g><path style="opacity:1" fill="#1c4286" d="M 836.5,123.5 C 840.167,123.5 843.833,123.5 847.5,123.5C 847.5,139.5 847.5,155.5 847.5,171.5C 843.833,171.5 840.167,171.5 836.5,171.5C 836.5,155.5 836.5,139.5 836.5,123.5 Z"/></g>
<g><path style="opacity:1" fill="#58698a" d="M 745.5,130.5 C 745.205,132.735 745.539,134.735 746.5,136.5C 746.44,137.043 746.107,137.376 745.5,137.5C 744.203,135.027 744.203,132.693 745.5,130.5 Z"/></g>
<g><path style="opacity:1" fill="#1b3d81" d="M 746.5,136.5 C 745.539,134.735 745.205,132.735 745.5,130.5C 745.338,128.473 745.505,126.473 746,124.5C 748.071,123.475 750.238,122.642 752.5,122C 758.5,121.333 764.5,121.333 770.5,122C 777.667,123.833 782.167,128.333 784,135.5C 784.5,147.829 784.667,160.162 784.5,172.5C 780.167,172.5 775.833,172.5 771.5,172.5C 771.662,170.473 771.495,168.473 771,166.5C 765.643,173.085 758.809,175.251 750.5,173C 742.668,168.835 739.501,162.335 741,153.5C 743.451,147.384 747.951,143.884 754.5,143C 759.823,142.501 765.156,142.334 770.5,142.5C 771.245,137.416 769.245,133.916 764.5,132C 757.648,130.441 751.648,131.941 746.5,136.5 Z"/></g>
<g><path style="opacity:1" fill="#1b3d80" d="M 583.5,167.5 C 580.667,169.478 577.667,171.311 574.5,173C 559.54,176.012 550.374,170.179 547,155.5C 543.667,129.33 554.834,118.33 580.5,122.5C 581.167,123.833 581.833,123.833 582.5,122.5C 583.491,116.021 583.824,109.354 583.5,102.5C 587.167,102.5 590.833,102.5 594.5,102.5C 594.5,125.5 594.5,148.5 594.5,171.5C 591.167,171.5 587.833,171.5 584.5,171.5C 584.768,169.901 584.434,168.568 583.5,167.5 Z"/></g>
<g><path style="opacity:1" fill="#f2f3f5" d="M 567.5,132.5 C 572.37,132.032 577.036,132.698 581.5,134.5C 582.665,142.145 582.831,149.812 582,157.5C 578.155,162.003 573.322,163.503 567.5,162C 565,160.833 563.167,159 562,156.5C 559.742,149.678 560.076,143.011 563,136.5C 564.397,134.93 565.897,133.596 567.5,132.5 Z"/></g>
<g><path style="opacity:1" fill="#0b2055" d="M 495.5,101.5 C 498.167,101.5 500.833,101.5 503.5,101.5C 503.666,109.174 503.5,116.841 503,124.5C 502.5,117.174 502.334,109.841 502.5,102.5C 498.833,102.5 495.167,102.5 491.5,102.5C 491.333,124.503 491.5,146.503 492,168.5C 492.717,169.044 493.217,169.711 493.5,170.5C 492.504,170.586 491.671,170.252 491,169.5C 490.5,146.836 490.333,124.169 490.5,101.5C 492.167,101.5 493.833,101.5 495.5,101.5 Z"/></g>
<g><path style="opacity:1" fill="#f5f7f7" d="M 510.5,132.5 C 517.617,131.14 522.451,133.807 525,140.5C 528.816,157.51 522.316,164.51 505.5,161.5C 504.335,153.187 504.168,144.853 505,136.5C 506.812,135.023 508.645,133.69 510.5,132.5 Z"/></g>
<g><path style="opacity:1" fill="#1f4184" d="M 809.5,172.5 C 809.666,162.494 809.5,152.494 809,142.5C 808.5,152.161 808.334,161.828 808.5,171.5C 804.833,171.5 801.167,171.5 797.5,171.5C 797.5,155.5 797.5,139.5 797.5,123.5C 801.167,123.5 804.833,123.5 808.5,123.5C 808.232,125.099 808.566,126.432 809.5,127.5C 810.625,126.937 811.959,125.77 813.5,124C 826.49,117.004 830.49,120.504 825.5,134.5C 819.164,132.051 814.33,133.717 811,139.5C 810.83,150.674 810.33,161.674 809.5,172.5 Z"/></g>
<g><path style="opacity:1" fill="#1b4083" d="M 445.5,137.5 C 445.326,139.861 444.993,142.194 444.5,144.5C 450.026,144.821 455.36,144.488 460.5,143.5C 461.363,144.463 462.03,144.463 462.5,143.5C 458.524,132.928 455.857,122.262 454.5,111.5C 455.853,112.685 457.02,114.019 458,115.5C 459.992,114.335 461.825,113.002 463.5,111.5C 468.257,128.552 473.924,145.219 480.5,161.5C 480.959,164.877 481.626,168.211 482.5,171.5C 478.003,172.055 473.836,171.389 470,169.5C 469.601,169.728 469.435,170.062 469.5,170.5C 467.959,166.054 466.293,161.554 464.5,157C 455.903,155.915 447.569,156.415 439.5,158.5C 439.631,157.761 439.464,157.094 439,156.5C 437.893,161.153 436.393,165.653 434.5,170C 430.789,170.825 427.122,170.659 423.5,169.5C 426.262,161.715 428.928,153.882 431.5,146C 431.43,145.235 431.097,144.735 430.5,144.5C 430.5,143.833 430.833,143.5 431.5,143.5C 436.437,131.485 440.937,119.152 445,106.5C 449.748,105.365 454.581,105.198 459.5,106C 455.167,106.333 450.833,106.667 446.5,107C 445.276,109.39 444.776,111.89 445,114.5C 446.188,113.437 446.688,112.103 446.5,110.5C 448.912,110.756 450.579,109.756 451.5,107.5C 462.044,108.621 462.044,109.621 451.5,110.5C 451.104,114.956 450.104,115.29 448.5,111.5C 448.167,112 447.833,112.5 447.5,113C 448.498,114.999 449.498,116.999 450.5,119C 450.167,119.833 449.833,120.667 449.5,121.5C 448.667,119.5 447.833,117.5 447,115.5C 446.713,117.891 446.213,120.224 445.5,122.5C 446.491,123.665 447.491,124.832 448.5,126C 446.982,129.717 445.982,133.551 445.5,137.5 Z"/></g>
<g><path style="opacity:1" fill="#f4f6f7" d="M 460.5,143.5 C 455.36,144.488 450.026,144.821 444.5,144.5C 444.993,142.194 445.326,139.861 445.5,137.5C 448.066,130.982 450.566,124.315 453,117.5C 455.815,126.096 458.315,134.762 460.5,143.5 Z"/></g>
<g><path style="opacity:1" fill="#000e49" d="M 595.5,172.5 C 591.5,172.5 587.5,172.5 583.5,172.5C 583.5,170.833 583.5,169.167 583.5,167.5C 584.434,168.568 584.768,169.901 584.5,171.5C 587.833,171.5 591.167,171.5 594.5,171.5C 594.5,148.5 594.5,125.5 594.5,102.5C 590.833,102.5 587.167,102.5 583.5,102.5C 583.824,109.354 583.491,116.021 582.5,122.5C 582.5,115.5 582.5,108.5 582.5,101.5C 586.833,101.5 591.167,101.5 595.5,101.5C 595.5,125.167 595.5,148.833 595.5,172.5 Z"/></g>
<g><path style="opacity:1" fill="#1a3c7f" d="M 692.5,101.5 C 695.625,100.521 698.958,100.187 702.5,100.5C 702.333,114.504 702.5,128.504 703,142.5C 708.167,136 713.333,129.5 718.5,123C 723.833,122.333 729.167,122.333 734.5,123C 728.167,130.667 721.833,138.333 715.5,146C 722.689,154.354 729.689,162.854 736.5,171.5C 730.863,172.663 725.196,172.83 719.5,172C 713.689,164.188 708.023,156.355 702.5,148.5C 700.537,155.424 699.87,162.757 700.5,170.5C 697.167,170.5 693.833,170.5 690.5,170.5C 690.5,147.833 690.5,125.167 690.5,102.5C 693.85,102.665 697.183,102.498 700.5,102C 697.854,101.503 695.187,101.336 692.5,101.5 Z"/></g>
<g><path style="opacity:1" fill="#061959" d="M 905.5,138.5 C 905.5,149.833 905.5,161.167 905.5,172.5C 900.381,173.103 895.715,172.436 891.5,170.5C 892.33,160.008 892.83,149.341 893,138.5C 893.5,149.495 893.667,160.495 893.5,171.5C 897.167,171.5 900.833,171.5 904.5,171.5C 904.168,159.751 904.501,148.751 905.5,138.5 Z"/></g>
<g><path style="opacity:1" fill="#17225d" d="M 463.5,111.5 C 469.942,127.824 475.608,144.49 480.5,161.5C 473.924,145.219 468.257,128.552 463.5,111.5 Z"/></g>
<g><path style="opacity:1" fill="#132b66" d="M 692.5,101.5 C 695.187,101.336 697.854,101.503 700.5,102C 697.183,102.498 693.85,102.665 690.5,102.5C 690.5,125.167 690.5,147.833 690.5,170.5C 693.833,170.5 697.167,170.5 700.5,170.5C 699.87,162.757 700.537,155.424 702.5,148.5C 702.5,156.5 702.5,164.5 702.5,172.5C 697.833,172.5 693.167,172.5 688.5,172.5C 688.5,148.833 688.5,125.167 688.5,101.5C 689.833,101.5 691.167,101.5 692.5,101.5 Z"/></g>
<g><path style="opacity:1" fill="#1a3b7f" d="M 621.5,121.5 C 644.337,118.671 654.67,128.671 652.5,151.5C 641.5,151.5 630.5,151.5 619.5,151.5C 619.602,156.444 621.935,159.944 626.5,162C 634.09,163.173 641.423,162.34 648.5,159.5C 648.833,161.5 649.167,163.5 649.5,165.5C 649.41,167.964 648.743,170.13 647.5,172C 639.548,173.442 631.548,173.775 623.5,173C 610.816,168.966 604.816,160.299 605.5,147C 605.005,134.693 610.339,126.193 621.5,121.5 Z"/></g>
<g><path style="opacity:1" fill="#f3f7f8" d="M 626.5,130.5 C 635.344,129.679 639.678,133.679 639.5,142.5C 632.833,142.5 626.167,142.5 619.5,142.5C 619.772,137.288 622.106,133.288 626.5,130.5 Z"/></g>
<g><path style="opacity:1" fill="#f4f6f8" d="M 758.5,150.5 C 762.5,150.5 766.5,150.5 770.5,150.5C 771.394,160.101 767.061,163.935 757.5,162C 753.297,157.731 753.63,153.897 758.5,150.5 Z"/></g>
<g><path style="opacity:1" fill="#1b4084" d="M 935.5,136.5 C 934.505,147.988 934.172,159.655 934.5,171.5C 930.833,171.5 927.167,171.5 923.5,171.5C 923.667,160.495 923.5,149.495 923,138.5C 922.5,149.828 922.333,161.162 922.5,172.5C 921.669,160.674 921.169,148.674 921,136.5C 915.036,130.859 909.869,131.526 905.5,138.5C 904.501,148.751 904.168,159.751 904.5,171.5C 900.833,171.5 897.167,171.5 893.5,171.5C 893.667,160.495 893.5,149.495 893,138.5C 892.83,149.341 892.33,160.008 891.5,170.5C 891.667,159.162 891.5,147.828 891,136.5C 885.036,130.859 879.869,131.526 875.5,138.5C 874.657,148.422 874.157,159.089 874,170.5C 870.27,171.46 866.437,171.793 862.5,171.5C 862.5,155.5 862.5,139.5 862.5,123.5C 866.371,123.815 870.038,123.482 873.5,122.5C 874.309,124.292 874.809,126.292 875,128.5C 881.924,120.982 890.091,119.482 899.5,124C 901.378,125.543 902.878,127.376 904,129.5C 909.208,121.886 916.374,119.386 925.5,122C 932.179,124.524 935.512,129.357 935.5,136.5 Z"/></g>
<g><path style="opacity:1" fill="#021450" d="M 935.5,136.5 C 935.5,148.5 935.5,160.5 935.5,172.5C 931.167,172.5 926.833,172.5 922.5,172.5C 922.333,161.162 922.5,149.828 923,138.5C 923.5,149.495 923.667,160.495 923.5,171.5C 927.167,171.5 930.833,171.5 934.5,171.5C 934.172,159.655 934.505,147.988 935.5,136.5 Z"/></g>
<g><path style="opacity:1" fill="#1c4187" d="M 680.5,166.5 C 681.473,168.948 681.806,171.615 681.5,174.5C 677.486,174.666 673.486,174.499 669.5,174C 668.263,173.768 667.263,173.268 666.5,172.5C 666.938,172.565 667.272,172.399 667.5,172C 665.951,170.786 664.785,169.286 664,167.5C 663.5,145.836 663.333,124.169 663.5,102.5C 667.167,102.5 670.833,102.5 674.5,102.5C 674.333,122.503 674.5,142.503 675,162.5C 676.11,164.037 677.61,164.703 679.5,164.5C 679.988,167.711 679.321,170.544 677.5,173C 678.448,173.483 679.448,173.649 680.5,173.5C 680.5,171.167 680.5,168.833 680.5,166.5 Z"/></g>
<g><path style="opacity:1" fill="#142157" d="M 430.5,144.5 C 431.097,144.735 431.43,145.235 431.5,146C 428.928,153.882 426.262,161.715 423.5,169.5C 427.122,170.659 430.789,170.825 434.5,170C 436.393,165.653 437.893,161.153 439,156.5C 439.464,157.094 439.631,157.761 439.5,158.5C 438.576,162.941 437.242,167.275 435.5,171.5C 430.88,172.493 426.214,172.827 421.5,172.5C 424.1,163.033 427.1,153.7 430.5,144.5 Z"/></g>
<g><path style="opacity:1" fill="#0b184d" d="M 480.5,161.5 C 482.601,164.797 483.935,168.463 484.5,172.5C 479.056,173.108 474.056,172.442 469.5,170.5C 469.435,170.062 469.601,169.728 470,169.5C 473.836,171.389 478.003,172.055 482.5,171.5C 481.626,168.211 480.959,164.877 480.5,161.5 Z"/></g>
<g><path style="opacity:1" fill="#f0fefe" d="M 93.5,339.5 C 92.1672,249.098 92.1672,158.598 93.5,68C 142.088,68.1618 190.755,68.3284 239.5,68.5C 287.877,68.4976 336.044,67.8309 384,66.5C 384.333,66.8333 384.667,67.1667 385,67.5C 385.172,157.521 385.672,247.521 386.5,337.5C 386.392,338.442 386.059,339.275 385.5,340C 287.999,340.832 190.666,340.666 93.5,339.5 Z"/></g>
<g><path style="opacity:1" fill="#5897d1" d="M 93.5,70.5 C 189.999,69.5006 286.665,69.1672 383.5,69.5C 383.5,70.1667 383.5,70.8333 383.5,71.5C 287.5,71.5 191.5,71.5 95.5,71.5C 95.8327,159.668 95.4994,247.668 94.5,335.5C 94.8327,246.998 94.4994,158.665 93.5,70.5 Z"/></g>
<g><path style="opacity:1" fill="#b3e96c" d="M 767.5,205.5 C 772.701,204.766 777.201,206.1 781,209.5C 781.833,218 778,221.833 769.5,221C 768,220.167 766.833,219 766,217.5C 765.083,213.238 765.583,209.238 767.5,205.5 Z"/></g>
<g><path style="opacity:1" fill="#00124f" d="M 492.5,205.5 C 493.497,224.993 493.83,244.66 493.5,264.5C 492.503,245.674 492.17,226.674 492.5,207.5C 488.833,207.5 485.167,207.5 481.5,207.5C 481.831,229.007 481.497,250.34 480.5,271.5C 480.5,270.833 480.5,270.167 480.5,269.5C 480.5,248.5 480.5,227.5 480.5,206.5C 484.702,206.817 488.702,206.483 492.5,205.5 Z"/></g>
<g><path style="opacity:1" fill="#5f6faf" d="M 492.5,205.5 C 488.702,206.483 484.702,206.817 480.5,206.5C 480.5,227.5 480.5,248.5 480.5,269.5C 479.503,248.34 479.169,227.007 479.5,205.5C 483.833,205.5 488.167,205.5 492.5,205.5 Z"/></g>
<g><path style="opacity:1" fill="#b1e66a" d="M 641.5,234.5 C 641.461,235.756 641.961,236.756 643,237.5C 643.5,250.829 643.667,264.163 643.5,277.5C 638.833,277.5 634.167,277.5 629.5,277.5C 629.667,265.495 629.5,253.495 629,241.5C 625.564,238.01 621.397,236.844 616.5,238C 614.496,239.423 612.996,241.256 612,243.5C 611.5,254.828 611.333,266.162 611.5,277.5C 606.833,277.5 602.167,277.5 597.5,277.5C 597.5,253.5 597.5,229.5 597.5,205.5C 602.167,205.5 606.833,205.5 611.5,205.5C 611.169,213.86 611.502,222.193 612.5,230.5C 621.072,224.083 629.739,223.916 638.5,230C 640.141,231.129 641.141,232.629 641.5,234.5 Z"/></g>
<g><path style="opacity:1" fill="#aeeb60" d="M 603.5,206.5 C 605.833,206.5 608.167,206.5 610.5,206.5C 610.831,214.86 610.498,223.193 609.5,231.5C 608.692,229.577 608.192,227.577 608,225.5C 607.833,227.833 607.667,230.167 607.5,232.5C 609.396,240.82 610.396,249.32 610.5,258C 610.167,263.167 609.833,268.333 609.5,273.5C 608.833,273.167 608.167,272.833 607.5,272.5C 606.833,250.833 606.167,229.167 605.5,207.5C 604.708,209.465 604.041,211.465 603.5,213.5C 604.654,232.79 604.821,252.123 604,271.5C 602.301,272.406 600.467,272.739 598.5,272.5C 598.167,250.823 598.5,229.156 599.5,207.5C 600.167,228.833 600.833,250.167 601.5,271.5C 602.177,249.768 602.844,228.102 603.5,206.5 Z"/></g>
<g><path style="opacity:1" fill="#12225b" d="M 443.5,226.5 C 464.31,225.65 473.31,235.65 470.5,256.5C 459.5,256.5 448.5,256.5 437.5,256.5C 438,262.669 441.333,266.336 447.5,267.5C 450.305,268.319 453.305,268.819 456.5,269C 448.272,270.796 441.772,268.296 437,261.5C 436.192,259.421 436.359,257.421 437.5,255.5C 448.115,254.523 458.781,254.19 469.5,254.5C 470.795,235.797 462.128,226.464 443.5,226.5 Z"/></g>
<g><path style="opacity:1" fill="#b1e869" d="M 731.5,225.5 C 736.789,225.024 741.789,225.858 746.5,228C 749.333,229.5 751.5,231.667 753,234.5C 754.449,248.761 754.949,263.094 754.5,277.5C 749.833,277.5 745.167,277.5 740.5,277.5C 740.667,265.495 740.5,253.495 740,241.5C 737.904,238.703 735.071,237.37 731.5,237.5C 729.076,238.021 726.743,238.688 724.5,239.5C 723.558,252.13 723.225,264.796 723.5,277.5C 718.5,277.5 713.5,277.5 708.5,277.5C 708.5,260.833 708.5,244.167 708.5,227.5C 712.833,227.5 717.167,227.5 721.5,227.5C 721.215,229.288 721.548,230.955 722.5,232.5C 725.257,229.73 728.257,227.396 731.5,225.5 Z"/></g>
<g><path style="opacity:1" fill="#b1e869" d="M 660.5,239.5 C 659.85,239.804 659.183,240.137 658.5,240.5C 657.511,236.893 657.177,233.226 657.5,229.5C 667.235,224.638 677.235,224.305 687.5,228.5C 690.151,230.65 692.651,232.983 695,235.5C 696.429,249.441 696.929,263.441 696.5,277.5C 692.167,277.5 687.833,277.5 683.5,277.5C 683.799,275.396 683.466,273.396 682.5,271.5C 679.084,276.624 674.251,278.957 668,278.5C 657.902,278.15 652.402,272.817 651.5,262.5C 652.893,258.714 654.559,255.048 656.5,251.5C 659.003,250.036 661.67,248.869 664.5,248C 670.167,247.667 675.833,247.333 681.5,247C 682.78,244.868 682.78,242.702 681.5,240.5C 674.794,235.605 667.794,235.272 660.5,239.5 Z"/></g>
<g><path style="opacity:1" fill="#add877" d="M 780.5,227.5 C 780.5,244.167 780.5,260.833 780.5,277.5C 775.833,277.5 771.167,277.5 766.5,277.5C 766.5,260.833 766.5,244.167 766.5,227.5C 771.167,227.5 775.833,227.5 780.5,227.5 Z"/></g>
<g><path style="opacity:1" fill="#b2ea67" d="M 767.5,228.5 C 771.5,228.5 775.5,228.5 779.5,228.5C 779.5,244.5 779.5,260.5 779.5,276.5C 775.5,276.5 771.5,276.5 767.5,276.5C 767.5,260.5 767.5,244.5 767.5,228.5 Z"/></g>
<g><path style="opacity:1" fill="#f2fee2" d="M 780.5,227.5 C 782.486,244.134 783.152,261.134 782.5,278.5C 776.974,278.821 771.64,278.488 766.5,277.5C 771.167,277.5 775.833,277.5 780.5,277.5C 780.5,260.833 780.5,244.167 780.5,227.5 Z"/></g>
<g><path style="opacity:1" fill="#d0eba9" d="M 657.5,229.5 C 657.177,233.226 657.511,236.893 658.5,240.5C 659.183,240.137 659.85,239.804 660.5,239.5C 659.817,241.176 658.483,241.843 656.5,241.5C 656.183,237.298 656.517,233.298 657.5,229.5 Z"/></g>
<g><path style="opacity:1" fill="#e0f6be" d="M 526.5,235.5 C 526.36,241.536 526.693,247.536 527.5,253.5C 526.778,253.082 526.278,252.416 526,251.5C 525.183,245.984 525.349,240.65 526.5,235.5 Z"/></g>
<g><path style="opacity:1" fill="#1b4183" d="M 493.5,264.5 C 494.122,267.776 496.122,269.109 499.5,268.5C 499.5,272.167 499.5,275.833 499.5,279.5C 494.401,279.825 489.401,279.325 484.5,278C 482.266,276.362 480.933,274.195 480.5,271.5C 481.497,250.34 481.831,229.007 481.5,207.5C 485.167,207.5 488.833,207.5 492.5,207.5C 492.17,226.674 492.503,245.674 493.5,264.5 Z"/></g>
<g><path style="opacity:1" fill="#f1fed5" d="M 586.5,239.5 C 587.177,250.235 587.844,261.069 588.5,272C 587.956,272.717 587.289,273.217 586.5,273.5C 586.5,262.167 586.5,250.833 586.5,239.5 Z"/></g>
<g><path style="opacity:1" fill="#ecfcd6" d="M 641.5,234.5 C 642.458,234.953 643.292,235.619 644,236.5C 644.827,250.34 644.661,264.006 643.5,277.5C 643.667,264.163 643.5,250.829 643,237.5C 641.961,236.756 641.461,235.756 641.5,234.5 Z"/></g>
<g><path style="opacity:1" fill="#f5f8f1" d="M 668.5,255.5 C 673.167,255.5 677.833,255.5 682.5,255.5C 682.735,264.394 678.401,268.228 669.5,267C 665.84,263.517 665.506,259.684 668.5,255.5 Z"/></g>
<g><path style="opacity:1" fill="#acee58" d="M 640.5,239.5 C 642.48,251.455 643.146,263.788 642.5,276.5C 638.5,276.5 634.5,276.5 630.5,276.5C 630.333,265.162 630.5,253.828 631,242.5C 631.237,253.199 631.737,263.866 632.5,274.5C 634.5,274.5 636.5,274.5 638.5,274.5C 638.334,268.158 638.5,261.825 639,255.5C 639.333,260.833 639.667,266.167 640,271.5C 640.5,260.839 640.667,250.172 640.5,239.5 Z"/></g>
<g><path style="opacity:1" fill="#1b3c7f" d="M 443.5,226.5 C 462.128,226.464 470.795,235.797 469.5,254.5C 458.781,254.19 448.115,254.523 437.5,255.5C 436.359,257.421 436.192,259.421 437,261.5C 441.772,268.296 448.272,270.796 456.5,269C 453.305,268.819 450.305,268.319 447.5,267.5C 454.517,268.28 461.017,266.947 467,263.5C 467.499,267.821 467.666,272.154 467.5,276.5C 458.929,278.365 450.262,278.865 441.5,278C 428.82,273.978 422.82,265.311 423.5,252C 423.282,238.056 429.948,229.556 443.5,226.5 Z"/></g>
<g><path style="opacity:1" fill="#f3f6f7" d="M 445.5,235.5 C 453.852,235.186 457.852,239.186 457.5,247.5C 450.833,247.5 444.167,247.5 437.5,247.5C 437.698,241.751 440.364,237.751 445.5,235.5 Z"/></g>
<g><path style="opacity:1" fill="#b1e869" d="M 586.5,239.5 C 586.5,250.833 586.5,262.167 586.5,273.5C 576.008,277.702 565.008,279.535 553.5,279C 539.676,275.676 531.01,267.176 527.5,253.5C 526.693,247.536 526.36,241.536 526.5,235.5C 529.631,218.87 539.631,209.037 556.5,206C 565.722,204.968 574.722,205.968 583.5,209C 584.022,209.561 584.355,210.228 584.5,211C 583.6,215.133 582.933,219.3 582.5,223.5C 573.918,219.812 564.918,218.645 555.5,220C 551.078,221.968 547.245,224.802 544,228.5C 538.933,241.521 541.1,253.021 550.5,263C 551.833,263.667 553.167,264.333 554.5,265C 559.833,265.667 565.167,265.667 570.5,265C 571.467,260.599 571.8,256.099 571.5,251.5C 567.5,251.5 563.5,251.5 559.5,251.5C 559.5,247.5 559.5,243.5 559.5,239.5C 568.5,239.5 577.5,239.5 586.5,239.5 Z"/></g>
<g><path style="opacity:1" fill="#598cbb" d="M 383.5,69.5 C 384.499,159.332 384.833,249.332 384.5,339.5C 287.5,339.5 190.5,339.5 93.5,339.5C 93.5,249.833 93.5,160.167 93.5,70.5C 94.4994,158.665 94.8327,246.998 94.5,335.5C 190.494,337.498 286.828,338.164 383.5,337.5C 383.5,248.833 383.5,160.167 383.5,71.5C 383.5,70.8333 383.5,70.1667 383.5,69.5 Z"/></g>
<g><path style="opacity:1" fill="#599cd0" d="M 383.5,71.5 C 383.5,160.167 383.5,248.833 383.5,337.5C 286.828,338.164 190.494,337.498 94.5,335.5C 95.4994,247.668 95.8327,159.668 95.5,71.5C 191.5,71.5 287.5,71.5 383.5,71.5 Z"/></g>
<g><path style="opacity:1" fill="#569edb" d="M 107.5,325.5 C 194.001,326.167 280.668,326.833 367.5,327.5C 280.169,328.5 192.836,328.833 105.5,328.5C 105.285,326.821 105.952,325.821 107.5,325.5 Z"/></g>
<g><path style="opacity:1" fill="#f0f8fb" d="M 107.5,325.5 C 107.5,244.833 107.5,164.167 107.5,83.5C 195.167,83.5 282.833,83.5 370.5,83.5C 370.5,163.833 370.5,244.167 370.5,324.5C 282.835,325.153 195.168,325.487 107.5,325.5 Z"/></g>
<g><path style="opacity:1" fill="#f7f7f6" d="M 108.5,85.5 C 195.167,85.3333 281.834,85.5 368.5,86C 282.501,86.5 196.501,86.6667 110.5,86.5C 110.351,87.552 110.517,88.552 111,89.5C 117.289,88.7949 123.622,88.1282 130,87.5C 209.017,88.2649 288.517,88.5983 368.5,88.5C 368.485,166.192 368.485,243.859 368.5,321.5C 283.078,320.787 197.412,320.454 111.5,320.5C 111.609,313.516 111.609,306.682 111.5,300C 113.526,297.609 113.526,295.443 111.5,293.5C 112.289,291.512 113.455,291.179 115,292.5C 115.667,291.167 115.667,289.833 115,288.5C 113.817,289.731 112.651,289.731 111.5,288.5C 112.025,287.808 112.692,287.308 113.5,287C 111.219,284.293 110.885,281.293 112.5,278C 111.672,216.195 111.172,154.362 111,92.5C 110.832,169.07 110.332,245.57 109.5,322C 110,322.5 110.5,323 111,323.5C 164.429,322.336 217.929,322.169 271.5,323C 217.174,324.222 162.84,324.722 108.5,324.5C 108.5,244.833 108.5,165.167 108.5,85.5 Z"/></g>
<g><path style="opacity:1" fill="#8897b7" d="M 116.5,300.5 C 127.988,301.495 139.655,301.828 151.5,301.5C 139.66,302.825 127.66,302.825 115.5,301.5C 115.624,300.893 115.957,300.56 116.5,300.5 Z"/></g>
<g><path style="opacity:1" fill="#0a1754" d="M 127.5,271.5 C 124.704,281.221 121.704,290.888 118.5,300.5C 129.5,300.5 140.5,300.5 151.5,300.5C 152.37,295.777 154.036,291.444 156.5,287.5C 155.354,292.438 153.687,297.105 151.5,301.5C 139.655,301.828 127.988,301.495 116.5,300.5C 119.598,290.529 123.264,280.863 127.5,271.5 Z"/></g>
<g><path style="opacity:1" fill="#b3ee4c" d="M 289.5,268.5 C 278.215,270.478 266.548,271.145 254.5,270.5C 265.785,268.522 277.452,267.855 289.5,268.5 Z"/></g>
<g><path style="opacity:1" fill="#abd889" d="M 253.5,267.5 C 265.833,267.5 278.167,267.5 290.5,267.5C 290.5,268.167 290.167,268.5 289.5,268.5C 277.452,267.855 265.785,268.522 254.5,270.5C 253.596,269.791 253.263,268.791 253.5,267.5 Z"/></g>
<g><path style="opacity:1" fill="#f3fbe8" d="M 282.5,185.5 C 282.172,197.012 282.505,208.346 283.5,219.5C 292.5,219.5 301.5,219.5 310.5,219.5C 310.828,230.014 310.494,240.347 309.5,250.5C 309.5,240.5 309.5,230.5 309.5,220.5C 299.494,220.334 289.494,220.5 279.5,221C 279.957,221.414 280.291,221.914 280.5,222.5C 278.047,226.685 276.38,226.352 275.5,221.5C 276.578,218.793 277.578,216.126 278.5,213.5C 279.5,213.5 280.5,213.5 281.5,213.5C 281.173,203.985 281.506,194.652 282.5,185.5 Z"/></g>
<g><path style="opacity:1" fill="#18225e" d="M 166.5,159.5 C 166.66,161.199 166.494,162.866 166,164.5C 157.096,189.725 147.929,214.725 138.5,239.5C 147.262,212.545 156.595,185.878 166.5,159.5 Z"/></g>
<g><path style="opacity:1" fill="#16205b" d="M 255.5,172.5 C 264.347,194.882 272.68,217.549 280.5,240.5C 271.162,218.88 262.828,196.214 255.5,172.5 Z"/></g>
<g><path style="opacity:1" fill="#bfe48a" d="M 282.5,185.5 C 302.833,185.5 323.167,185.5 343.5,185.5C 344.157,209.191 343.49,232.524 341.5,255.5C 341.5,232.5 341.5,209.5 341.5,186.5C 322.167,186.5 302.833,186.5 283.5,186.5C 283.5,197.5 283.5,208.5 283.5,219.5C 282.505,208.346 282.172,197.012 282.5,185.5 Z"/></g>
<g><path style="opacity:1" fill="#b2e967" d="M 341.5,255.5 C 339.488,267.691 334.155,278.191 325.5,287C 316.546,293.751 306.546,298.418 295.5,301C 285.172,301.5 274.839,301.666 264.5,301.5C 261.15,291.119 257.817,280.785 254.5,270.5C 266.548,271.145 278.215,270.478 289.5,268.5C 290.167,268.5 290.5,268.167 290.5,267.5C 290.5,267.167 290.5,266.833 290.5,266.5C 300.296,265.124 306.629,259.79 309.5,250.5C 310.494,240.347 310.828,230.014 310.5,219.5C 301.5,219.5 292.5,219.5 283.5,219.5C 283.5,208.5 283.5,197.5 283.5,186.5C 302.833,186.5 322.167,186.5 341.5,186.5C 341.5,209.5 341.5,232.5 341.5,255.5 Z"/></g>
<g><path style="opacity:1" fill="#062158" d="M 229.5,103.5 C 232.968,112.568 236.635,121.568 240.5,130.5C 236.665,124.163 233.331,117.496 230.5,110.5C 227.826,109.501 227.159,107.834 228.5,105.5C 213.725,104.24 199.392,104.24 185.5,105.5C 199.795,103.517 214.462,102.85 229.5,103.5 Z"/></g>
<g><path style="opacity:1" fill="#1a4084" d="M 240.5,130.5 C 241.736,132.649 242.736,134.982 243.5,137.5C 247.903,149.041 251.903,160.708 255.5,172.5C 262.828,196.214 271.162,218.88 280.5,240.5C 284.01,249.018 287.343,257.684 290.5,266.5C 290.5,266.833 290.5,267.167 290.5,267.5C 278.167,267.5 265.833,267.5 253.5,267.5C 249.863,257.599 246.196,247.599 242.5,237.5C 219.843,236.5 197.176,236.167 174.5,236.5C 168.868,253.736 162.868,270.736 156.5,287.5C 154.036,291.444 152.37,295.777 151.5,300.5C 140.5,300.5 129.5,300.5 118.5,300.5C 121.704,290.888 124.704,281.221 127.5,271.5C 130.392,260.489 134.059,249.822 138.5,239.5C 147.929,214.725 157.096,189.725 166,164.5C 166.494,162.866 166.66,161.199 166.5,159.5C 172.459,141.286 178.792,123.286 185.5,105.5C 199.392,104.24 213.725,104.24 228.5,105.5C 227.159,107.834 227.826,109.501 230.5,110.5C 233.331,117.496 236.665,124.163 240.5,130.5 Z"/></g>
<g><path style="opacity:1" fill="#213da9" d="M 253.5,264.5 C 265.186,264.168 276.852,264.501 288.5,265.5C 282.667,265.833 276.833,266.167 271,266.5C 264.793,266.496 258.96,265.829 253.5,264.5 Z"/></g>
<g><path style="opacity:1" fill="#f5f6f7" d="M 207.5,138.5 C 208.497,138.47 209.164,138.97 209.5,140C 216.641,161.092 223.975,182.092 231.5,203C 216.167,203.667 200.833,203.667 185.5,203C 193.335,181.661 200.668,160.161 207.5,138.5 Z"/></g>
<g><path style="opacity:1" fill="#7ae4ef" d="M 229.5,103.5 C 251.503,103.333 273.503,103.5 295.5,104C 314.909,108.086 329.075,118.92 338,136.5C 339.309,138.686 339.476,140.853 338.5,143C 330.302,148.024 321.969,152.857 313.5,157.5C 310.698,154.624 308.532,151.29 307,147.5C 304.011,143.509 300.178,140.676 295.5,139C 278.214,137.572 260.881,137.072 243.5,137.5C 242.736,134.982 241.736,132.649 240.5,130.5C 236.635,121.568 232.968,112.568 229.5,103.5 Z"/></g>
</svg>
