<?xml version="1.0" encoding="UTF-8"?>
<!DOCTYPE svg PUBLIC "-//W3C//DTD SVG 1.1//EN" "http://www.w3.org/Graphics/SVG/1.1/DTD/svg11.dtd">
<svg xmlns="http://www.w3.org/2000/svg" version="1.1" width="1024px" height="1024px" style="shape-rendering:geometricPrecision; text-rendering:geometricPrecision; image-rendering:optimizeQuality; fill-rule:evenodd; clip-rule:evenodd" xmlns:xlink="http://www.w3.org/1999/xlink">
<g><path style="opacity:0.993" fill="#fec64a" d="M 309.5,478.5 C 296.138,460.505 278.471,454.338 256.5,460C 233.545,469.456 216.545,485.289 205.5,507.5C 198.272,519.32 192.272,531.82 187.5,545C 180.294,546.405 173.294,547.571 166.5,548.5C 158.397,505.642 170.397,469.476 202.5,440C 230.259,418.988 260.925,412.988 294.5,422C 341.418,439.272 365.085,473.105 365.5,523.5C 365.162,531.889 364.329,540.223 363,548.5C 351.219,544.611 339.219,541.611 327,539.5C 327.37,519.706 323.037,501.04 314,483.5C 312.951,481.382 311.451,479.716 309.5,478.5 Z"/></g>
<g><path style="opacity:0.004" fill="#f5c345" d="M 797.5,455.5 C 798.833,456.167 798.833,456.167 797.5,455.5 Z"/></g>
<g><path style="opacity:0.976" fill="#fdc748" d="M 451.5,508.5 C 448.696,509.638 445.696,509.805 442.5,509C 440.775,504.217 438.775,499.551 436.5,495C 429.919,494.813 423.419,494.313 417,493.5C 416,493.833 415,494.167 414,494.5C 412.265,499.206 410.431,503.873 408.5,508.5C 405.5,509.833 402.5,509.833 399.5,508.5C 406.935,490.69 414.269,472.857 421.5,455C 424.669,454.022 427.503,454.522 430,456.5C 436.704,474.136 443.871,491.469 451.5,508.5 Z M 432.5,485.5 C 432.167,485.5 431.833,485.5 431.5,485.5C 426.684,486.65 421.684,486.816 416.5,486C 419.284,479.791 421.951,473.624 424.5,467.5C 424.413,464.402 424.913,464.068 426,466.5C 428.474,472.757 430.641,479.09 432.5,485.5 Z"/></g>
<g><path style="opacity:0.964" fill="#fcc647" d="M 583.5,454.5 C 590.412,455.462 597.412,455.795 604.5,455.5C 604.5,457.833 604.5,460.167 604.5,462.5C 595.167,462.5 585.833,462.5 576.5,462.5C 576.5,467.5 576.5,472.5 576.5,477.5C 584.087,477.186 591.587,477.519 599,478.5C 599.667,477.833 600.333,477.167 601,476.5C 602.664,479.289 602.83,482.123 601.5,485C 593.173,485.5 584.84,485.666 576.5,485.5C 576.5,491.167 576.5,496.833 576.5,502.5C 586.506,502.334 596.506,502.5 606.5,503C 604.75,504.754 604.083,506.921 604.5,509.5C 592.495,509.667 580.495,509.5 568.5,509C 569.73,491.85 569.73,474.35 568.5,456.5C 573.651,455.833 578.651,455.166 583.5,454.5 Z"/></g>
<g><path style="opacity:0.987" fill="#fcc647" d="M 621.5,454.5 C 622.15,454.804 622.817,455.137 623.5,455.5C 624.499,471.152 624.833,486.819 624.5,502.5C 633.5,502.5 642.5,502.5 651.5,502.5C 651.5,504.833 651.5,507.167 651.5,509.5C 639.833,509.5 628.167,509.5 616.5,509.5C 616.5,491.5 616.5,473.5 616.5,455.5C 618.415,455.784 620.081,455.451 621.5,454.5 Z"/></g>
<g><path style="opacity:0.988" fill="#fcc648" d="M 693.5,495.5 C 696.409,499.621 699.575,503.621 703,507.5C 703.47,508.577 703.303,509.577 702.5,510.5C 702.167,510.5 701.833,510.5 701.5,510.5C 700.295,509.314 698.961,509.314 697.5,510.5C 694.958,509.961 692.792,508.628 691,506.5C 685.333,499.167 679.667,491.833 674,484.5C 670.383,486.939 668.216,490.273 667.5,494.5C 667.823,499.211 668.156,504.211 668.5,509.5C 665.833,509.5 663.167,509.5 660.5,509.5C 660.5,491.5 660.5,473.5 660.5,455.5C 663.167,455.5 665.833,455.5 668.5,455.5C 668.334,463.507 668.5,471.507 669,479.5C 676.865,471.97 684.365,464.136 691.5,456C 694.725,454.46 698.058,454.46 701.5,456C 694.167,464 686.833,472 679.5,480C 684.032,485.362 688.699,490.528 693.5,495.5 Z"/></g>
<g><path style="opacity:0.969" fill="#fdc647" d="M 753.5,510.5 C 753.167,509.167 752.833,509.167 752.5,510.5C 752.167,510.5 751.833,510.5 751.5,510.5C 748.412,505.983 746.078,500.983 744.5,495.5C 741.164,494.76 737.83,494.094 734.5,493.5C 730.096,493.754 725.762,494.254 721.5,495C 719.137,499.59 717.47,504.423 716.5,509.5C 714.143,509.337 711.81,509.503 709.5,510C 710.696,510.654 710.696,511.154 709.5,511.5C 708.585,510.672 707.919,509.672 707.5,508.5C 714.61,491.279 721.444,473.945 728,456.5C 731.057,455.549 734.223,455.216 737.5,455.5C 743.903,473.369 750.903,491.036 758.5,508.5C 756.861,509.322 755.195,509.989 753.5,510.5 Z M 733.5,468.5 C 736.071,473.537 738.071,478.871 739.5,484.5C 740.043,484.56 740.376,484.893 740.5,485.5C 736.217,486.492 731.884,486.826 727.5,486.5C 727.737,485.209 727.404,484.209 726.5,483.5C 727.82,477.194 729.987,471.194 733,465.5C 733.483,466.448 733.649,467.448 733.5,468.5 Z"/></g>
<g><path style="opacity:0.984" fill="#fdc647" d="M 767.5,455.5 C 776.173,455.334 784.84,455.5 793.5,456C 805.495,459.588 809.328,467.422 805,479.5C 803.084,483.085 800.251,485.585 796.5,487C 801.085,494.169 805.419,501.502 809.5,509C 808.584,509.374 807.75,509.874 807,510.5C 804.527,509.88 802.027,509.214 799.5,508.5C 797.153,502.306 794.153,496.473 790.5,491C 785.405,488.823 780.072,487.99 774.5,488.5C 774.189,495.09 774.522,501.59 775.5,508C 773.063,509.375 770.397,509.875 767.5,509.5C 767.5,491.5 767.5,473.5 767.5,455.5 Z M 774.5,462.5 C 780.176,462.334 785.843,462.501 791.5,463C 797.756,465.349 799.923,469.849 798,476.5C 796.269,478.617 794.102,480.117 791.5,481C 785.833,481.667 780.167,481.667 774.5,481C 775.353,475.243 775.353,469.076 774.5,462.5 Z"/></g>
<g><path style="opacity:0.008" fill="#d6c17e" d="M 270.5,458.5 C 271.833,459.167 271.833,459.167 270.5,458.5 Z"/></g>
<g><path style="opacity:0.02" fill="#f5c049" d="M 605.5,458.5 C 606.833,459.167 606.833,459.167 605.5,458.5 Z"/></g>
<g><path style="opacity:0.987" fill="#fcc647" d="M 890.5,454.5 C 891.117,454.611 891.617,454.944 892,455.5C 892.424,473.657 892.591,491.657 892.5,509.5C 889.833,509.5 887.167,509.5 884.5,509.5C 884.667,496.496 884.5,483.496 884,470.5C 878.911,483.335 874.411,496.335 870.5,509.5C 867.833,509.5 865.167,509.5 862.5,509.5C 858.17,496.011 853.336,482.678 848,469.5C 847.5,482.829 847.333,496.163 847.5,509.5C 845.167,509.5 842.833,509.5 840.5,509.5C 840.5,491.5 840.5,473.5 840.5,455.5C 844.167,455.5 847.833,455.5 851.5,455.5C 855.902,469.371 860.902,483.038 866.5,496.5C 872.098,483.038 877.098,469.371 881.5,455.5C 884.713,455.81 887.713,455.477 890.5,454.5 Z"/></g>
<g><path style="opacity:0.004" fill="#f6c247" d="M 722.5,464.5 C 723.833,465.167 723.833,465.167 722.5,464.5 Z"/></g>
<g><path style="opacity:0.008" fill="#b0b5a8" d="M 262.5,466.5 C 263.833,467.167 263.833,467.167 262.5,466.5 Z"/></g>
<g><path style="opacity:0.004" fill="#a7b3ad" d="M 273.5,466.5 C 274.833,467.167 274.833,467.167 273.5,466.5 Z"/></g>
<g><path style="opacity:0.008" fill="#aab4ad" d="M 275.5,466.5 C 276.833,467.167 276.833,467.167 275.5,466.5 Z"/></g>
<g><path style="opacity:0.008" fill="#aab2a9" d="M 278.5,466.5 C 279.833,467.167 279.833,467.167 278.5,466.5 Z"/></g>
<g><path style="opacity:0.978" fill="#fdc647" d="M 519.5,454.5 C 525.419,455.291 531.419,455.791 537.5,456C 545.978,457.654 551.811,462.487 555,470.5C 559.831,483.636 556.998,495.136 546.5,505C 543.382,506.893 540.049,508.226 536.5,509C 528.173,509.5 519.84,509.666 511.5,509.5C 512.557,491.317 512.557,473.317 511.5,455.5C 514.385,455.806 517.052,455.473 519.5,454.5 Z M 519.5,462.5 C 524.844,462.334 530.177,462.501 535.5,463C 546.499,466.929 550.999,474.762 549,486.5C 546.242,497.904 538.908,503.237 527,502.5C 524.576,502.47 522.243,502.137 520,501.5C 519.5,488.504 519.333,475.504 519.5,462.5 Z"/></g>
<g><path style="opacity:0.012" fill="#dac57e" d="M 299.5,469.5 C 300.833,470.167 300.833,470.167 299.5,469.5 Z"/></g>
<g><path style="opacity:0.004" fill="#b7b59c" d="M 239.5,473.5 C 240.833,474.167 240.833,474.167 239.5,473.5 Z"/></g>
<g><path style="opacity:0.004" fill="#a8b2a6" d="M 294.5,476.5 C 295.833,477.167 295.833,477.167 294.5,476.5 Z"/></g>
<g><path style="opacity:0.004" fill="#f7c546" d="M 827.5,476.5 C 828.833,477.167 828.833,477.167 827.5,476.5 Z"/></g>
<g><path style="opacity:0.004" fill="#f0c356" d="M 171.5,477.5 C 172.833,478.167 172.833,478.167 171.5,477.5 Z"/></g>
<g><path style="opacity:0.004" fill="#dec477" d="M 309.5,478.5 C 308.833,479.167 308.833,479.167 309.5,478.5 Z"/></g>
<g><path style="opacity:0.947" fill="#fdc748" d="M 459.5,455.5 C 468.506,455.334 477.506,455.5 486.5,456C 495.955,459.409 499.121,465.909 496,475.5C 494.833,478 493,479.833 490.5,481C 499.459,486.671 501.292,494.171 496,503.5C 492.639,506.345 488.972,508.679 485,510.5C 476.585,509.517 468.085,509.183 459.5,509.5C 459.5,491.5 459.5,473.5 459.5,455.5 Z M 466.5,462.5 C 472.176,462.334 477.843,462.501 483.5,463C 487.588,464.084 489.588,466.751 489.5,471C 488.896,473.468 487.562,475.468 485.5,477C 479.175,477.5 472.842,477.666 466.5,477.5C 466.5,472.5 466.5,467.5 466.5,462.5 Z M 484.5,486.5 C 491.918,488.984 493.252,493.484 488.5,500C 481.368,502.239 474.035,503.073 466.5,502.5C 467.63,496.521 467.63,491.021 466.5,486C 472.681,485.181 478.681,485.347 484.5,486.5 Z"/></g>
<g><path style="opacity:0.009" fill="#afb6a6" d="M 295.5,479.5 C 296.675,479.281 297.675,479.614 298.5,480.5C 298.376,481.107 298.043,481.44 297.5,481.5C 297.5,480.833 297.167,480.5 296.5,480.5C 295.833,480.5 295.5,480.167 295.5,479.5 Z"/></g>
<g><path style="opacity:0.012" fill="#bab899" d="M 301.5,480.5 C 302.833,481.167 302.833,481.167 301.5,480.5 Z"/></g>
<g><path style="opacity:0.004" fill="#b0b5a3" d="M 299.5,481.5 C 300.833,482.167 300.833,482.167 299.5,481.5 Z"/></g>
<g><path style="opacity:0.004" fill="#f8c648" d="M 494.5,481.5 C 495.833,482.167 495.833,482.167 494.5,481.5 Z"/></g>
<g><path style="opacity:0.008" fill="#afb5a3" d="M 302.5,487.5 C 302.369,486.761 302.536,486.094 303,485.5C 303.692,486.437 303.525,487.103 302.5,487.5 Z"/></g>
<g><path style="opacity:0.008" fill="#f5c24d" d="M 597.5,486.5 C 598.833,487.167 598.833,487.167 597.5,486.5 Z"/></g>
<g><path style="opacity:0.004" fill="#a1b3b0" d="M 230.5,490.5 C 229.833,489.167 229.833,489.167 230.5,490.5 Z"/></g>
<g><path style="opacity:0.004" fill="#d2bf82" d="M 313.5,490.5 C 314.833,491.167 314.833,491.167 313.5,490.5 Z"/></g>
<g><path style="opacity:0.374" fill="#fac448" d="M 821.5,454.5 C 823.042,455.301 824.708,455.634 826.5,455.5C 826.5,473.5 826.5,491.5 826.5,509.5C 824.061,510.053 821.727,510.053 819.5,509.5C 818.5,491.512 818.167,473.512 818.5,455.5C 819.791,455.737 820.791,455.404 821.5,454.5 Z"/></g>
<g><path style="opacity:0.004" fill="#f6c44b" d="M 693.5,494.5 C 694.833,495.167 694.833,495.167 693.5,494.5 Z"/></g>
<g><path style="opacity:0.008" fill="#f3c657" d="M 401.5,498.5 C 402.833,499.167 402.833,499.167 401.5,498.5 Z"/></g>
<g><path style="opacity:0.004" fill="#f0c353" d="M 648.5,500.5 C 649.833,501.167 649.833,501.167 648.5,500.5 Z"/></g>
<g><path style="opacity:0.004" fill="#eac158" d="M 437.5,502.5 C 438.833,503.167 438.833,503.167 437.5,502.5 Z"/></g>
<g><path style="opacity:0.004" fill="#eabe51" d="M 550.5,502.5 C 551.833,503.167 551.833,503.167 550.5,502.5 Z"/></g>
<g><path style="opacity:0.004" fill="#e8be59" d="M 652.5,504.5 C 653.833,505.167 653.833,505.167 652.5,504.5 Z"/></g>
<g><path style="opacity:0.004" fill="#e1be63" d="M 439.5,506.5 C 440.833,507.167 440.833,507.167 439.5,506.5 Z"/></g>
<g><path style="opacity:0.004" fill="#d3bf7e" d="M 205.5,507.5 C 206.833,508.167 206.833,508.167 205.5,507.5 Z"/></g>
<g><path style="opacity:0.016" fill="#e0bf68" d="M 451.5,507.5 C 452.833,508.167 452.833,508.167 451.5,507.5 Z"/></g>
<g><path style="opacity:0.004" fill="#ddc067" d="M 439.5,508.5 C 440.833,509.167 440.833,509.167 439.5,508.5 Z"/></g>
<g><path style="opacity:0.004" fill="#d8bd6d" d="M 453.5,509.5 C 454.833,510.167 454.833,510.167 453.5,509.5 Z"/></g>
<g><path style="opacity:0.012" fill="#d3bc6e" d="M 405.5,510.5 C 406.833,511.167 406.833,511.167 405.5,510.5 Z"/></g>
<g><path style="opacity:0.016" fill="#d3be6d" d="M 444.5,510.5 C 445.833,511.167 445.833,511.167 444.5,510.5 Z"/></g>
<g><path style="opacity:0.004" fill="#d3bd70" d="M 461.5,510.5 C 462.833,511.167 462.833,511.167 461.5,510.5 Z"/></g>
<g><path style="opacity:0.004" fill="#d8bd6a" d="M 480.5,510.5 C 481.833,511.167 481.833,511.167 480.5,510.5 Z"/></g>
<g><path style="opacity:0.008" fill="#d1bd6e" d="M 512.5,510.5 C 513.833,511.167 513.833,511.167 512.5,510.5 Z"/></g>
<g><path style="opacity:0.004" fill="#d4ba6e" d="M 516.5,510.5 C 517.833,511.167 517.833,511.167 516.5,510.5 Z"/></g>
<g><path style="opacity:0.008" fill="#d1bc6e" d="M 528.5,510.5 C 529.833,511.167 529.833,511.167 528.5,510.5 Z"/></g>
<g><path style="opacity:0.008" fill="#d7b96f" d="M 572.5,510.5 C 573.833,511.167 573.833,511.167 572.5,510.5 Z"/></g>
<g><path style="opacity:0.012" fill="#d5bb6c" d="M 574.5,510.5 C 575.833,511.167 575.833,511.167 574.5,510.5 Z"/></g>
<g><path style="opacity:0.012" fill="#d5bb66" d="M 620.5,511.5 C 621.251,510.427 622.251,510.26 623.5,511C 622.552,511.483 621.552,511.649 620.5,511.5 Z"/></g>
<g><path style="opacity:0.008" fill="#d7bf6a" d="M 631.5,510.5 C 632.833,511.167 632.833,511.167 631.5,510.5 Z"/></g>
<g><path style="opacity:0.024" fill="#debb67" d="M 660.5,510.5 C 661.833,511.167 661.833,511.167 660.5,510.5 Z"/></g>
<g><path style="opacity:0.008" fill="#dbbd6a" d="M 662.5,511.5 C 662.897,510.475 663.563,510.308 664.5,511C 663.906,511.464 663.239,511.631 662.5,511.5 Z"/></g>
<g><path style="opacity:0.016" fill="#dfbd63" d="M 697.5,510.5 C 696.833,511.167 696.833,511.167 697.5,510.5 Z"/></g>
<g><path style="opacity:0.008" fill="#e3c05d" d="M 701.5,510.5 C 701.103,511.525 700.437,511.692 699.5,511C 700.094,510.536 700.761,510.369 701.5,510.5 Z"/></g>
<g><path style="opacity:0.004" fill="#e2bc58" d="M 702.5,510.5 C 703.833,511.167 703.833,511.167 702.5,510.5 Z"/></g>
<g><path style="opacity:0.024" fill="#e4c15e" d="M 711.5,511.5 C 711.897,510.475 712.563,510.308 713.5,511C 712.906,511.464 712.239,511.631 711.5,511.5 Z"/></g>
<g><path style="opacity:0.004" fill="#e5c05c" d="M 751.5,510.5 C 750.833,511.167 750.833,511.167 751.5,510.5 Z"/></g>
<g><path style="opacity:0.02" fill="#dfc056" d="M 752.5,510.5 C 752.833,510.5 753.167,510.5 753.5,510.5C 753.315,511.17 752.981,511.17 752.5,510.5 Z"/></g>
<g><path style="opacity:0.008" fill="#e2bc58" d="M 756.5,511.5 C 756.897,510.475 757.563,510.308 758.5,511C 757.906,511.464 757.239,511.631 756.5,511.5 Z"/></g>
<g><path style="opacity:0.008" fill="#e6be59" d="M 773.5,510.5 C 774.833,511.167 774.833,511.167 773.5,510.5 Z"/></g>
<g><path style="opacity:0.005" fill="#e4bf5a" d="M 802.5,511.5 C 803.251,510.427 804.251,510.26 805.5,511C 804.552,511.483 803.552,511.649 802.5,511.5 Z"/></g>
<g><path style="opacity:0.004" fill="#e8c05a" d="M 840.5,510.5 C 841.833,511.167 841.833,511.167 840.5,510.5 Z"/></g>
<g><path style="opacity:0.004" fill="#e6c159" d="M 844.5,510.5 C 845.833,511.167 845.833,511.167 844.5,510.5 Z"/></g>
<g><path style="opacity:0.004" fill="#e7c355" d="M 864.5,510.5 C 865.833,511.167 865.833,511.167 864.5,510.5 Z"/></g>
<g><path style="opacity:0.008" fill="#d9b960" d="M 885.5,511.5 C 886.601,510.402 887.934,510.235 889.5,511C 888.207,511.49 886.873,511.657 885.5,511.5 Z"/></g>
<g><path style="opacity:0.004" fill="#a1b3af" d="M 214.5,512.5 C 213.833,511.167 213.833,511.167 214.5,512.5 Z"/></g>
<g><path style="opacity:0.008" fill="#9eb2b4" d="M 204.5,527.5 C 205.833,528.167 205.833,528.167 204.5,527.5 Z"/></g>
<g><path style="opacity:0.004" fill="#a4adad" d="M 403.5,528.5 C 403.897,527.475 404.563,527.308 405.5,528C 404.906,528.464 404.239,528.631 403.5,528.5 Z"/></g>
<g><path style="opacity:0.024" fill="#98a7a9" d="M 576.5,527.5 C 577.833,528.167 577.833,528.167 576.5,527.5 Z"/></g>
<g><path style="opacity:0.012" fill="#9dabac" d="M 580.5,528.5 C 579.833,527.167 579.833,527.167 580.5,528.5 Z"/></g>
<g><path style="opacity:0.008" fill="#9caea8" d="M 406.5,528.5 C 407.833,529.167 407.833,529.167 406.5,528.5 Z"/></g>
<g><path style="opacity:0.016" fill="#92a9b6" d="M 529.5,528.5 C 530.833,529.167 530.833,529.167 529.5,528.5 Z"/></g>
<g><path style="opacity:0.016" fill="#95a3ab" d="M 576.5,528.5 C 575.833,529.167 575.833,529.167 576.5,528.5 Z"/></g>
<g><path style="opacity:0.004" fill="#99a9af" d="M 580.5,528.5 C 581.833,529.167 581.833,529.167 580.5,528.5 Z"/></g>
<g><path style="opacity:0.004" fill="#a7aea3" d="M 643.5,529.5 C 643.897,528.475 644.563,528.308 645.5,529C 644.906,529.464 644.239,529.631 643.5,529.5 Z"/></g>
<g><path style="opacity:0.004" fill="#82a5bd" d="M 435.5,531.5 C 436.833,532.167 436.833,532.167 435.5,531.5 Z"/></g>
<g><path style="opacity:0.004" fill="#7e9fbe" d="M 558.5,531.5 C 559.833,532.167 559.833,532.167 558.5,531.5 Z"/></g>
<g><path style="opacity:0.004" fill="#95afba" d="M 203.5,533.5 C 202.833,532.167 202.833,532.167 203.5,533.5 Z"/></g>
<g><path style="opacity:0.008" fill="#94aab4" d="M 401.5,532.5 C 402.833,533.167 402.833,533.167 401.5,532.5 Z"/></g>
<g><path style="opacity:0.004" fill="#7ca4c1" d="M 435.5,534.5 C 436.833,535.167 436.833,535.167 435.5,534.5 Z"/></g>
<g><path style="opacity:0.004" fill="#81a5be" d="M 588.5,534.5 C 589.833,535.167 589.833,535.167 588.5,534.5 Z"/></g>
<g><path style="opacity:0.98" fill="#4d93d9" d="M 518.5,537.5 C 518.833,539.5 519.167,541.5 519.5,543.5C 517.167,543.5 514.833,543.5 512.5,543.5C 509.911,536.236 504.911,534.07 497.5,537C 490.734,543.81 489.234,551.31 493,559.5C 498.584,565.324 504.75,565.991 511.5,561.5C 514.931,556.583 513.598,554.249 507.5,554.5C 502.112,556.45 500.112,554.45 501.5,548.5C 507.5,548.5 513.5,548.5 519.5,548.5C 519.5,555.833 519.5,563.167 519.5,570.5C 517.011,570.702 514.677,570.202 512.5,569C 513.451,568.282 513.617,567.449 513,566.5C 502.07,573.352 493.07,571.352 486,560.5C 483.79,553.032 484.123,545.699 487,538.5C 492.258,530.967 499.425,528.134 508.5,530C 512.403,531.78 515.737,534.28 518.5,537.5 Z"/></g>
<g><path style="opacity:0.008" fill="#7ca3c3" d="M 518.5,536.5 C 519.833,537.167 519.833,537.167 518.5,536.5 Z"/></g>
<g><path style="opacity:0.008" fill="#78a4c9" d="M 411.5,537.5 C 412.833,538.167 412.833,538.167 411.5,537.5 Z"/></g>
<g><path style="opacity:0.004" fill="#79a4ca" d="M 429.5,537.5 C 430.833,538.167 430.833,538.167 429.5,537.5 Z"/></g>
<g><path style="opacity:0.004" fill="#b5bc9d" d="M 327.5,541.5 C 328.833,542.167 328.833,542.167 327.5,541.5 Z"/></g>
<g><path style="opacity:0.975" fill="#4790da" d="M 404.5,530.5 C 413.5,530.5 422.5,530.5 431.5,530.5C 431.5,532.5 431.5,534.5 431.5,536.5C 424.5,536.5 417.5,536.5 410.5,536.5C 410.5,540.167 410.5,543.833 410.5,547.5C 416.5,547.5 422.5,547.5 428.5,547.5C 428.5,549.167 428.5,550.833 428.5,552.5C 422.167,552.5 415.833,552.5 409.5,552.5C 409.5,556.5 409.5,560.5 409.5,564.5C 416.833,564.5 424.167,564.5 431.5,564.5C 431.675,566.621 431.341,568.621 430.5,570.5C 422.406,569.965 414.406,569.632 406.5,569.5C 404.519,556.876 403.852,543.876 404.5,530.5 Z"/></g>
<g><path style="opacity:0.004" fill="#79a1c4" d="M 483.5,542.5 C 484.833,543.167 484.833,543.167 483.5,542.5 Z"/></g>
<g><path style="opacity:0.008" fill="#71a1cd" d="M 309.5,543.5 C 310.833,544.167 310.833,544.167 309.5,543.5 Z"/></g>
<g><path style="opacity:0.004" fill="#88a9bf" d="M 323.5,544.5 C 324.833,545.167 324.833,545.167 323.5,544.5 Z"/></g>
<g><path style="opacity:0.978" fill="#4b91d8" d="M 532.5,528.5 C 533.467,534.529 533.967,540.529 534,546.5C 539.741,547.475 545.575,547.808 551.5,547.5C 551.5,541.833 551.5,536.167 551.5,530.5C 553.5,530.5 555.5,530.5 557.5,530.5C 557.294,543.452 557.627,555.952 558.5,568C 558.387,569.28 557.72,570.113 556.5,570.5C 555.167,569.167 553.833,569.167 552.5,570.5C 551.505,564.872 551.171,559.206 551.5,553.5C 545.5,553.5 539.5,553.5 533.5,553.5C 533.666,559.176 533.499,564.843 533,570.5C 531.542,569.253 530.042,569.253 528.5,570.5C 527.501,557.183 527.167,543.85 527.5,530.5C 529.781,530.923 531.448,530.256 532.5,528.5 Z"/></g>
<g><path style="opacity:0.004" fill="#88a8bf" d="M 325.5,545.5 C 326.833,546.167 326.833,546.167 325.5,545.5 Z"/></g>
<g><path style="opacity:0.331" fill="#649acf" d="M 443.5,530.5 C 444.495,541.321 444.828,552.321 444.5,563.5C 451.175,563.334 457.842,563.5 464.5,564C 464.616,565.268 464.949,566.602 465.5,568C 464.953,568.925 464.287,569.758 463.5,570.5C 462.893,570.376 462.56,570.043 462.5,569.5C 463.451,568.081 463.784,566.415 463.5,564.5C 456.833,564.5 450.167,564.5 443.5,564.5C 443.5,553.167 443.5,541.833 443.5,530.5 Z"/></g>
<g><path style="opacity:0.008" fill="#b9ba9c" d="M 185.5,546.5 C 186.833,547.167 186.833,547.167 185.5,546.5 Z"/></g>
<g><path style="opacity:0.008" fill="#99adb5" d="M 191.5,546.5 C 192.833,547.167 192.833,547.167 191.5,546.5 Z"/></g>
<g><path style="opacity:0.986" fill="#4a91da" d="M 294.5,477.5 C 294.833,478.167 295.167,478.833 295.5,479.5C 295.5,480.167 295.833,480.5 296.5,480.5C 297.167,480.5 297.5,480.833 297.5,481.5C 299.177,483.54 300.844,485.54 302.5,487.5C 311.127,504.647 314.627,522.647 313,541.5C 309.304,522.926 300.137,507.76 285.5,496C 282.178,493.668 278.511,492.502 274.5,492.5C 263.467,490.258 253.467,492.758 244.5,500C 229.867,513.261 217.867,528.594 208.5,546C 248.7,541.374 289.034,541.874 329.5,547.5C 343.947,550.371 357.614,555.538 370.5,563C 384.39,573.563 385.057,584.896 372.5,597C 354.615,608.854 334.948,616.187 313.5,619C 306.506,619.727 299.506,620.393 292.5,621C 290.598,621.199 289.098,622.033 288,623.5C 286.733,621.576 286.733,619.91 288,618.5C 309.064,617.685 328.564,611.518 346.5,600C 352.988,595.859 355.822,590.025 355,582.5C 354.8,580.68 353.966,579.347 352.5,578.5C 347.827,572.644 341.827,568.477 334.5,566C 306.192,557.227 277.192,552.894 247.5,553C 236.5,552.333 225.5,552.333 214.5,553C 210.975,553.179 207.641,553.679 204.5,554.5C 202.941,556.608 201.608,558.941 200.5,561.5C 226.151,561.458 251.817,563.291 277.5,567C 290.841,569.665 303.174,574.665 314.5,582C 320.423,589.875 319.423,596.875 311.5,603C 301.604,608.966 290.937,612.966 279.5,615C 271.323,616.168 263.157,617.335 255,618.5C 253.775,618.138 252.609,617.638 251.5,617C 260.137,615.513 268.471,613.346 276.5,610.5C 283.735,609.133 289.901,605.799 295,600.5C 297.389,597.401 297.889,594.067 296.5,590.5C 290.643,583.903 283.31,579.903 274.5,578.5C 264.553,574.931 254.22,572.431 243.5,571C 228.228,568.837 212.895,567.837 197.5,568C 189.493,584.684 182.66,601.851 177,619.5C 176.669,615.473 177.002,611.473 178,607.5C 180.88,593.98 184.38,580.647 188.5,567.5C 180.876,568.398 173.209,568.731 165.5,568.5C 163.901,568.768 162.568,568.434 161.5,567.5C 170.67,565.25 180.003,563.75 189.5,563C 191.916,560.842 193.583,558.175 194.5,555C 184.176,555.313 173.843,555.813 163.5,556.5C 161.901,556.768 160.568,556.434 159.5,555.5C 164.854,554.326 170.187,552.826 175.5,551C 182.546,550.326 189.546,549.326 196.5,548C 199.758,543.651 202.091,538.817 203.5,533.5C 207.404,526.372 211.07,519.372 214.5,512.5C 219.821,505.205 225.155,497.871 230.5,490.5C 237.885,482.306 246.551,475.806 256.5,471C 270.55,465.907 283.216,468.074 294.5,477.5 Z"/></g>
<g><path style="opacity:0.008" fill="#73a4d2" d="M 305.5,524.5 C 306.833,525.167 306.833,525.167 305.5,524.5 Z"/></g>
<g><path style="opacity:0.004" fill="#6da1d1" d="M 303.5,520.5 C 304.833,521.167 304.833,521.167 303.5,520.5 Z"/></g>
<g><path style="opacity:0.004" fill="#639fda" d="M 274.5,493.5 C 275.239,493.369 275.906,493.536 276.5,494C 275.563,494.692 274.897,494.525 274.5,493.5 Z"/></g>
<g><path style="opacity:0.016" fill="#619cd8" d="M 274.5,492.5 C 274.5,492.833 274.5,493.167 274.5,493.5C 273.83,493.019 273.83,492.685 274.5,492.5 Z"/></g>
<g><path style="opacity:0.008" fill="#619fdb" d="M 265.5,493.5 C 265.897,492.475 266.563,492.308 267.5,493C 266.906,493.464 266.239,493.631 265.5,493.5 Z"/></g>
<g><path style="opacity:0.008" fill="#94adb4" d="M 329.5,546.5 C 330.833,547.167 330.833,547.167 329.5,546.5 Z"/></g>
<g><path style="opacity:0.004" fill="#6f9fcb" d="M 501.5,547.5 C 501.897,546.475 502.563,546.308 503.5,547C 502.906,547.464 502.239,547.631 501.5,547.5 Z"/></g>
<g><path style="opacity:0.004" fill="#6d9fce" d="M 492.5,547.5 C 493.833,548.167 493.833,548.167 492.5,547.5 Z"/></g>
<g><path style="opacity:0.004" fill="#b4b399" d="M 168.5,549.5 C 168.897,548.475 169.563,548.308 170.5,549C 169.906,549.464 169.239,549.631 168.5,549.5 Z"/></g>
<g><path style="opacity:0.008" fill="#b8b69a" d="M 175.5,549.5 C 175.897,548.475 176.563,548.308 177.5,549C 176.906,549.464 176.239,549.631 175.5,549.5 Z"/></g>
<g><path style="opacity:0.004" fill="#96acb4" d="M 350.5,551.5 C 351.833,552.167 351.833,552.167 350.5,551.5 Z"/></g>
<g><path style="opacity:0.138" fill="#699ed2" d="M 439.5,530.5 C 438.851,537.09 438.518,543.756 438.5,550.5C 438.504,557.204 439.17,563.537 440.5,569.5C 439.151,570.797 437.818,570.63 436.5,569C 436.825,555.869 437.825,543.035 439.5,530.5 Z"/></g>
<g><path style="opacity:0.049" fill="#639bd1" d="M 428.5,547.5 C 429.376,547.369 430.043,547.702 430.5,548.5C 429.835,550.101 429.501,551.601 429.5,553C 423.175,553.5 416.842,553.666 410.5,553.5C 410.5,556.833 410.5,560.167 410.5,563.5C 417.687,563.175 424.687,563.509 431.5,564.5C 424.167,564.5 416.833,564.5 409.5,564.5C 409.5,560.5 409.5,556.5 409.5,552.5C 415.833,552.5 422.167,552.5 428.5,552.5C 428.5,550.833 428.5,549.167 428.5,547.5 Z"/></g>
<g><path style="opacity:0.99" fill="#4c92d8" d="M 580.5,529.5 C 582.022,529.79 583.522,529.79 585,529.5C 589.971,542.746 595.137,555.912 600.5,569C 600.167,569.5 599.833,570 599.5,570.5C 597.412,569.821 595.412,569.488 593.5,569.5C 592.456,566.2 591.123,563.033 589.5,560C 583.843,559.501 578.176,559.334 572.5,559.5C 572.165,563.863 570.499,567.53 567.5,570.5C 565.765,569.943 564.098,569.61 562.5,569.5C 567.569,556.46 572.735,543.46 578,530.5C 578.671,529.748 579.504,529.414 580.5,529.5 Z M 580.5,538.5 C 583.291,542.997 585.624,547.83 587.5,553C 583.5,553.667 579.5,553.667 575.5,553C 577.596,548.309 579.263,543.475 580.5,538.5 Z"/></g>
<g><path style="opacity:0.012" fill="#639fda" d="M 206.5,554.5 C 207.833,555.167 207.833,555.167 206.5,554.5 Z"/></g>
<g><path style="opacity:0.004" fill="#5f9dde" d="M 246.5,554.5 C 247.833,555.167 247.833,555.167 246.5,554.5 Z"/></g>
<g><path style="opacity:0.004" fill="#5f9fde" d="M 258.5,554.5 C 259.833,555.167 259.833,555.167 258.5,554.5 Z"/></g>
<g><path style="opacity:0.012" fill="#91acb9" d="M 357.5,554.5 C 358.833,555.167 358.833,555.167 357.5,554.5 Z"/></g>
<g><path style="opacity:0.004" fill="#689fd3" d="M 422.5,554.5 C 423.833,555.167 423.833,555.167 422.5,554.5 Z"/></g>
<g><path style="opacity:0.008" fill="#629fd9" d="M 204.5,554.5 C 205.525,554.897 205.692,555.563 205,556.5C 204.536,555.906 204.369,555.239 204.5,554.5 Z"/></g>
<g><path style="opacity:0.012" fill="#86aac5" d="M 178.5,556.5 C 179.833,557.167 179.833,557.167 178.5,556.5 Z"/></g>
<g><path style="opacity:0.122" fill="#98abbb" d="M 159.5,555.5 C 160.568,556.434 161.901,556.768 163.5,556.5C 160.013,557.179 156.513,558.179 153,559.5C 151.513,558.747 151.346,557.914 152.5,557C 154.74,556.023 157.073,555.523 159.5,555.5 Z"/></g>
<g><path style="opacity:0.008" fill="#6a9ed2" d="M 411.5,558.5 C 412.833,559.167 412.833,559.167 411.5,558.5 Z"/></g>
<g><path style="opacity:0.987" fill="#4b8fd9" d="M 647.5,530.5 C 648.495,543.323 648.829,556.323 648.5,569.5C 646.833,569.5 645.167,569.5 643.5,569.5C 642.505,556.677 642.171,543.677 642.5,530.5C 644.167,530.5 645.833,530.5 647.5,530.5 Z"/></g>
<g><path style="opacity:0.332" fill="#739cc6" d="M 647.5,530.5 C 647.56,529.957 647.893,529.624 648.5,529.5C 649.499,543.15 649.833,556.817 649.5,570.5C 647.265,570.795 645.265,570.461 643.5,569.5C 645.167,569.5 646.833,569.5 648.5,569.5C 648.829,556.323 648.495,543.323 647.5,530.5 Z"/></g>
<g><path style="opacity:0.004" fill="#5f9ede" d="M 233.5,560.5 C 234.833,561.167 234.833,561.167 233.5,560.5 Z"/></g>
<g><path style="opacity:0.012" fill="#5fa0dc" d="M 235.5,560.5 C 236.833,561.167 236.833,561.167 235.5,560.5 Z"/></g>
<g><path style="opacity:0.004" fill="#60a0db" d="M 238.5,560.5 C 239.833,561.167 239.833,561.167 238.5,560.5 Z"/></g>
<g><path style="opacity:0.239" fill="#6ea0d1" d="M 404.5,530.5 C 403.852,543.876 404.519,556.876 406.5,569.5C 405.791,570.404 404.791,570.737 403.5,570.5C 403.171,556.99 403.504,543.656 404.5,530.5 Z"/></g>
<g><path style="opacity:0.016" fill="#6d9cca" d="M 598.5,560.5 C 599.833,561.167 599.833,561.167 598.5,560.5 Z"/></g>
<g><path style="opacity:0.979" fill="#4e92d9" d="M 622.5,547.5 C 624.563,550.618 626.396,553.952 628,557.5C 628.309,556.234 628.809,555.067 629.5,554C 628.518,546.253 628.185,538.42 628.5,530.5C 630.877,530.216 633.044,530.216 635,530.5C 635.107,543.69 635.274,556.524 635.5,569C 632.203,571.237 629.37,570.737 627,567.5C 622.391,559.074 617.224,551.074 611.5,543.5C 610.92,551.049 610.92,558.716 611.5,566.5C 610.902,567.795 610.402,569.128 610,570.5C 608.467,570.056 606.967,569.723 605.5,569.5C 605.611,558.342 605.445,547.008 605,535.5C 604.691,534.234 604.191,533.067 603.5,532C 606.043,529.648 609.043,529.315 612.5,531C 615.268,536.914 618.601,542.414 622.5,547.5 Z"/></g>
<g><path style="opacity:0.004" fill="#6a9cc8" d="M 612.5,547.5 C 613.833,548.167 613.833,548.167 612.5,547.5 Z"/></g>
<g><path style="opacity:0.004" fill="#6f9bc6" d="M 622.5,546.5 C 623.833,547.167 623.833,547.167 622.5,546.5 Z"/></g>
<g><path style="opacity:0.004" fill="#86a6ba" d="M 626.5,533.5 C 627.833,534.167 627.833,534.167 626.5,533.5 Z"/></g>
<g><path style="opacity:0.004" fill="#639fd9" d="M 320.5,562.5 C 321.833,563.167 321.833,563.167 320.5,562.5 Z"/></g>
<g><path style="opacity:0.02" fill="#7ba3c5" d="M 374.5,564.5 C 375.833,565.167 375.833,565.167 374.5,564.5 Z"/></g>
<g><path style="opacity:0.004" fill="#719eca" d="M 636.5,564.5 C 637.833,565.167 637.833,565.167 636.5,564.5 Z"/></g>
<g><path style="opacity:0.966" fill="#4790d9" d="M 439.5,530.5 C 440.833,530.5 442.167,530.5 443.5,530.5C 443.5,541.833 443.5,553.167 443.5,564.5C 450.167,564.5 456.833,564.5 463.5,564.5C 463.784,566.415 463.451,568.081 462.5,569.5C 455.022,569.754 447.689,569.754 440.5,569.5C 439.17,563.537 438.504,557.204 438.5,550.5C 438.518,543.756 438.851,537.09 439.5,530.5 Z"/></g>
<g><path style="opacity:0.004" fill="#9aaab2" d="M 158.5,568.5 C 157.833,567.167 157.833,567.167 158.5,568.5 Z"/></g>
<g><path style="opacity:0.392" fill="#8ba7c1" d="M 161.5,567.5 C 162.568,568.434 163.901,568.768 165.5,568.5C 163.782,569.224 161.948,569.891 160,570.5C 159.283,569.956 158.783,569.289 158.5,568.5C 159.391,567.89 160.391,567.557 161.5,567.5 Z"/></g>
<g><path style="opacity:0.004" fill="#6d9ecd" d="M 560.5,567.5 C 561.525,567.897 561.692,568.563 561,569.5C 560.536,568.906 560.369,568.239 560.5,567.5 Z"/></g>
<g><path style="opacity:0.008" fill="#729dc8" d="M 640.5,568.5 C 641.833,569.167 641.833,569.167 640.5,568.5 Z"/></g>
<g><path style="opacity:0.004" fill="#65a0d7" d="M 198.5,570.5 C 199.833,571.167 199.833,571.167 198.5,570.5 Z"/></g>
<g><path style="opacity:0.004" fill="#5f9dda" d="M 230.5,570.5 C 231.833,571.167 231.833,571.167 230.5,570.5 Z"/></g>
<g><path style="opacity:0.004" fill="#6e9bca" d="M 430.5,570.5 C 431.833,571.167 431.833,571.167 430.5,570.5 Z"/></g>
<g><path style="opacity:0.004" fill="#6e9ec9" d="M 509.5,570.5 C 510.833,571.167 510.833,571.167 509.5,570.5 Z"/></g>
<g><path style="opacity:0.004" fill="#6e9cc8" d="M 534.5,570.5 C 535.833,571.167 535.833,571.167 534.5,570.5 Z"/></g>
<g><path style="opacity:0.008" fill="#6f9ac9" d="M 558.5,570.5 C 559.833,571.167 559.833,571.167 558.5,570.5 Z"/></g>
<g><path style="opacity:0.004" fill="#6a9cce" d="M 425.5,571.5 C 426.833,572.167 426.833,572.167 425.5,571.5 Z"/></g>
<g><path style="opacity:0.004" fill="#6f9cca" d="M 438.5,571.5 C 439.833,572.167 439.833,572.167 438.5,571.5 Z"/></g>
<g><path style="opacity:0.008" fill="#719ac7" d="M 595.5,571.5 C 596.833,572.167 596.833,572.167 595.5,571.5 Z"/></g>
<g><path style="opacity:0.008" fill="#749ac3" d="M 644.5,571.5 C 645.833,572.167 645.833,572.167 644.5,571.5 Z"/></g>
<g><path style="opacity:0.004" fill="#5f9dda" d="M 251.5,573.5 C 252.833,574.167 252.833,574.167 251.5,573.5 Z"/></g>
<g><path style="opacity:0.012" fill="#70a1cc" d="M 381.5,574.5 C 382.833,575.167 382.833,575.167 381.5,574.5 Z"/></g>
<g><path style="opacity:0.004" fill="#799fbf" d="M 644.5,574.5 C 645.833,575.167 645.833,575.167 644.5,574.5 Z"/></g>
<g><path style="opacity:0.008" fill="#629eda" d="M 274.5,578.5 C 273.833,579.167 273.833,579.167 274.5,578.5 Z"/></g>
<g><path style="opacity:0.008" fill="#679ed3" d="M 352.5,578.5 C 351.833,579.167 351.833,579.167 352.5,578.5 Z"/></g>
<g><path style="opacity:0.012" fill="#659fd5" d="M 352.5,580.5 C 353.833,581.167 353.833,581.167 352.5,580.5 Z"/></g>
<g><path style="opacity:0.004" fill="#67a0d6" d="M 276.5,610.5 C 275.833,609.167 275.833,609.167 276.5,610.5 Z"/></g>
<g><path style="opacity:0.004" fill="#68a0d8" d="M 270.5,610.5 C 271.833,611.167 271.833,611.167 270.5,610.5 Z"/></g>
<g><path style="opacity:0.004" fill="#699fd5" d="M 291.5,616.5 C 292.833,617.167 292.833,617.167 291.5,616.5 Z"/></g>
<g><path style="opacity:0.004" fill="#71a0ce" d="M 258.5,619.5 C 258.897,618.475 259.563,618.308 260.5,619C 259.906,619.464 259.239,619.631 258.5,619.5 Z"/></g>
<g><path style="opacity:0.012" fill="#72a0d1" d="M 262.5,618.5 C 263.833,619.167 263.833,619.167 262.5,618.5 Z"/></g>
<g><path style="opacity:0.004" fill="#6a9ed2" d="M 316.5,619.5 C 317.833,620.167 317.833,620.167 316.5,619.5 Z"/></g>
<g><path style="opacity:0.008" fill="#6a9cce" d="M 304.5,620.5 C 305.833,621.167 305.833,621.167 304.5,620.5 Z"/></g>
<g><path style="opacity:0.008" fill="#6a9fd1" d="M 306.5,620.5 C 307.833,621.167 307.833,621.167 306.5,620.5 Z"/></g>
<g><path style="opacity:0.008" fill="#6a9dd2" d="M 310.5,620.5 C 311.833,621.167 311.833,621.167 310.5,620.5 Z"/></g>
<g><path style="opacity:0.004" fill="#72a0cf" d="M 259.5,621.5 C 260.833,622.167 260.833,622.167 259.5,621.5 Z"/></g>
<g><path style="opacity:0.004" fill="#6ba0d1" d="M 297.5,621.5 C 298.833,622.167 298.833,622.167 297.5,621.5 Z"/></g>
<g><path style="opacity:0.012" fill="#6e9dcd" d="M 292.5,622.5 C 293.833,623.167 293.833,623.167 292.5,622.5 Z"/></g>
<g><path style="opacity:0.004" fill="#6e9dcc" d="M 294.5,622.5 C 295.833,623.167 295.833,623.167 294.5,622.5 Z"/></g>
<g><path style="opacity:0.004" fill="#888a8a" d="M 307.5,933.5 C 308.833,934.167 308.833,934.167 307.5,933.5 Z"/></g>
<g><path style="opacity:0.322" fill="#a4a4a4" d="M 964.5,979.5 C 969.179,979.334 973.845,979.501 978.5,980C 979.931,980.465 981.097,981.299 982,982.5C 982.483,981.552 982.649,980.552 982.5,979.5C 989.5,979.5 996.5,979.5 1003.5,979.5C 1003.5,981.167 1003.5,982.833 1003.5,984.5C 1001.17,984.5 998.833,984.5 996.5,984.5C 996.666,990.509 996.499,996.509 996,1002.5C 994.301,1003.41 992.467,1003.74 990.5,1003.5C 990.5,997.167 990.5,990.833 990.5,984.5C 988.167,984.5 985.833,984.5 983.5,984.5C 983.93,987.862 982.93,990.695 980.5,993C 976.974,994.337 973.308,994.837 969.5,994.5C 969.5,997.5 969.5,1000.5 969.5,1003.5C 967.533,1003.74 965.699,1003.41 964,1002.5C 963.233,994.785 963.4,987.118 964.5,979.5 Z M 969.5,984.5 C 972.681,984.002 975.347,984.835 977.5,987C 975.347,989.165 972.681,989.998 969.5,989.5C 969.5,987.833 969.5,986.167 969.5,984.5 Z"/></g>
<g><path style="opacity:0.349" fill="#a6a6a7" d="M 890.5,979.5 C 892.5,979.5 894.5,979.5 896.5,979.5C 896.337,981.857 896.503,984.19 897,986.5C 902.292,984.166 905.625,985.833 907,991.5C 907.667,995.167 907.667,998.833 907,1002.5C 905.301,1003.41 903.467,1003.74 901.5,1003.5C 901.666,999.486 901.499,995.486 901,991.5C 899.667,990.167 898.333,990.167 897,991.5C 896.501,995.486 896.334,999.486 896.5,1003.5C 894.533,1003.74 892.699,1003.41 891,1002.5C 890.5,994.841 890.334,987.174 890.5,979.5 Z"/></g>
<g><path style="opacity:0.349" fill="#a8a8a9" d="M 945.5,979.5 C 948.85,979.335 952.183,979.502 955.5,980C 959.062,981.308 961.062,983.808 961.5,987.5C 958.475,987.769 955.808,986.936 953.5,985C 945.668,984.179 942.835,987.679 945,995.5C 948.918,999.461 952.751,999.461 956.5,995.5C 954.604,994.534 952.604,994.201 950.5,994.5C 950.5,992.833 950.5,991.167 950.5,989.5C 953.909,989.249 957.242,989.583 960.5,990.5C 961.492,994.783 961.826,999.116 961.5,1003.5C 959.234,1003.86 957.401,1003.19 956,1001.5C 943.544,1005.39 937.877,1000.72 939,987.5C 940.305,984.039 942.471,981.372 945.5,979.5 Z"/></g>
<g><path style="opacity:0.349" fill="#a6a6a6" d="M 872.5,979.5 C 878.403,978.488 883.57,979.821 888,983.5C 890.628,986.531 889.961,988.198 886,988.5C 884.077,987.508 882.244,986.341 880.5,985C 872.648,984.491 870.148,987.991 873,995.5C 876.645,999.516 880.145,999.35 883.5,995C 885.579,994.192 887.579,994.359 889.5,995.5C 885.756,1003.41 879.756,1005.58 871.5,1002C 866.787,997.904 865.287,992.737 867,986.5C 867.938,983.402 869.772,981.069 872.5,979.5 Z"/></g>
<g><path style="opacity:0.294" fill="#a2a2a2" d="M 928.5,980.5 C 930.167,980.5 931.833,980.5 933.5,980.5C 933.5,982.167 933.5,983.833 933.5,985.5C 934.833,985.5 936.167,985.5 937.5,985.5C 937.5,987.167 937.5,988.833 937.5,990.5C 936.167,990.5 934.833,990.5 933.5,990.5C 933.5,993.167 933.5,995.833 933.5,998.5C 934.833,998.5 936.167,998.5 937.5,998.5C 937.5,1000.17 937.5,1001.83 937.5,1003.5C 928.729,1003.69 925.396,999.358 927.5,990.5C 926.5,990.5 925.5,990.5 924.5,990.5C 924.207,994.437 924.54,998.27 925.5,1002C 924.57,1002.99 923.404,1003.49 922,1003.5C 918.195,1003.43 914.361,1003.09 910.5,1002.5C 907.632,999.005 907.965,995.838 911.5,993C 910.09,992.632 909.09,991.799 908.5,990.5C 912.043,985.297 916.71,984.13 922.5,987C 923.126,987.75 923.626,988.584 924,989.5C 926.01,986.813 927.51,983.813 928.5,980.5 Z M 914.5,996.5 C 918.701,996.442 919.201,997.442 916,999.5C 913.842,998.95 913.342,997.95 914.5,996.5 Z M 914.5,990.5 C 919.696,990.565 919.696,991.232 914.5,992.5C 913.537,992.03 913.537,991.363 914.5,990.5 Z"/></g>
</svg>
