<?xml version="1.0" encoding="UTF-8"?>
<!DOCTYPE svg PUBLIC "-//W3C//DTD SVG 1.1//EN" "http://www.w3.org/Graphics/SVG/1.1/DTD/svg11.dtd">
<svg xmlns="http://www.w3.org/2000/svg" version="1.1" width="200px" height="200px" style="shape-rendering:geometricPrecision; text-rendering:geometricPrecision; image-rendering:optimizeQuality; fill-rule:evenodd; clip-rule:evenodd" xmlns:xlink="http://www.w3.org/1999/xlink">
<g><path style="opacity:1" fill="#fdfefe" d="M -0.5,-0.5 C 66.1667,-0.5 132.833,-0.5 199.5,-0.5C 199.5,66.1667 199.5,132.833 199.5,199.5C 132.833,199.5 66.1667,199.5 -0.5,199.5C -0.5,132.833 -0.5,66.1667 -0.5,-0.5 Z"/></g>
<g><path style="opacity:1" fill="#559ce3" d="M 18.5,93.5 C 17.5,93.5 16.5,93.5 15.5,93.5C 12.0521,90.4358 10.3854,86.7692 10.5,82.5C 22.8378,76.6643 35.1712,70.831 47.5,65C 52.1667,64.3333 56.8333,64.3333 61.5,65C 48.8214,77.0053 34.488,86.5053 18.5,93.5 Z"/></g>
<g><path style="opacity:1" fill="#3e60a0" d="M 92.5,83.5 C 93.7498,83.5774 94.5831,84.244 95,85.5C 95.7056,89.3253 96.8723,92.9919 98.5,96.5C 98.1667,96.8333 97.8333,97.1667 97.5,97.5C 96.6143,96.675 96.281,95.675 96.5,94.5C 93.3479,94.0471 90.8479,95.0471 89,97.5C 89.228,92.6397 90.3947,87.973 92.5,83.5 Z"/></g>
<g><path style="opacity:1" fill="#4e70aa" d="M 120.5,87.5 C 119.833,89.5 119.167,91.5 118.5,93.5C 118.663,91.1432 118.497,88.8098 118,86.5C 116.644,85.6198 115.144,85.2865 113.5,85.5C 112.498,88.7225 112.165,92.7225 112.5,97.5C 111.514,93.03 111.181,88.3633 111.5,83.5C 115.621,82.6581 118.621,83.9915 120.5,87.5 Z"/></g>
<g><path style="opacity:1" fill="#ebf0f4" d="M 113.5,85.5 C 115.144,85.2865 116.644,85.6198 118,86.5C 118.497,88.8098 118.663,91.1432 118.5,93.5C 117.952,96.0838 116.285,97.0838 113.5,96.5C 113.5,92.8333 113.5,89.1667 113.5,85.5 Z"/></g>
<g><path style="opacity:1" fill="#36589d" d="M 143.5,83.5 C 145.164,84.9488 145.998,86.9488 146,89.5C 147.308,87.3586 148.808,85.3586 150.5,83.5C 150.833,83.8333 151.167,84.1667 151.5,84.5C 150.112,86.109 149.112,87.9423 148.5,90C 149.827,92.453 150.661,94.953 151,97.5C 149.49,95.7923 147.99,94.1256 146.5,92.5C 145.833,94.5 145.167,96.5 144.5,98.5C 143.506,93.544 143.173,88.544 143.5,83.5 Z"/></g>
<g><path style="opacity:1" fill="#7e93c0" d="M 176.5,83.5 C 177.5,83.5 178.5,83.5 179.5,83.5C 179.5,88.5 179.5,93.5 179.5,98.5C 178.5,98.5 177.5,98.5 176.5,98.5C 176.5,93.5 176.5,88.5 176.5,83.5 Z"/></g>
<g><path style="opacity:1" fill="#ace16e" d="M 58.5,93.5 C 58.2089,94.6491 57.3756,95.3158 56,95.5C 52.5318,96.5807 49.0318,97.0807 45.5,97C 46.6956,96.3457 46.6956,95.8457 45.5,95.5C 44.4777,95.8555 43.811,96.5222 43.5,97.5C 43.1667,97.5 42.8333,97.5 42.5,97.5C 43.6804,93.6309 44.6804,89.6309 45.5,85.5C 49.8466,88.2713 54.18,90.938 58.5,93.5 Z"/></g>
<g><path style="opacity:1" fill="#36579c" d="M 182.5,83.5 C 183.376,83.3691 184.043,83.7025 184.5,84.5C 185.961,87.3819 187.127,90.3819 188,93.5C 189.583,91.0887 190.583,88.422 191,85.5C 191.689,84.6433 192.522,83.9767 193.5,83.5C 194.833,88.5 194.833,93.5 193.5,98.5C 192.679,95.5535 192.179,92.5535 192,89.5C 190.928,92.2179 189.762,94.8845 188.5,97.5C 186.673,95.5128 185.673,93.1795 185.5,90.5C 185.013,89.5266 184.513,88.5266 184,87.5C 183.667,90.8333 183.333,94.1667 183,97.5C 182.501,92.8452 182.334,88.1785 182.5,83.5 Z"/></g>
<g><path style="opacity:1" fill="#a0b3d4" d="M 182.5,83.5 C 182.334,88.1785 182.501,92.8452 183,97.5C 183.333,94.1667 183.667,90.8333 184,87.5C 184.513,88.5266 185.013,89.5266 185.5,90.5C 184.527,92.9479 184.194,95.6146 184.5,98.5C 183.5,98.5 182.5,98.5 181.5,98.5C 181.179,93.3054 181.513,88.3054 182.5,83.5 Z"/></g>
<g><path style="opacity:1" fill="#365b9d" d="M 166.5,83.5 C 173.997,82.8038 175.997,85.6372 172.5,92C 173.26,93.4411 173.926,94.9411 174.5,96.5C 173.833,97.8333 173.167,97.8333 172.5,96.5C 171.754,95.2638 171.421,93.9305 171.5,92.5C 170.5,92.5 169.5,92.5 168.5,92.5C 167.698,93.9516 167.198,95.6183 167,97.5C 166.501,92.8452 166.334,88.1785 166.5,83.5 Z"/></g>
<g><path style="opacity:1" fill="#f5f6f9" d="M 168.5,85.5 C 169.833,85.5 171.167,85.5 172.5,85.5C 173.244,88.9496 171.91,90.6162 168.5,90.5C 168.5,88.8333 168.5,87.1667 168.5,85.5 Z"/></g>
<g><path style="opacity:1" fill="#d9e1ed" d="M 92.5,87.5 C 93.9313,88.7804 94.5979,90.4471 94.5,92.5C 93.5,92.5 92.5,92.5 91.5,92.5C 91.6287,90.7839 91.962,89.1172 92.5,87.5 Z"/></g>
<g><path style="opacity:1" fill="#154494" d="M 40.5,89.5 C 40.5,91.1667 40.5,92.8333 40.5,94.5C 38.8333,94.5 37.1667,94.5 35.5,94.5C 33.8523,93.1902 32.1856,91.8569 30.5,90.5C 33.6896,87.1228 37.0229,86.7895 40.5,89.5 Z"/></g>
<g><path style="opacity:1" fill="#3b63a1" d="M 123.5,83.5 C 126.247,83.1866 128.914,83.52 131.5,84.5C 129.604,85.4656 127.604,85.7989 125.5,85.5C 125.5,86.8333 125.5,88.1667 125.5,89.5C 132.167,90.1667 132.167,90.8333 125.5,91.5C 125.5,93.1667 125.5,94.8333 125.5,96.5C 127.604,96.2011 129.604,96.5344 131.5,97.5C 128.914,98.48 126.247,98.8134 123.5,98.5C 123.5,93.5 123.5,88.5 123.5,83.5 Z"/></g>
<g><path style="opacity:1" fill="#a5bcd5" d="M 166.5,83.5 C 166.334,88.1785 166.501,92.8452 167,97.5C 167.198,95.6183 167.698,93.9516 168.5,92.5C 168.5,94.5 168.5,96.5 168.5,98.5C 167.5,98.5 166.5,98.5 165.5,98.5C 165.179,93.3054 165.513,88.3054 166.5,83.5 Z"/></g>
<g><path style="opacity:1" fill="#2c519b" d="M 113.5,85.5 C 113.5,89.1667 113.5,92.8333 113.5,96.5C 116.285,97.0838 117.952,96.0838 118.5,93.5C 119.167,91.5 119.833,89.5 120.5,87.5C 120.664,90.1873 120.497,92.854 120,95.5C 117.817,98.1701 115.317,98.8368 112.5,97.5C 112.165,92.7225 112.498,88.7225 113.5,85.5 Z"/></g>
<g><path style="opacity:1" fill="#3c60a2" d="M 157.5,83.5 C 158.496,83.4142 159.329,83.7476 160,84.5C 161.268,88.1359 162.434,91.8026 163.5,95.5C 163.167,96.1667 162.833,96.8333 162.5,97.5C 161.614,96.675 161.281,95.675 161.5,94.5C 159.5,94.5 157.5,94.5 155.5,94.5C 155.719,95.675 155.386,96.675 154.5,97.5C 154.167,97.1667 153.833,96.8333 153.5,96.5C 155.242,92.2754 156.575,87.942 157.5,83.5 Z"/></g>
<g><path style="opacity:1" fill="#e2e9f1" d="M 158.5,87.5 C 159.339,88.6412 160.006,89.9745 160.5,91.5C 159.675,92.3857 158.675,92.719 157.5,92.5C 157.366,90.7085 157.699,89.0418 158.5,87.5 Z"/></g>
<g><path style="opacity:1" fill="#5277ae" d="M 108.5,85.5 C 107.833,86.5 107.167,87.5 106.5,88.5C 106.5,87.5 106.5,86.5 106.5,85.5C 105.167,85.5 103.833,85.5 102.5,85.5C 101.498,88.7225 101.165,92.7225 101.5,97.5C 103.167,97.5 104.833,97.5 106.5,97.5C 104.735,98.4614 102.735,98.7947 100.5,98.5C 100.5,93.5 100.5,88.5 100.5,83.5C 102.857,83.3367 105.19,83.5034 107.5,84C 108.056,84.3826 108.389,84.8826 108.5,85.5 Z"/></g>
<g><path style="opacity:1" fill="#1e4c96" d="M 102.5,85.5 C 102.5,86.8333 102.5,88.1667 102.5,89.5C 104.099,89.7678 105.432,89.4345 106.5,88.5C 107.167,87.5 107.833,86.5 108.5,85.5C 107.617,88.3837 107.617,91.217 108.5,94C 108.613,95.6991 107.947,96.8658 106.5,97.5C 104.833,97.5 103.167,97.5 101.5,97.5C 101.165,92.7225 101.498,88.7225 102.5,85.5 Z"/></g>
<g><path style="opacity:1" fill="#edf3f6" d="M 102.5,85.5 C 103.833,85.5 105.167,85.5 106.5,85.5C 106.5,86.5 106.5,87.5 106.5,88.5C 105.432,89.4345 104.099,89.7678 102.5,89.5C 102.5,88.1667 102.5,86.8333 102.5,85.5 Z"/></g>
<g><path style="opacity:1" fill="#e5ebf1" d="M 102.5,91.5 C 106.676,90.8307 108.009,92.3307 106.5,96C 105.207,96.49 103.873,96.6567 102.5,96.5C 102.5,94.8333 102.5,93.1667 102.5,91.5 Z"/></g>
<g><path style="opacity:1" fill="#3666a8" d="M 42.5,97.5 C 42.8333,97.5 43.1667,97.5 43.5,97.5C 43.5674,98.9587 43.2341,100.292 42.5,101.5C 41.8333,101.5 41.1667,101.5 40.5,101.5C 40.0679,100.29 39.4013,99.2905 38.5,98.5C 36.7706,97.7638 35.7706,96.4305 35.5,94.5C 37.1667,94.5 38.8333,94.5 40.5,94.5C 40.5,92.8333 40.5,91.1667 40.5,89.5C 41.3671,90.8874 42.0338,93.5541 42.5,97.5 Z"/></g>
<g><path style="opacity:1" fill="#547682" d="M 59.5,94.5 C 60.4916,94.3284 61.1583,94.6618 61.5,95.5C 61.1583,96.3382 60.4916,96.6716 59.5,96.5C 59.5,95.8333 59.5,95.1667 59.5,94.5 Z"/></g>
<g><path style="opacity:1" fill="#2aaacf" d="M 10.5,82.5 C 10.3854,86.7692 12.0521,90.4358 15.5,93.5C 12.1925,96.7948 8.5258,99.7948 4.5,102.5C 4.3336,94.16 4.50027,85.8267 5,77.5C 6.07568,80.079 7.90902,81.7457 10.5,82.5 Z"/></g>
<g><path style="opacity:1" fill="#3a60a1" d="M 133.5,83.5 C 135.43,87.3727 136.097,91.706 135.5,96.5C 137.604,96.2011 139.604,96.5344 141.5,97.5C 138.914,98.48 136.247,98.8134 133.5,98.5C 133.5,93.5 133.5,88.5 133.5,83.5 Z"/></g>
<g><path style="opacity:1" fill="#8fc273" d="M 58.5,93.5 C 59.1667,93.5 59.5,93.8333 59.5,94.5C 59.5,95.1667 59.5,95.8333 59.5,96.5C 54.3339,96.9665 49.3339,98.1331 44.5,100C 46.854,102.69 46.1873,103.19 42.5,101.5C 43.2341,100.292 43.5674,98.9587 43.5,97.5C 43.811,96.5222 44.4777,95.8555 45.5,95.5C 46.6956,95.8457 46.6956,96.3457 45.5,97C 49.0318,97.0807 52.5318,96.5807 56,95.5C 57.3756,95.3158 58.2089,94.6491 58.5,93.5 Z"/></g>
<g><path style="opacity:1" fill="#a3b1d2" d="M 38.5,98.5 C 39.4013,99.2905 40.0679,100.29 40.5,101.5C 37.5536,102.489 34.8869,103.822 32.5,105.5C 32.5,104.5 32.5,103.5 32.5,102.5C 35.6082,102.625 37.6082,101.292 38.5,98.5 Z"/></g>
<g><path style="opacity:1" fill="#b0e768" d="M 61.5,95.5 C 65.4256,97.4738 69.4256,99.1405 73.5,100.5C 74.4491,105.74 74.7825,111.073 74.5,116.5C 74.5,116.833 74.5,117.167 74.5,117.5C 67.8627,118.276 61.1961,118.609 54.5,118.5C 54.1667,118.5 53.8333,118.5 53.5,118.5C 49.4349,113.099 45.7682,107.433 42.5,101.5C 46.1873,103.19 46.854,102.69 44.5,100C 49.3339,98.1331 54.3339,96.9665 59.5,96.5C 60.4916,96.6716 61.1583,96.3382 61.5,95.5 Z"/></g>
<g><path style="opacity:1" fill="#e3f7cb" d="M 73.5,100.5 C 74.8117,102.743 75.4783,105.41 75.5,108.5C 75.4975,111.355 75.1641,114.022 74.5,116.5C 74.7825,111.073 74.4491,105.74 73.5,100.5 Z"/></g>
<g><path style="opacity:1" fill="#81b07a" d="M 51.5,106.5 C 53.1252,105.675 54.7918,106.008 56.5,107.5C 54.8084,108.201 53.1417,107.867 51.5,106.5 Z"/></g>
<g><path style="opacity:1" fill="#58acec" d="M 15.5,93.5 C 16.5,93.5 17.5,93.5 18.5,93.5C 17.2613,94.212 16.7613,95.212 17,96.5C 19.6499,100.975 22.8166,104.975 26.5,108.5C 26.4606,109.583 26.1272,110.583 25.5,111.5C 26.6016,112.176 27.6016,112.842 28.5,113.5C 26.0733,113.477 23.74,112.977 21.5,112C 15.9273,108.872 10.2607,106.038 4.5,103.5C 4.5,103.167 4.5,102.833 4.5,102.5C 8.5258,99.7948 12.1925,96.7948 15.5,93.5 Z"/></g>
<g><path style="opacity:1" fill="#89a1c6" d="M 152.5,109.5 C 151.2,111.223 150.533,113.39 150.5,116C 150.667,118.167 150.833,120.333 151,122.5C 151.021,118.36 151.521,115.693 152.5,114.5C 152.5,117.5 152.5,120.5 152.5,123.5C 151.5,123.5 150.5,123.5 149.5,123.5C 149.5,118.5 149.5,113.5 149.5,108.5C 150.791,108.263 151.791,108.596 152.5,109.5 Z"/></g>
<g><path style="opacity:1" fill="#4569a8" d="M 88.5,108.5 C 91.2469,108.187 93.9135,108.52 96.5,109.5C 94.604,110.466 92.604,110.799 90.5,110.5C 90.5,111.833 90.5,113.167 90.5,114.5C 97.1667,115.167 97.1667,115.833 90.5,116.5C 90.5,118.167 90.5,119.833 90.5,121.5C 92.604,121.201 94.604,121.534 96.5,122.5C 93.9135,123.48 91.2469,123.813 88.5,123.5C 88.5,118.5 88.5,113.5 88.5,108.5 Z"/></g>
<g><path style="opacity:1" fill="#6177ad" d="M 44.5,110.5 C 46.337,110.639 46.6704,111.306 45.5,112.5C 44.7025,112.043 44.3691,111.376 44.5,110.5 Z"/></g>
<g><path style="opacity:1" fill="#3c64a4" d="M 162.5,108.5 C 163.809,110.571 164.475,113.071 164.5,116C 164.167,118.5 163.833,121 163.5,123.5C 162.506,118.544 162.173,113.544 162.5,108.5 Z"/></g>
<g><path style="opacity:1" fill="#3b5c9e" d="M 115.5,108.5 C 117.467,108.261 119.301,108.594 121,109.5C 121.789,112.287 121.289,112.787 119.5,111C 115.518,109.813 113.851,111.313 114.5,115.5C 113.854,120.171 115.854,122.171 120.5,121.5C 120.773,119.549 120.107,118.049 118.5,117C 119.793,116.51 121.127,116.343 122.5,116.5C 122.669,123.486 119.836,125.153 114,121.5C 111.639,116.729 112.139,112.396 115.5,108.5 Z"/></g>
<g><path style="opacity:1" fill="#6184b7" d="M 100.5,109.5 C 99.5151,113.634 99.1818,117.968 99.5,122.5C 101.735,122.795 103.735,122.461 105.5,121.5C 106.043,121.56 106.376,121.893 106.5,122.5C 103.914,123.48 101.247,123.813 98.5,123.5C 98.1725,118.456 98.5059,113.456 99.5,108.5C 100.107,108.624 100.44,108.957 100.5,109.5 Z"/></g>
<g><path style="opacity:1" fill="#264b95" d="M 132.5,114.5 C 133.302,113.048 133.802,111.382 134,109.5C 134.667,113.833 134.667,118.167 134,122.5C 133.809,120.292 133.309,118.292 132.5,116.5C 130.833,116.5 129.167,116.5 127.5,116.5C 127.808,118.924 127.474,121.257 126.5,123.5C 125.001,115.652 125.001,112.652 126.5,114.5C 128.5,114.5 130.5,114.5 132.5,114.5 Z"/></g>
<g><path style="opacity:1" fill="#174590" d="M 100.5,109.5 C 100.5,113.5 100.5,117.5 100.5,121.5C 102.167,121.5 103.833,121.5 105.5,121.5C 103.735,122.461 101.735,122.795 99.5,122.5C 99.1818,117.968 99.5151,113.634 100.5,109.5 Z"/></g>
<g><path style="opacity:1" fill="#2667b4" d="M 4.5,103.5 C 10.2607,106.038 15.9273,108.872 21.5,112C 23.74,112.977 26.0733,113.477 28.5,113.5C 30.4887,116.806 32.4887,120.139 34.5,123.5C 28.8076,122.628 23.141,121.628 17.5,120.5C 16.1927,116.546 13.5261,115.546 9.5,117.5C 7.84428,114.982 6.51095,114.982 5.5,117.5C 4.51388,113.03 4.18054,108.363 4.5,103.5 Z"/></g>
<g><path style="opacity:1" fill="#9bb1d1" d="M 132.5,116.5 C 133.309,118.292 133.809,120.292 134,122.5C 134.667,118.167 134.667,113.833 134,109.5C 133.802,111.382 133.302,113.048 132.5,114.5C 132.5,112.5 132.5,110.5 132.5,108.5C 133.5,108.5 134.5,108.5 135.5,108.5C 135.5,113.5 135.5,118.5 135.5,123.5C 134.5,123.5 133.5,123.5 132.5,123.5C 132.5,121.167 132.5,118.833 132.5,116.5 Z"/></g>
<g><path style="opacity:1" fill="#395d9d" d="M 141.5,108.5 C 142.75,108.577 143.583,109.244 144,110.5C 145.854,114.708 146.854,119.041 147,123.5C 145.812,122.437 145.312,121.103 145.5,119.5C 143.5,119.5 141.5,119.5 139.5,119.5C 139.688,121.103 139.188,122.437 138,123.5C 137.833,123 137.667,122.5 137.5,122C 138.743,117.441 140.076,112.941 141.5,108.5 Z"/></g>
<g><path style="opacity:1" fill="#d8e3ef" d="M 141.5,112.5 C 143.085,113.474 144.085,114.974 144.5,117C 143.167,117.667 141.833,117.667 140.5,117C 141.38,115.644 141.714,114.144 141.5,112.5 Z"/></g>
<g><path style="opacity:1" fill="#31579c" d="M 152.5,114.5 C 151.521,115.693 151.021,118.36 151,122.5C 150.833,120.333 150.667,118.167 150.5,116C 150.533,113.39 151.2,111.223 152.5,109.5C 153.987,112.473 155.487,115.473 157,118.5C 157.176,115.118 157.676,111.785 158.5,108.5C 159.833,113.5 159.833,118.5 158.5,123.5C 156.441,120.459 154.441,117.459 152.5,114.5 Z"/></g>
<g><path style="opacity:1" fill="#68d6f7" d="M 53.5,118.5 C 53.8333,118.5 54.1667,118.5 54.5,118.5C 56.8197,121.484 59.8197,123.151 63.5,123.5C 57.9372,123.699 52.6039,124.699 47.5,126.5C 43.0068,126.112 38.6734,125.112 34.5,123.5C 32.4887,120.139 30.4887,116.806 28.5,113.5C 27.6016,112.842 26.6016,112.176 25.5,111.5C 26.1272,110.583 26.4606,109.583 26.5,108.5C 29.1386,110.156 31.8053,111.822 34.5,113.5C 36,111.167 37.5,108.833 39,106.5C 38.8509,108.813 38.3509,111.147 37.5,113.5C 37.8333,114.167 38.1667,114.833 38.5,115.5C 43.309,117.331 48.309,118.331 53.5,118.5 Z"/></g>
<g><path style="opacity:1" fill="#64dfe5" d="M 74.5,117.5 C 74.5,121.5 74.5,125.5 74.5,129.5C 70.6701,127.753 67.0034,125.753 63.5,123.5C 59.8197,123.151 56.8197,121.484 54.5,118.5C 61.1961,118.609 67.8627,118.276 74.5,117.5 Z"/></g>
<g><path style="opacity:1" fill="#0d3d90" d="M 34.5,123.5 C 38.6734,125.112 43.0068,126.112 47.5,126.5C 53.3216,128.977 59.3216,130.977 65.5,132.5C 64.7109,132.783 64.0442,133.283 63.5,134C 57.8333,134.667 52.1667,134.667 46.5,134C 44.6665,130.503 41.8332,128.336 38,127.5C 34.918,127.748 33.418,129.415 33.5,132.5C 34.675,132.281 35.675,132.614 36.5,133.5C 31.533,134.662 26.533,134.829 21.5,134C 16.0186,128.685 10.6853,123.185 5.5,117.5C 6.51095,114.982 7.84428,114.982 9.5,117.5C 13.5261,115.546 16.1927,116.546 17.5,120.5C 23.141,121.628 28.8076,122.628 34.5,123.5 Z"/></g>
<g><path style="opacity:1" fill="#3fb4e5" d="M 63.5,123.5 C 67.0034,125.753 70.6701,127.753 74.5,129.5C 74.7852,131.288 74.4519,132.955 73.5,134.5C 70.9044,133.518 68.2377,132.851 65.5,132.5C 59.3216,130.977 53.3216,128.977 47.5,126.5C 52.6039,124.699 57.9372,123.699 63.5,123.5 Z"/></g>
</svg>
