<svg version="1.1" id="Layer_1" xmlns="http://www.w3.org/2000/svg" xmlns:xlink="http://www.w3.org/1999/xlink" x="0px" y="0px"
	 width="100%" viewBox="0 0 1024 1024" enable-background="new 0 0 1024 1024" xml:space="preserve">
<path fill="#00FFFFFF" opacity="1.000000" stroke="none" 
	d="
M476.000000,1025.000000 
	C317.333344,1025.000000 159.166672,1025.000000 1.000000,1025.000000 
	C1.000000,683.666687 1.000000,342.333344 1.000000,1.000000 
	C342.333344,1.000000 683.666687,1.000000 1025.000000,1.000000 
	C1025.000000,342.333344 1025.000000,683.666687 1025.000000,1025.000000 
	C842.166687,1025.000000 659.333313,1025.000000 476.000000,1025.000000 
M578.313660,394.051483 
	C591.812439,405.073761 603.297424,417.871796 611.599487,433.240723 
	C626.919861,461.601837 633.083618,492.297943 633.935120,524.233459 
	C634.170166,533.047852 633.970825,541.873901 633.970825,549.721436 
	C660.385559,552.944885 685.737366,558.989502 711.928345,566.864624 
	C713.630676,556.062622 715.968628,545.434998 716.812195,534.690063 
	C717.653381,523.974976 717.384888,513.124329 716.886902,502.366241 
	C716.393494,491.706299 715.218689,481.062683 713.967163,470.456207 
	C711.481567,449.391815 704.997192,429.481720 696.057190,410.309998 
	C684.737915,386.035889 669.731384,364.480682 649.893555,346.317352 
	C636.289734,333.861877 622.021118,322.540283 604.826782,315.302155 
	C598.744446,312.741791 593.102112,309.134064 587.014893,306.587830 
	C581.081116,304.105774 574.897034,302.159576 568.714905,300.345886 
	C552.250977,295.515594 535.385620,292.508118 518.268311,292.149475 
	C506.457764,291.901947 494.618774,293.703339 482.780151,293.923218 
	C469.255585,294.174347 456.306671,297.359497 443.601257,301.249969 
	C411.886993,310.961060 383.994324,327.554718 360.122559,350.547211 
	C352.300598,358.081024 345.379578,366.610718 338.515961,375.066040 
	C325.562195,391.023804 315.810699,408.979523 308.102020,427.916931 
	C297.835022,453.139069 293.589996,479.794769 292.158997,506.810699 
	C291.487091,519.496277 292.448486,532.293152 293.133423,545.014648 
	C293.446045,550.821228 294.895325,556.565063 295.801056,562.341797 
	C296.267120,565.314392 297.043640,566.211609 300.684540,565.295410 
	C312.147919,562.410706 323.797180,560.239929 335.414093,557.998230 
	C343.572449,556.424011 344.005096,556.171631 345.989746,547.740417 
	C346.171906,546.966614 346.614990,546.257996 346.874237,545.497803 
	C354.950836,521.810242 364.588287,498.799988 376.638458,476.835083 
	C380.200623,470.342010 383.302124,463.537201 387.441559,457.436218 
	C391.675934,451.195312 396.709991,445.448914 401.776947,439.831482 
	C410.882660,429.736511 419.932312,419.550629 429.631195,410.040985 
	C442.604370,397.320953 457.745178,387.760315 474.716583,380.989716 
	C492.722687,373.806427 511.125610,371.290955 530.369629,373.893097 
	C548.007568,376.278076 563.521790,383.330719 578.313660,394.051483 
M536.892151,452.490265 
	C550.427917,457.671204 561.886475,465.693634 571.273560,476.828430 
	C587.780518,496.408783 598.900085,518.458008 602.988403,543.883179 
	C603.100037,544.577454 603.831238,545.172119 604.897156,546.717102 
	C605.401550,544.385864 606.032043,542.913513 605.977173,541.467163 
	C605.777344,536.203125 605.374939,530.945923 604.999695,525.689636 
	C604.330872,516.321289 604.351501,506.832520 602.787903,497.613892 
	C599.374146,477.485748 594.091431,457.900604 583.157837,440.235443 
	C575.506287,427.873016 565.793030,417.589722 553.530640,409.907013 
	C540.778381,401.917389 526.270630,399.142059 511.618225,399.265015 
	C495.822968,399.397491 481.380463,405.338257 468.329559,414.179657 
	C455.530457,422.850433 444.094299,433.142853 434.355591,445.163391 
	C424.083221,457.842651 413.233307,470.184937 404.230835,483.734283 
	C386.630676,510.223877 370.903015,537.866638 357.828949,566.948853 
	C357.023499,568.740540 354.484711,570.383362 352.458405,570.869141 
	C347.705261,572.008606 342.766449,572.357422 337.915741,573.109741 
	C327.581177,574.712402 317.238647,576.273071 306.930115,578.031067 
	C298.034637,579.548218 289.181641,581.314636 280.309875,582.970764 
	C280.366241,583.552979 280.422638,584.135132 280.479034,584.717346 
	C303.858978,583.478088 327.238953,582.238770 350.248016,581.019165 
	C343.078583,602.920898 335.886780,624.576721 328.907410,646.300781 
	C321.968414,667.899170 317.010468,689.920593 314.807770,712.476501 
	C316.004974,711.941467 316.659698,711.326111 316.889252,710.579956 
	C321.642181,695.130981 326.122620,679.594421 331.110382,664.222351 
	C339.914917,637.087402 353.138611,611.962830 367.003662,587.169373 
	C369.117249,583.389832 370.958435,579.049744 376.597565,578.951965 
	C386.015045,578.788513 395.429016,577.995117 404.841278,578.047424 
	C425.109222,578.160034 445.390167,578.264343 465.637695,579.074646 
	C487.480042,579.948792 509.315338,581.312927 531.105286,583.065552 
	C544.641235,584.154358 558.126404,586.101501 571.565002,588.124329 
	C595.932373,591.791992 619.865662,597.056702 642.671082,606.915100 
	C654.813904,612.164062 666.401550,617.917297 675.341553,627.938477 
	C687.206177,641.238098 684.441895,653.919312 673.043335,665.600708 
	C663.443481,675.438782 652.111633,682.730042 639.399048,687.741821 
	C628.279480,692.125549 617.135681,696.637573 605.658936,699.874573 
	C593.290588,703.363098 580.569153,705.681763 567.918213,708.067627 
	C548.831726,711.667236 529.672668,714.882324 510.939819,718.191101 
	C512.353821,718.409241 514.459900,718.978088 516.577332,719.023987 
	C544.157227,719.621399 571.639648,718.337463 598.900574,713.948303 
	C613.085449,711.664551 627.260071,709.206970 641.308777,706.214966 
	C658.625671,702.526978 675.289368,696.791626 691.444031,689.397217 
	C707.337646,682.122314 722.136658,673.436340 732.957092,659.436829 
	C740.754639,649.348450 743.963196,638.290710 739.270630,625.323792 
	C734.847473,613.101074 725.768616,605.191772 715.968323,598.190552 
	C708.576233,592.909729 699.893188,589.394165 691.658813,585.349243 
	C686.198303,582.666809 680.665649,579.969360 674.896179,578.116150 
	C666.573425,575.442688 658.079102,573.186340 649.526001,571.375671 
	C638.078674,568.952271 626.533020,566.950439 614.976379,565.100708 
	C606.589844,563.758301 598.109558,563.010986 589.684204,561.898926 
	C580.070435,560.630005 570.498657,558.977661 560.856873,558.006653 
	C553.301819,557.245789 545.658142,556.850342 538.070679,557.024780 
	C517.715820,557.492920 497.362701,558.192139 477.022980,559.110901 
	C461.031738,559.833191 445.054291,560.917297 429.085052,562.044006 
	C421.545380,562.575989 414.027924,563.490601 406.520996,564.401794 
	C397.760529,565.465088 389.022614,566.713989 379.931030,567.928284 
	C380.197205,566.996887 380.236328,566.520142 380.453766,566.147339 
	C397.312988,537.239685 416.341949,510.016113 440.729370,486.783783 
	C453.856384,474.278503 468.101532,463.628632 484.676880,456.083374 
	C501.425720,448.459076 518.475708,446.613495 536.892151,452.490265 
z"/>
<path fill="#FFCC42" opacity="1.000000" stroke="none" 
	d="
M577.950439,394.004089 
	C563.521790,383.330719 548.007568,376.278076 530.369629,373.893097 
	C511.125610,371.290955 492.722687,373.806427 474.716583,380.989716 
	C457.745178,387.760315 442.604370,397.320953 429.631195,410.040985 
	C419.932312,419.550629 410.882660,429.736511 401.776947,439.831482 
	C396.709991,445.448914 391.675934,451.195312 387.441559,457.436218 
	C383.302124,463.537201 380.200623,470.342010 376.638458,476.835083 
	C364.588287,498.799988 354.950836,521.810242 346.874237,545.497803 
	C346.614990,546.257996 346.171906,546.966614 345.989746,547.740417 
	C344.005096,556.171631 343.572449,556.424011 335.414093,557.998230 
	C323.797180,560.239929 312.147919,562.410706 300.684540,565.295410 
	C297.043640,566.211609 296.267120,565.314392 295.801056,562.341797 
	C294.895325,556.565063 293.446045,550.821228 293.133423,545.014648 
	C292.448486,532.293152 291.487091,519.496277 292.158997,506.810699 
	C293.589996,479.794769 297.835022,453.139069 308.102020,427.916931 
	C315.810699,408.979523 325.562195,391.023804 338.515961,375.066040 
	C345.379578,366.610718 352.300598,358.081024 360.122559,350.547211 
	C383.994324,327.554718 411.886993,310.961060 443.601257,301.249969 
	C456.306671,297.359497 469.255585,294.174347 482.780151,293.923218 
	C494.618774,293.703339 506.457764,291.901947 518.268311,292.149475 
	C535.385620,292.508118 552.250977,295.515594 568.714905,300.345886 
	C574.897034,302.159576 581.081116,304.105774 587.014893,306.587830 
	C593.102112,309.134064 598.744446,312.741791 604.826782,315.302155 
	C622.021118,322.540283 636.289734,333.861877 649.893555,346.317352 
	C669.731384,364.480682 684.737915,386.035889 696.057190,410.309998 
	C704.997192,429.481720 711.481567,449.391815 713.967163,470.456207 
	C715.218689,481.062683 716.393494,491.706299 716.886902,502.366241 
	C717.384888,513.124329 717.653381,523.974976 716.812195,534.690063 
	C715.968628,545.434998 713.630676,556.062622 711.928345,566.864624 
	C685.737366,558.989502 660.385559,552.944885 633.970825,549.721436 
	C633.970825,541.873901 634.170166,533.047852 633.935120,524.233459 
	C633.083618,492.297943 626.919861,461.601837 611.599487,433.240723 
	C603.297424,417.871796 591.812439,405.073761 577.950439,394.004089 
z"/>
<path fill="#1D86D3" opacity="1.000000" stroke="none" 
	d="
M536.529175,452.297546 
	C518.475708,446.613495 501.425720,448.459076 484.676880,456.083374 
	C468.101532,463.628632 453.856384,474.278503 440.729370,486.783783 
	C416.341949,510.016113 397.312988,537.239685 380.453766,566.147339 
	C380.236328,566.520142 380.197205,566.996887 379.931030,567.928284 
	C389.022614,566.713989 397.760529,565.465088 406.520996,564.401794 
	C414.027924,563.490601 421.545380,562.575989 429.085052,562.044006 
	C445.054291,560.917297 461.031738,559.833191 477.022980,559.110901 
	C497.362701,558.192139 517.715820,557.492920 538.070679,557.024780 
	C545.658142,556.850342 553.301819,557.245789 560.856873,558.006653 
	C570.498657,558.977661 580.070435,560.630005 589.684204,561.898926 
	C598.109558,563.010986 606.589844,563.758301 614.976379,565.100708 
	C626.533020,566.950439 638.078674,568.952271 649.526001,571.375671 
	C658.079102,573.186340 666.573425,575.442688 674.896179,578.116150 
	C680.665649,579.969360 686.198303,582.666809 691.658813,585.349243 
	C699.893188,589.394165 708.576233,592.909729 715.968323,598.190552 
	C725.768616,605.191772 734.847473,613.101074 739.270630,625.323792 
	C743.963196,638.290710 740.754639,649.348450 732.957092,659.436829 
	C722.136658,673.436340 707.337646,682.122314 691.444031,689.397217 
	C675.289368,696.791626 658.625671,702.526978 641.308777,706.214966 
	C627.260071,709.206970 613.085449,711.664551 598.900574,713.948303 
	C571.639648,718.337463 544.157227,719.621399 516.577332,719.023987 
	C514.459900,718.978088 512.353821,718.409241 510.939819,718.191101 
	C529.672668,714.882324 548.831726,711.667236 567.918213,708.067627 
	C580.569153,705.681763 593.290588,703.363098 605.658936,699.874573 
	C617.135681,696.637573 628.279480,692.125549 639.399048,687.741821 
	C652.111633,682.730042 663.443481,675.438782 673.043335,665.600708 
	C684.441895,653.919312 687.206177,641.238098 675.341553,627.938477 
	C666.401550,617.917297 654.813904,612.164062 642.671082,606.915100 
	C619.865662,597.056702 595.932373,591.791992 571.565002,588.124329 
	C558.126404,586.101501 544.641235,584.154358 531.105286,583.065552 
	C509.315338,581.312927 487.480042,579.948792 465.637695,579.074646 
	C445.390167,578.264343 425.109222,578.160034 404.841278,578.047424 
	C395.429016,577.995117 386.015045,578.788513 376.597565,578.951965 
	C370.958435,579.049744 369.117249,583.389832 367.003662,587.169373 
	C353.138611,611.962830 339.914917,637.087402 331.110382,664.222351 
	C326.122620,679.594421 321.642181,695.130981 316.889252,710.579956 
	C316.659698,711.326111 316.004974,711.941467 314.807770,712.476501 
	C317.010468,689.920593 321.968414,667.899170 328.907410,646.300781 
	C335.886780,624.576721 343.078583,602.920898 350.248016,581.019165 
	C327.238953,582.238770 303.858978,583.478088 280.479034,584.717346 
	C280.422638,584.135132 280.366241,583.552979 280.309875,582.970764 
	C289.181641,581.314636 298.034637,579.548218 306.930115,578.031067 
	C317.238647,576.273071 327.581177,574.712402 337.915741,573.109741 
	C342.766449,572.357422 347.705261,572.008606 352.458405,570.869141 
	C354.484711,570.383362 357.023499,568.740540 357.828949,566.948853 
	C370.903015,537.866638 386.630676,510.223877 404.230835,483.734283 
	C413.233307,470.184937 424.083221,457.842651 434.355591,445.163391 
	C444.094299,433.142853 455.530457,422.850433 468.329559,414.179657 
	C481.380463,405.338257 495.822968,399.397491 511.618225,399.265015 
	C526.270630,399.142059 540.778381,401.917389 553.530640,409.907013 
	C565.793030,417.589722 575.506287,427.873016 583.157837,440.235443 
	C594.091431,457.900604 599.374146,477.485748 602.787903,497.613892 
	C604.351501,506.832520 604.330872,516.321289 604.999695,525.689636 
	C605.374939,530.945923 605.777344,536.203125 605.977173,541.467163 
	C606.032043,542.913513 605.401550,544.385864 604.897156,546.717102 
	C603.831238,545.172119 603.100037,544.577454 602.988403,543.883179 
	C598.900085,518.458008 587.780518,496.408783 571.273560,476.828430 
	C561.886475,465.693634 550.427917,457.671204 536.529175,452.297546 
z"/>
</svg>