<?xml version="1.0" encoding="UTF-8"?>
<!DOCTYPE svg PUBLIC "-//W3C//DTD SVG 1.1//EN" "http://www.w3.org/Graphics/SVG/1.1/DTD/svg11.dtd">
<svg xmlns="http://www.w3.org/2000/svg" version="1.1" width="1124px" height="579px" style="shape-rendering:geometricPrecision; text-rendering:geometricPrecision; image-rendering:optimizeQuality; fill-rule:evenodd; clip-rule:evenodd" xmlns:xlink="http://www.w3.org/1999/xlink">
<g><path style="opacity:0.993" fill="#fec74a" d="M 233.5,216.5 C 238.529,219.735 243.862,222.401 249.5,224.5C 251.629,226.95 254.296,228.617 257.5,229.5C 257.393,231.379 257.893,231.712 259,230.5C 259.417,231.756 260.25,232.423 261.5,232.5C 262.873,234.207 264.539,235.54 266.5,236.5C 271.527,242.194 276.86,247.527 282.5,252.5C 288.467,260.127 293.8,268.127 298.5,276.5C 298.721,278.664 299.721,280.33 301.5,281.5C 303.9,288.244 306.233,295.077 308.5,302C 314.549,327.903 315.882,354.069 312.5,380.5C 296.426,376.841 279.926,373.508 263,370.5C 261.883,359.181 260.883,347.847 260,336.5C 259.667,336.833 259.333,337.167 259,337.5C 257.073,319.215 250.907,302.549 240.5,287.5C 239.643,286.575 238.643,285.908 237.5,285.5C 235.5,281.5 232.5,278.5 228.5,276.5C 228.5,274.5 227.5,273.5 225.5,273.5C 209.902,261.42 192.235,257.587 172.5,262C 163.712,264.637 155.379,268.303 147.5,273C 145.638,274.366 143.972,275.866 142.5,277.5C 140.368,277.554 139.035,278.554 138.5,280.5C 137.833,280.5 137.5,280.833 137.5,281.5C 133.532,283.832 129.866,286.665 126.5,290C 124.585,292.4 122.919,294.9 121.5,297.5C 118.705,299.751 116.372,302.418 114.5,305.5C 113.476,307.512 111.976,309.178 110,310.5C 109.517,311.448 109.351,312.448 109.5,313.5C 108.122,314.545 107.122,315.878 106.5,317.5C 104.445,319.896 102.779,322.562 101.5,325.5C 98.9234,328.311 97.0901,331.644 96,335.5C 95.6667,335.167 95.3333,334.833 95,334.5C 88.5661,348.217 82.7328,362.217 77.5,376.5C 68.0079,378.728 57.6746,380.395 46.5,381.5C 42.6723,351.867 45.339,322.867 54.5,294.5C 58.1889,287.64 61.5222,280.64 64.5,273.5C 67.6599,269.852 70.3265,265.852 72.5,261.5C 73.593,259.651 74.9263,257.984 76.5,256.5C 78.1916,254.149 79.8583,251.815 81.5,249.5C 83.8333,249.167 85.1667,247.833 85.5,245.5C 87.8333,245.167 89.1667,243.833 89.5,241.5C 95.0953,238.237 100.095,234.237 104.5,229.5C 107.704,228.617 110.371,226.95 112.5,224.5C 151.533,203.85 191.867,201.183 233.5,216.5 Z"/></g>
<g><path style="opacity:0.004" fill="#fe0000" d="M 233.5,215.5 C 234.833,216.167 234.833,216.167 233.5,215.5 Z"/></g>
<g><path style="opacity:0.004" fill="#fe0000" d="M 112.5,224.5 C 111.833,223.167 111.833,223.167 112.5,224.5 Z"/></g>
<g><path style="opacity:0.004" fill="#feff00" d="M 249.5,223.5 C 250.833,224.167 250.833,224.167 249.5,223.5 Z"/></g>
<g><path style="opacity:0.004" fill="#feff00" d="M 104.5,229.5 C 103.833,228.167 103.833,228.167 104.5,229.5 Z"/></g>
<g><path style="opacity:0.004" fill="#feff00" d="M 257.5,228.5 C 258.833,229.167 258.833,229.167 257.5,228.5 Z"/></g>
<g><path style="opacity:0.004" fill="#feff00" d="M 261.5,231.5 C 262.833,232.167 262.833,232.167 261.5,231.5 Z"/></g>
<g><path style="opacity:0.004" fill="#fe0000" d="M 266.5,235.5 C 267.833,236.167 267.833,236.167 266.5,235.5 Z"/></g>
<g><path style="opacity:0.004" fill="#fe0000" d="M 268.5,236.5 C 269.833,237.167 269.833,237.167 268.5,236.5 Z"/></g>
<g><path style="opacity:0.004" fill="#fe0000" d="M 89.5,239.5 C 90.8333,240.167 90.8333,240.167 89.5,239.5 Z"/></g>
<g><path style="opacity:0.004" fill="#feff00" d="M 89.5,240.5 C 89.5,240.833 89.5,241.167 89.5,241.5C 88.8299,241.019 88.8299,240.685 89.5,240.5 Z"/></g>
<g><path style="opacity:0.004" fill="#feff00" d="M 85.5,243.5 C 86.8333,244.167 86.8333,244.167 85.5,243.5 Z"/></g>
<g><path style="opacity:0.004" fill="#feff00" d="M 85.5,244.5 C 85.5,244.833 85.5,245.167 85.5,245.5C 84.8299,245.019 84.8299,244.685 85.5,244.5 Z"/></g>
<g><path style="opacity:0.004" fill="#feff00" d="M 81.5,247.5 C 82.8333,248.167 82.8333,248.167 81.5,247.5 Z"/></g>
<g><path style="opacity:0.004" fill="#feff00" d="M 81.5,248.5 C 81.5,248.833 81.5,249.167 81.5,249.5C 80.8299,249.019 80.8299,248.685 81.5,248.5 Z"/></g>
<g><path style="opacity:0.004" fill="#feff00" d="M 282.5,251.5 C 283.833,252.167 283.833,252.167 282.5,251.5 Z"/></g>
<g><path style="opacity:0.004" fill="#feff00" d="M 76.5,256.5 C 75.8333,255.167 75.8333,255.167 76.5,256.5 Z"/></g>
<g><path style="opacity:0.004" fill="#feff00" d="M 438.5,256.5 C 437.833,255.167 437.833,255.167 438.5,256.5 Z"/></g>
<g><path style="opacity:0.004" fill="#feff00" d="M 509.5,256.5 C 508.833,255.167 508.833,255.167 509.5,256.5 Z"/></g>
<g><path style="opacity:0.004" fill="#feff00" d="M 585.5,256.5 C 584.833,255.167 584.833,255.167 585.5,256.5 Z"/></g>
<g><path style="opacity:0.004" fill="#fe0000" d="M 633.5,255.5 C 634.833,256.167 634.833,256.167 633.5,255.5 Z"/></g>
<g><path style="opacity:0.004" fill="#feff00" d="M 717.5,255.5 C 718.833,256.167 718.833,256.167 717.5,255.5 Z"/></g>
<g><path style="opacity:0.004" fill="#feff00" d="M 797.5,256.5 C 796.833,255.167 796.833,255.167 797.5,256.5 Z"/></g>
<g><path style="opacity:0.004" fill="#feff00" d="M 849.5,256.5 C 848.833,255.167 848.833,255.167 849.5,256.5 Z"/></g>
<g><path style="opacity:0.004" fill="#fe0000" d="M 917.5,256.5 C 916.833,255.167 916.833,255.167 917.5,256.5 Z"/></g>
<g><path style="opacity:0.004" fill="#fe0000" d="M 929.5,255.5 C 930.833,256.167 930.833,256.167 929.5,255.5 Z"/></g>
<g><path style="opacity:0.004" fill="#fe0000" d="M 961.5,255.5 C 962.833,256.167 962.833,256.167 961.5,255.5 Z"/></g>
<g><path style="opacity:0.004" fill="#ff7ef8" d="M 889.5,257.5 C 889.897,256.475 890.563,256.308 891.5,257C 890.906,257.464 890.239,257.631 889.5,257.5 Z"/></g>
<g><path style="opacity:0.984" fill="#fdc749" d="M 377.5,280.5 C 380.101,275.561 382.435,270.394 384.5,265C 385.687,262.276 386.353,259.443 386.5,256.5C 391.167,256.5 395.833,256.5 400.5,256.5C 409.447,281.011 418.78,305.345 428.5,329.5C 424.5,329.5 420.5,329.5 416.5,329.5C 414.433,322.641 411.767,315.975 408.5,309.5C 398.522,308.501 388.522,308.168 378.5,308.5C 376.212,315.412 374.212,322.412 372.5,329.5C 367.786,329.827 363.12,329.493 358.5,328.5C 362.449,321.982 365.283,314.982 367,307.5C 367.333,307.833 367.667,308.167 368,308.5C 371.476,299.237 374.643,289.904 377.5,280.5 Z M 393.5,270.5 C 396.959,278.961 400.125,287.628 403,296.5C 403.654,295.304 404.154,295.304 404.5,296.5C 397.524,297.664 390.524,297.831 383.5,297C 387.064,288.238 390.397,279.404 393.5,270.5 Z"/></g>
<g><path style="opacity:0.96" fill="#fcc648" d="M 585.5,256.5 C 601.5,256.5 617.5,256.5 633.5,256.5C 633.5,259.833 633.5,263.167 633.5,266.5C 621.167,266.5 608.833,266.5 596.5,266.5C 596.334,273.508 596.5,280.508 597,287.5C 607.772,286.181 618.605,286.181 629.5,287.5C 630.618,290.812 630.618,294.145 629.5,297.5C 618.5,297.5 607.5,297.5 596.5,297.5C 596.5,304.833 596.5,312.167 596.5,319.5C 608.833,319.5 621.167,319.5 633.5,319.5C 633.5,322.833 633.5,326.167 633.5,329.5C 617.5,329.5 601.5,329.5 585.5,329.5C 585.5,305.167 585.5,280.833 585.5,256.5 Z"/></g>
<g><path style="opacity:0.984" fill="#fdc748" d="M 797.5,256.5 C 801.767,256.203 805.934,256.536 810,257.5C 813.294,266.828 817.128,275.828 821.5,284.5C 821.433,286.401 821.767,288.234 822.5,290C 827.641,303.093 832.974,316.093 838.5,329C 834.245,329.796 830.079,329.629 826,328.5C 823.189,321.9 820.689,315.233 818.5,308.5C 808.828,308.334 799.161,308.5 789.5,309C 786.732,315.806 784.065,322.639 781.5,329.5C 777.445,329.824 773.445,329.491 769.5,328.5C 770.522,325.798 771.522,323.131 772.5,320.5C 776.273,312.856 779.273,304.856 781.5,296.5C 787.126,283.375 792.46,270.042 797.5,256.5 Z M 797.5,289.5 C 799.657,282.886 801.824,276.22 804,269.5C 807.17,278.853 810.337,288.186 813.5,297.5C 806.825,297.666 800.158,297.5 793.5,297C 795.002,294.49 796.336,291.99 797.5,289.5 Z"/></g>
<g><path style="opacity:0.004" fill="#feff00" d="M 894.5,259.5 C 895.833,260.167 895.833,260.167 894.5,259.5 Z"/></g>
<g><path style="opacity:0.004" fill="#fe0000" d="M 72.5,261.5 C 71.8333,260.167 71.8333,260.167 72.5,261.5 Z"/></g>
<g><path style="opacity:0.004" fill="#feff00" d="M 485.5,260.5 C 486.833,261.167 486.833,261.167 485.5,260.5 Z"/></g>
<g><path style="opacity:0.004" fill="#feff00" d="M 761.5,260.5 C 762.833,261.167 762.833,261.167 761.5,260.5 Z"/></g>
<g><path style="opacity:0.004" fill="#d6d250" d="M 187.5,262.5 C 187.897,261.475 188.563,261.308 189.5,262C 188.906,262.464 188.239,262.631 187.5,262.5 Z"/></g>
<g><path style="opacity:0.016" fill="#ffb847" d="M 634.5,260.5 C 635.525,260.897 635.692,261.563 635,262.5C 634.536,261.906 634.369,261.239 634.5,260.5 Z"/></g>
<g><path style="opacity:0.97" fill="#fdc747" d="M 849.5,256.5 C 862.859,256.263 876.192,256.596 889.5,257.5C 889.393,259.379 889.893,259.712 891,258.5C 891.816,259.823 892.983,260.489 894.5,260.5C 895.833,261.833 897.167,263.167 898.5,264.5C 902.683,271.993 903.517,279.993 901,288.5C 899.045,290.911 897.211,293.411 895.5,296C 893.051,296.725 890.717,297.725 888.5,299C 889.044,299.717 889.711,300.217 890.5,300.5C 890.842,301.338 891.508,301.672 892.5,301.5C 895.713,310.17 900.047,318.17 905.5,325.5C 905.5,326.833 905.5,328.167 905.5,329.5C 901.486,329.666 897.486,329.499 893.5,329C 890.957,323.159 887.957,317.659 884.5,312.5C 884.715,310.821 884.048,309.821 882.5,309.5C 882.34,307.847 881.674,306.514 880.5,305.5C 879.064,304.571 877.731,303.405 876.5,302C 871.177,301.501 865.844,301.334 860.5,301.5C 860.5,310.833 860.5,320.167 860.5,329.5C 856.833,329.5 853.167,329.5 849.5,329.5C 849.5,305.167 849.5,280.833 849.5,256.5 Z M 889.5,284.5 C 889.67,285.822 889.337,286.989 888.5,288C 886.065,288.853 883.731,289.853 881.5,291C 874.508,291.5 867.508,291.666 860.5,291.5C 860.5,283.167 860.5,274.833 860.5,266.5C 870.14,265.723 879.473,266.889 888.5,270C 890.623,274.824 890.956,279.657 889.5,284.5 Z"/></g>
<g><path style="opacity:0.004" fill="#feff00" d="M 898.5,263.5 C 899.833,264.167 899.833,264.167 898.5,263.5 Z"/></g>
<g><path style="opacity:0.004" fill="#a41a0a" d="M 790.5,268.5 C 791.525,268.897 791.692,269.563 791,270.5C 790.536,269.906 790.369,269.239 790.5,268.5 Z"/></g>
<g><path style="opacity:0.985" fill="#fdc748" d="M 509.5,256.5 C 520.505,256.333 531.505,256.5 542.5,257C 556.158,260.059 564.991,268.225 569,281.5C 569.667,288.833 569.667,296.167 569,303.5C 568.01,306.955 566.844,310.288 565.5,313.5C 564.122,314.545 563.122,315.878 562.5,317.5C 560.833,318.5 559.5,319.833 558.5,321.5C 555.394,323.269 551.894,325.269 548,327.5C 545.536,328.161 543.036,328.661 540.5,329C 530.172,329.5 519.839,329.666 509.5,329.5C 509.5,305.167 509.5,280.833 509.5,256.5 Z M 549.5,272.5 C 551.017,272.511 552.184,273.177 553,274.5C 558.911,284.371 560.078,294.871 556.5,306C 554.956,307.586 553.789,309.42 553,311.5C 552.184,312.823 551.017,313.489 549.5,313.5C 549.631,314.376 549.298,315.043 548.5,315.5C 539.596,319.114 530.262,320.448 520.5,319.5C 520.5,301.833 520.5,284.167 520.5,266.5C 530.082,265.891 539.416,267.058 548.5,270C 549.252,270.671 549.586,271.504 549.5,272.5 Z"/></g>
<g><path style="opacity:0.004" fill="#fefffe" d="M 176.5,271.5 C 179.001,271.511 179.168,272.178 177,273.5C 176.536,272.906 176.369,272.239 176.5,271.5 Z"/></g>
<g><path style="opacity:0.004" fill="#fefffe" d="M 191.5,271.5 C 192.833,272.167 192.833,272.167 191.5,271.5 Z"/></g>
<g><path style="opacity:0.008" fill="#535353" d="M 193.5,272.5 C 193.897,271.475 194.563,271.308 195.5,272C 194.906,272.464 194.239,272.631 193.5,272.5 Z"/></g>
<g><path style="opacity:0.008" fill="#7b7b7b" d="M 198.5,273.5 C 197.537,272.637 197.537,271.97 198.5,271.5C 199.773,272.257 199.773,272.923 198.5,273.5 Z"/></g>
<g><path style="opacity:0.004" fill="#fe0000" d="M 64.5,273.5 C 63.8333,272.167 63.8333,272.167 64.5,273.5 Z"/></g>
<g><path style="opacity:0.004" fill="#feff00" d="M 225.5,273.5 C 224.833,274.167 224.833,274.167 225.5,273.5 Z"/></g>
<g><path style="opacity:0.004" fill="#fe0000" d="M 749.5,273.5 C 750.833,274.167 750.833,274.167 749.5,273.5 Z"/></g>
<g><path style="opacity:0.008" fill="#f2ca76" d="M 228.5,276.5 C 228.5,276.833 228.5,277.167 228.5,277.5C 227.325,277.719 226.325,277.386 225.5,276.5C 226.425,275.438 227.425,275.438 228.5,276.5 Z"/></g>
<g><path style="opacity:0.004" fill="#feff00" d="M 298.5,275.5 C 299.833,276.167 299.833,276.167 298.5,275.5 Z"/></g>
<g><path style="opacity:0.987" fill="#fcc747" d="M 961.5,256.5 C 962.325,259.484 963.659,262.151 965.5,264.5C 965.678,267.216 966.178,269.883 967,272.5C 967.333,272.167 967.667,271.833 968,271.5C 972.14,285.368 976.807,299.034 982,312.5C 989.204,294.361 995.871,276.028 1002,257.5C 1006.78,256.198 1011.62,256.198 1016.5,257.5C 1016.52,281.321 1016.52,305.321 1016.5,329.5C 1012.83,329.5 1009.17,329.5 1005.5,329.5C 1005.67,313.163 1005.5,296.83 1005,280.5C 998.89,296.388 993.057,312.388 987.5,328.5C 983.906,329.426 980.24,329.759 976.5,329.5C 976.66,327.801 976.494,326.134 976,324.5C 975.667,324.833 975.333,325.167 975,325.5C 974.79,323.942 974.29,322.609 973.5,321.5C 968.842,305.993 963.676,291.326 958,277.5C 957.5,294.83 957.333,312.163 957.5,329.5C 953.833,329.5 950.167,329.5 946.5,329.5C 946.5,305.167 946.5,280.833 946.5,256.5C 951.5,256.5 956.5,256.5 961.5,256.5 Z"/></g>
<g><path style="opacity:0.004" fill="#fe0000" d="M 965.5,263.5 C 966.833,264.167 966.833,264.167 965.5,263.5 Z"/></g>
<g><path style="opacity:0.004" fill="#000000" d="M 746.5,276.5 C 747.833,277.167 747.833,277.167 746.5,276.5 Z"/></g>
<g><path style="opacity:0.012" fill="#f1c54d" d="M 803.5,274.5 C 804.797,275.849 804.63,277.182 803,278.5C 802.805,277.181 802.972,275.847 803.5,274.5 Z"/></g>
<g><path style="opacity:0.004" fill="#fe0000" d="M 142.5,277.5 C 143.833,278.167 143.833,278.167 142.5,277.5 Z"/></g>
<g><path style="opacity:0.004" fill="#000000" d="M 228.5,277.5 C 229.833,278.167 229.833,278.167 228.5,277.5 Z"/></g>
<g><path style="opacity:0.004" fill="#feff00" d="M 745.5,277.5 C 745.833,277.5 746.167,277.5 746.5,277.5C 746.315,278.17 745.981,278.17 745.5,277.5 Z"/></g>
<g><path style="opacity:0.004" fill="#fe0000" d="M 377.5,280.5 C 376.833,279.167 376.833,279.167 377.5,280.5 Z"/></g>
<g><path style="opacity:0.004" fill="#fe0000" d="M 138.5,280.5 C 139.833,281.167 139.833,281.167 138.5,280.5 Z"/></g>
<g><path style="opacity:0.004" fill="#fe0000" d="M 301.5,280.5 C 302.833,281.167 302.833,281.167 301.5,280.5 Z"/></g>
<g><path style="opacity:0.004" fill="#feff00" d="M 742.5,280.5 C 743.833,281.167 743.833,281.167 742.5,280.5 Z"/></g>
<g><path style="opacity:0.004" fill="#feff00" d="M 137.5,281.5 C 137.833,281.5 138.167,281.5 138.5,281.5C 138.315,282.17 137.981,282.17 137.5,281.5 Z"/></g>
<g><path style="opacity:0.004" fill="#a2a2a2" d="M 146.5,280.5 C 147.525,280.897 147.692,281.563 147,282.5C 146.536,281.906 146.369,281.239 146.5,280.5 Z"/></g>
<g><path style="opacity:0.004" fill="#feff00" d="M 741.5,281.5 C 741.833,281.5 742.167,281.5 742.5,281.5C 742.315,282.17 741.981,282.17 741.5,281.5 Z"/></g>
<g><path style="opacity:0.004" fill="#000000" d="M 153.5,283.5 C 154.833,284.167 154.833,284.167 153.5,283.5 Z"/></g>
<g><path style="opacity:0.004" fill="#00fffe" d="M 217.5,283.5 C 218.833,284.167 218.833,284.167 217.5,283.5 Z"/></g>
<g><path style="opacity:0.004" fill="#fe0000" d="M 821.5,283.5 C 822.833,284.167 822.833,284.167 821.5,283.5 Z"/></g>
<g><path style="opacity:0.004" fill="#feff00" d="M 738.5,284.5 C 739.833,285.167 739.833,285.167 738.5,284.5 Z"/></g>
<g><path style="opacity:0.004" fill="#feff00" d="M 237.5,285.5 C 236.833,286.167 236.833,286.167 237.5,285.5 Z"/></g>
<g><path style="opacity:0.004" fill="#fe0000" d="M 488.5,285.5 C 489.833,286.167 489.833,286.167 488.5,285.5 Z"/></g>
<g><path style="opacity:0.004" fill="#feff00" d="M 737.5,285.5 C 737.833,285.5 738.167,285.5 738.5,285.5C 738.315,286.17 737.981,286.17 737.5,285.5 Z"/></g>
<g><path style="opacity:0.004" fill="#ffc1f7" d="M 930.5,284.5 C 931.525,284.897 931.692,285.563 931,286.5C 930.536,285.906 930.369,285.239 930.5,284.5 Z"/></g>
<g><path style="opacity:0.004" fill="#feff00" d="M 55.5,286.5 C 56.8333,287.167 56.8333,287.167 55.5,286.5 Z"/></g>
<g><path style="opacity:0.937" fill="#fcc748" d="M 717.5,256.5 C 717.333,267.505 717.5,278.505 718,289.5C 723.43,283.911 728.597,278.245 733.5,272.5C 734.239,272.631 734.906,272.464 735.5,272C 738.861,268.757 741.861,265.257 744.5,261.5C 745.972,259.866 747.638,258.366 749.5,257C 753.871,256.172 758.205,256.339 762.5,257.5C 761.873,258.417 761.539,259.417 761.5,260.5C 759.983,260.511 758.816,261.177 758,262.5C 754.958,266.037 752.125,269.704 749.5,273.5C 747.5,273.5 746.5,274.5 746.5,276.5C 745.833,276.5 745.5,276.833 745.5,277.5C 743.5,277.5 742.5,278.5 742.5,280.5C 741.833,280.5 741.5,280.833 741.5,281.5C 739.5,281.5 738.5,282.5 738.5,284.5C 737.833,284.5 737.5,284.833 737.5,285.5C 735.5,285.5 734.5,286.5 734.5,288.5C 733.535,289.721 733.702,291.054 735,292.5C 735.671,293.252 736.504,293.586 737.5,293.5C 740.129,297.463 743.129,301.129 746.5,304.5C 748.492,308.188 751.159,311.188 754.5,313.5C 755.811,315.336 756.978,317.336 758,319.5C 758.816,320.823 759.983,321.489 761.5,321.5C 763.284,323.948 764.618,326.615 765.5,329.5C 760.821,329.666 756.155,329.499 751.5,329C 748.031,325.188 744.698,321.355 741.5,317.5C 739.829,315.319 738.329,312.985 737,310.5C 736.184,309.177 735.017,308.511 733.5,308.5C 731.991,306.071 730.324,303.737 728.5,301.5C 726.864,300.251 725.697,298.584 725,296.5C 723.915,297.736 723.082,299.069 722.5,300.5C 721.833,300.5 721.5,300.833 721.5,301.5C 719.589,301.574 718.422,302.574 718,304.5C 717.5,312.827 717.334,321.16 717.5,329.5C 713.833,329.5 710.167,329.5 706.5,329.5C 706.5,305.167 706.5,280.833 706.5,256.5C 710.167,256.5 713.833,256.5 717.5,256.5 Z"/></g>
<g><path style="opacity:0.004" fill="#feff00" d="M 733.5,272.5 C 732.833,271.167 732.833,271.167 733.5,272.5 Z"/></g>
<g><path style="opacity:0.004" fill="#feff00" d="M 744.5,261.5 C 743.833,260.167 743.833,260.167 744.5,261.5 Z"/></g>
<g><path style="opacity:0.004" fill="#00fffe" d="M 149.5,288.5 C 148.833,287.167 148.833,287.167 149.5,288.5 Z"/></g>
<g><path style="opacity:0.904" fill="#fdc748" d="M 438.5,256.5 C 450.505,256.333 462.505,256.5 474.5,257C 478.436,257.972 482.103,259.472 485.5,261.5C 485.9,263.377 486.9,264.877 488.5,266C 489.358,269.124 490.025,272.29 490.5,275.5C 489.83,278.846 489.163,282.179 488.5,285.5C 486.372,287.446 484.039,289.279 481.5,291C 482.745,291.791 484.078,292.291 485.5,292.5C 493.094,300.773 494.427,310.107 489.5,320.5C 487.227,320.957 485.894,322.29 485.5,324.5C 482.91,325.128 480.577,326.295 478.5,328C 465.212,329.381 451.879,329.881 438.5,329.5C 438.5,305.167 438.5,280.833 438.5,256.5 Z M 473.5,284.5 C 465.827,285.998 457.994,286.998 450,287.5C 449.5,280.508 449.334,273.508 449.5,266.5C 458.421,265.832 467.088,266.666 475.5,269C 479.06,273.554 479.393,278.387 476.5,283.5C 475.675,284.386 474.675,284.719 473.5,284.5 Z M 449.5,296.5 C 457.886,296.213 466.219,296.713 474.5,298C 481.266,301.292 483.099,306.458 480,313.5C 477.573,316.57 474.406,318.404 470.5,319C 463.508,319.5 456.508,319.666 449.5,319.5C 449.5,311.833 449.5,304.167 449.5,296.5 Z"/></g>
<g><path style="opacity:0.004" fill="#000000" d="M 238.5,288.5 C 239.833,289.167 239.833,289.167 238.5,288.5 Z"/></g>
<g><path style="opacity:0.004" fill="#feff00" d="M 734.5,288.5 C 735.833,289.167 735.833,289.167 734.5,288.5 Z"/></g>
<g><path style="opacity:0.008" fill="#807f44" d="M 228.5,289.5 C 230.225,289.843 230.725,290.843 230,292.5C 228.961,291.756 228.461,290.756 228.5,289.5 Z"/></g>
<g><path style="opacity:0.004" fill="#000000" d="M 144.5,292.5 C 143.833,291.167 143.833,291.167 144.5,292.5 Z"/></g>
<g><path style="opacity:0.004" fill="#daffcd" d="M 225.5,292.5 C 225.5,292.167 225.5,291.833 225.5,291.5C 226.376,291.369 227.043,291.702 227.5,292.5C 227.03,293.463 226.363,293.463 225.5,292.5 Z"/></g>
<g><path style="opacity:0.004" fill="#ffd6fe" d="M 485.5,292.5 C 485.897,291.475 486.563,291.308 487.5,292C 486.906,292.464 486.239,292.631 485.5,292.5 Z"/></g>
<g><path style="opacity:0.004" fill="#feff00" d="M 737.5,292.5 C 738.833,293.167 738.833,293.167 737.5,292.5 Z"/></g>
<g><path style="opacity:0.004" fill="#0000ff" d="M 140.5,296.5 C 139.833,295.167 139.833,295.167 140.5,296.5 Z"/></g>
<g><path style="opacity:0.004" fill="#fe0000" d="M 781.5,296.5 C 780.833,295.167 780.833,295.167 781.5,296.5 Z"/></g>
<g><path style="opacity:0.004" fill="#bfe9d4" d="M 230.5,300.5 C 230.094,298.891 230.094,297.557 230.5,296.5C 231.782,297.958 231.782,299.292 230.5,300.5 Z"/></g>
<g><path style="opacity:0.004" fill="#fe0000" d="M 741.5,296.5 C 742.833,297.167 742.833,297.167 741.5,296.5 Z"/></g>
<g><path style="opacity:0.004" fill="#feff00" d="M 121.5,297.5 C 122.833,298.167 122.833,298.167 121.5,297.5 Z"/></g>
<g><path style="opacity:0.004" fill="#feff00" d="M 629.5,297.5 C 630.833,298.167 630.833,298.167 629.5,297.5 Z"/></g>
<g><path style="opacity:0.008" fill="#ffc444" d="M 467.5,299.5 C 469.288,298.378 471.288,298.211 473.5,299C 471.452,300.241 469.452,300.408 467.5,299.5 Z"/></g>
<g><path style="opacity:0.004" fill="#ffd64c" d="M 623.5,299.5 C 623.897,298.475 624.563,298.308 625.5,299C 624.906,299.464 624.239,299.631 623.5,299.5 Z"/></g>
<g><path style="opacity:0.004" fill="#0000ff" d="M 136.5,300.5 C 135.833,299.167 135.833,299.167 136.5,300.5 Z"/></g>
<g><path style="opacity:0.004" fill="#feff00" d="M 890.5,299.5 C 891.833,300.167 891.833,300.167 890.5,299.5 Z"/></g>
<g><path style="opacity:0.004" fill="#feff00" d="M 722.5,300.5 C 723.833,301.167 723.833,301.167 722.5,300.5 Z"/></g>
<g><path style="opacity:0.004" fill="#fe0000" d="M 892.5,300.5 C 893.833,301.167 893.833,301.167 892.5,300.5 Z"/></g>
<g><path style="opacity:0.972" fill="#fcc849" d="M 917.5,256.5 C 921.5,256.5 925.5,256.5 929.5,256.5C 929.5,280.833 929.5,305.167 929.5,329.5C 925.5,329.5 921.5,329.5 917.5,329.5C 917.5,305.167 917.5,280.833 917.5,256.5 Z"/></g>
<g><path style="opacity:0.004" fill="#feff00" d="M 721.5,301.5 C 721.833,301.5 722.167,301.5 722.5,301.5C 722.315,302.17 721.981,302.17 721.5,301.5 Z"/></g>
<g><path style="opacity:0.004" fill="#feff00" d="M 728.5,301.5 C 727.833,302.167 727.833,302.167 728.5,301.5 Z"/></g>
<g><path style="opacity:0.004" fill="#00fffe" d="M 132.5,302.5 C 133.833,303.167 133.833,303.167 132.5,302.5 Z"/></g>
<g><path style="opacity:0.004" fill="#fe0000" d="M 244.5,304.5 C 244.897,303.475 245.563,303.308 246.5,304C 245.906,304.464 245.239,304.631 244.5,304.5 Z"/></g>
<g><path style="opacity:0.004" fill="#feff00" d="M 746.5,303.5 C 747.833,304.167 747.833,304.167 746.5,303.5 Z"/></g>
<g><path style="opacity:0.004" fill="#feff00" d="M 114.5,305.5 C 115.833,306.167 115.833,306.167 114.5,305.5 Z"/></g>
<g><path style="opacity:0.004" fill="#feff00" d="M 880.5,305.5 C 879.833,306.167 879.833,306.167 880.5,305.5 Z"/></g>
<g><path style="opacity:0.004" fill="#00fffe" d="M 129.5,308.5 C 128.833,307.167 128.833,307.167 129.5,308.5 Z"/></g>
<g><path style="opacity:0.004" fill="#feff00" d="M 733.5,308.5 C 733.5,308.833 733.5,309.167 733.5,309.5C 732.83,309.019 732.83,308.685 733.5,308.5 Z"/></g>
<g><path style="opacity:0.993" fill="#4a92db" d="M 198.5,273.5 C 205.322,276.383 211.655,280.05 217.5,284.5C 219.134,285.972 220.634,287.638 222,289.5C 224.149,288.16 225.316,288.827 225.5,291.5C 224.167,291.833 224.167,292.167 225.5,292.5C 226.779,295.438 228.445,298.104 230.5,300.5C 237.679,313.895 242.346,328.229 244.5,343.5C 245.423,352.502 245.923,361.502 246,370.5C 245,371.833 244,371.833 243,370.5C 242.47,364.273 240.637,358.607 237.5,353.5C 236.309,349.235 234.642,345.235 232.5,341.5C 231.878,339.878 230.878,338.545 229.5,337.5C 228.343,333.982 226.677,330.649 224.5,327.5C 223.643,326.575 222.643,325.908 221.5,325.5C 219.195,319.861 215.195,315.861 209.5,313.5C 205.803,310.017 201.637,308.017 197,307.5C 193.138,305.995 189.138,304.995 185,304.5C 180.66,304.945 176.493,305.945 172.5,307.5C 171.914,307.291 171.414,306.957 171,306.5C 168.497,308.35 165.664,309.683 162.5,310.5C 161.702,310.957 161.369,311.624 161.5,312.5C 158.324,313.34 155.658,315.007 153.5,317.5C 151.405,318.412 149.405,319.579 147.5,321C 146.177,321.816 145.511,322.983 145.5,324.5C 143.167,324.833 141.833,326.167 141.5,328.5C 139.167,328.833 137.833,330.167 137.5,332.5C 136.504,332.414 135.671,332.748 135,333.5C 133.963,336.267 132.463,338.601 130.5,340.5C 129.168,342.138 127.834,343.804 126.5,345.5C 125.476,347.512 123.976,349.178 122,350.5C 121.517,351.448 121.351,352.448 121.5,353.5C 120.357,353.908 119.357,354.575 118.5,355.5C 116.963,358.96 115.297,362.293 113.5,365.5C 112.122,366.545 111.122,367.878 110.5,369.5C 109.187,372.137 107.52,374.637 105.5,377C 119.55,376.83 133.55,375.83 147.5,374C 190.287,371.295 232.62,373.795 274.5,381.5C 293.16,385.338 310.16,392.672 325.5,403.5C 325.5,404.167 325.833,404.5 326.5,404.5C 327.5,406.167 328.833,407.5 330.5,408.5C 331.122,410.122 332.122,411.455 333.5,412.5C 334.199,416.237 335.199,419.903 336.5,423.5C 335.112,429.693 332.778,435.36 329.5,440.5C 327.167,440.833 325.833,442.167 325.5,444.5C 323.167,444.833 321.833,446.167 321.5,448.5C 318.562,449.779 315.896,451.445 313.5,453.5C 282.177,469.289 249.51,477.456 215.5,478C 216.056,478.383 216.389,478.883 216.5,479.5C 214.234,479.141 212.401,479.808 211,481.5C 210.167,479.833 209.333,478.167 208.5,476.5C 217.012,474.048 225.678,472.382 234.5,471.5C 250.115,467.848 265.115,462.514 279.5,455.5C 282.823,453.502 285.823,451.169 288.5,448.5C 292.167,446.833 294.833,444.167 296.5,440.5C 302.262,431.971 301.262,424.304 293.5,417.5C 292.127,415.793 290.461,414.46 288.5,413.5C 286.66,411.331 284.326,409.998 281.5,409.5C 279.374,408.27 277.208,406.937 275,405.5C 249.629,397.302 223.629,391.969 197,389.5C 166.855,387.69 136.689,387.19 106.5,388C 103.774,388.182 101.107,388.682 98.5,389.5C 97.6808,393.133 96.0142,396.3 93.5,399C 121.538,399.057 149.538,400.057 177.5,402C 196.857,405.009 215.69,410.176 234,417.5C 237.89,419.939 241.723,422.272 245.5,424.5C 246.167,426.5 247.5,427.833 249.5,428.5C 250.664,431.422 251.664,434.422 252.5,437.5C 250.084,446.231 245.084,452.897 237.5,457.5C 216.61,467.508 193.777,472.842 169,473.5C 166.5,473.167 164,472.833 161.5,472.5C 173.248,469.989 184.915,467.155 196.5,464C 202.695,462.005 208.361,459.172 213.5,455.5C 216.521,453.812 218.855,451.479 220.5,448.5C 223.079,444.47 223.079,440.47 220.5,436.5C 220.19,434.856 219.19,433.856 217.5,433.5C 216.127,431.793 214.461,430.46 212.5,429.5C 206.722,425.68 200.389,423.013 193.5,421.5C 185.364,417.766 176.698,415.6 167.5,415C 167.833,414.667 168.167,414.333 168.5,414C 159.859,412.781 151.192,411.781 142.5,411C 142.833,410.667 143.167,410.333 143.5,410C 125.532,408.449 107.532,407.616 89.5,407.5C 84.5036,419.486 79.5036,431.486 74.5,443.5C 70.8532,454.093 67.5199,464.759 64.5,475.5C 63.5,475.5 62.5,475.5 61.5,475.5C 63.0653,465.844 64.7319,456.177 66.5,446.5C 70.4638,434.281 74.1304,421.281 77.5,407.5C 64.486,407.977 51.486,408.644 38.5,409.5C 38.33,408.178 38.6634,407.011 39.5,406C 46.3221,405.03 52.9887,403.697 59.5,402C 66.7991,400.964 74.1325,400.464 81.5,400.5C 82.459,396.387 84.1257,392.553 86.5,389C 79.1941,389.339 71.8607,390.172 64.5,391.5C 56.848,392.207 49.1814,392.541 41.5,392.5C 41.3893,391.883 41.056,391.383 40.5,391C 42.3197,390.8 43.653,389.966 44.5,388.5C 59.3888,385.097 74.3888,382.264 89.5,380C 93.187,372.144 96.8537,364.311 100.5,356.5C 101.927,354.852 102.76,352.852 103,350.5C 103.333,350.833 103.667,351.167 104,351.5C 104.813,349.564 105.313,347.564 105.5,345.5C 112.119,334.865 118.785,324.198 125.5,313.5C 127.935,312.73 129.269,311.063 129.5,308.5C 132.557,306.444 134.891,303.778 136.5,300.5C 138.167,299.5 139.5,298.167 140.5,296.5C 142.167,295.5 143.5,294.167 144.5,292.5C 146.389,291.396 148.055,290.063 149.5,288.5C 157.616,282.898 166.283,278.232 175.5,274.5C 176.675,275.855 177.675,275.688 178.5,274C 185.158,273.5 191.825,273.334 198.5,273.5 Z"/></g>
<g><path style="opacity:0.004" fill="#71aee6" d="M 191.5,306.5 C 193.196,306.685 194.529,307.519 195.5,309C 193.386,309.442 192.052,308.609 191.5,306.5 Z"/></g>
<g><path style="opacity:0.008" fill="#617ec6" d="M 180.5,307.5 C 181.251,306.427 182.251,306.26 183.5,307C 182.648,308.728 181.648,308.895 180.5,307.5 Z"/></g>
<g><path style="opacity:0.004" fill="#feff00" d="M 733.5,309.5 C 734.833,310.167 734.833,310.167 733.5,309.5 Z"/></g>
<g><path style="opacity:0.004" fill="#fe0000" d="M 882.5,309.5 C 881.833,310.167 881.833,310.167 882.5,309.5 Z"/></g>
<g><path style="opacity:0.004" fill="#0000ff" d="M 125.5,313.5 C 124.833,312.167 124.833,312.167 125.5,313.5 Z"/></g>
<g><path style="opacity:0.004" fill="#0000ff" d="M 161.5,312.5 C 162.833,313.167 162.833,313.167 161.5,312.5 Z"/></g>
<g><path style="opacity:0.004" fill="#fe0000" d="M 754.5,312.5 C 755.833,313.167 755.833,313.167 754.5,312.5 Z"/></g>
<g><path style="opacity:0.004" fill="#fe0000" d="M 884.5,312.5 C 883.833,313.167 883.833,313.167 884.5,312.5 Z"/></g>
<g><path style="opacity:0.004" fill="#feff00" d="M 109.5,313.5 C 110.833,314.167 110.833,314.167 109.5,313.5 Z"/></g>
<g><path style="opacity:0.004" fill="#00fffe" d="M 209.5,313.5 C 208.833,314.167 208.833,314.167 209.5,313.5 Z"/></g>
<g><path style="opacity:0.004" fill="#feff00" d="M 565.5,313.5 C 566.833,314.167 566.833,314.167 565.5,313.5 Z"/></g>
<g><path style="opacity:0.008" fill="#ffad6a" d="M 361.5,315.5 C 361.897,314.475 362.563,314.308 363.5,315C 362.906,315.464 362.239,315.631 361.5,315.5 Z"/></g>
<g><path style="opacity:0.004" fill="#000000" d="M 691.5,316.5 C 692.833,317.167 692.833,317.167 691.5,316.5 Z"/></g>
<g><path style="opacity:0.004" fill="#fe0000" d="M 106.5,317.5 C 107.833,318.167 107.833,318.167 106.5,317.5 Z"/></g>
<g><path style="opacity:0.004" fill="#00fffe" d="M 153.5,317.5 C 154.833,318.167 154.833,318.167 153.5,317.5 Z"/></g>
<g><path style="opacity:0.004" fill="#feff00" d="M 562.5,317.5 C 563.833,318.167 563.833,318.167 562.5,317.5 Z"/></g>
<g><path style="opacity:0.004" fill="#feff00" d="M 741.5,317.5 C 740.833,318.167 740.833,318.167 741.5,317.5 Z"/></g>
<g><path style="opacity:0.004" fill="#feff00" d="M 561.5,319.5 C 562.833,320.167 562.833,320.167 561.5,319.5 Z"/></g>
<g><path style="opacity:0.004" fill="#feff00" d="M 761.5,320.5 C 760.833,319.167 760.833,319.167 761.5,320.5 Z"/></g>
<g><path style="opacity:0.004" fill="#feff00" d="M 772.5,320.5 C 771.833,319.167 771.833,319.167 772.5,320.5 Z"/></g>
<g><path style="opacity:0.004" fill="#ff7ef8" d="M 410.5,319.5 C 411.525,319.897 411.692,320.563 411,321.5C 410.536,320.906 410.369,320.239 410.5,319.5 Z"/></g>
<g><path style="opacity:0.004" fill="#feff00" d="M 489.5,320.5 C 490.833,321.167 490.833,321.167 489.5,320.5 Z"/></g>
<g><path style="opacity:0.004" fill="#feff00" d="M 561.5,320.5 C 560.833,321.167 560.833,321.167 561.5,320.5 Z"/></g>
<g><path style="opacity:0.008" fill="#ffac81" d="M 634.5,319.5 C 635.525,319.897 635.692,320.563 635,321.5C 634.536,320.906 634.369,320.239 634.5,319.5 Z"/></g>
<g><path style="opacity:0.97" fill="#fbc648" d="M 649.5,256.5 C 653.167,256.5 656.833,256.5 660.5,256.5C 660.5,277.5 660.5,298.5 660.5,319.5C 671.838,319.333 683.172,319.5 694.5,320C 696.758,322.725 697.091,325.725 695.5,329C 680.156,329.833 664.822,329.666 649.5,328.5C 649.49,304.5 649.49,280.5 649.5,256.5 Z"/></g>
<g><path style="opacity:0.004" fill="#feff00" d="M 761.5,320.5 C 762.833,321.167 762.833,321.167 761.5,320.5 Z"/></g>
<g><path style="opacity:0.004" fill="#feff00" d="M 558.5,321.5 C 559.833,322.167 559.833,322.167 558.5,321.5 Z"/></g>
<g><path style="opacity:0.004" fill="#feff00" d="M 973.5,321.5 C 972.833,322.167 972.833,322.167 973.5,321.5 Z"/></g>
<g><path style="opacity:0.004" fill="#feff00" d="M 697.5,322.5 C 698.833,323.167 698.833,323.167 697.5,322.5 Z"/></g>
<g><path style="opacity:0.004" fill="#00fffe" d="M 145.5,324.5 C 146.833,325.167 146.833,325.167 145.5,324.5 Z"/></g>
<g><path style="opacity:0.004" fill="#fe0000" d="M 412.5,324.5 C 413.525,324.897 413.692,325.563 413,326.5C 412.536,325.906 412.369,325.239 412.5,324.5 Z"/></g>
<g><path style="opacity:0.004" fill="#feff00" d="M 485.5,324.5 C 486.833,325.167 486.833,325.167 485.5,324.5 Z"/></g>
<g><path style="opacity:0.004" fill="#feff00" d="M 905.5,324.5 C 906.833,325.167 906.833,325.167 905.5,324.5 Z"/></g>
<g><path style="opacity:0.004" fill="#0000ff" d="M 145.5,325.5 C 144.833,326.167 144.833,326.167 145.5,325.5 Z"/></g>
<g><path style="opacity:0.004" fill="#000000" d="M 221.5,325.5 C 220.833,326.167 220.833,326.167 221.5,325.5 Z"/></g>
<g><path style="opacity:0.004" fill="#fe0000" d="M 485.5,325.5 C 484.833,326.167 484.833,326.167 485.5,325.5 Z"/></g>
<g><path style="opacity:0.004" fill="#ffc1f7" d="M 101.5,325.5 C 102.525,325.897 102.692,326.563 102,327.5C 101.536,326.906 101.369,326.239 101.5,325.5 Z"/></g>
<g><path style="opacity:0.012" fill="#ffa535" d="M 429.5,325.5 C 430.573,326.251 430.74,327.251 430,328.5C 429.517,327.552 429.351,326.552 429.5,325.5 Z"/></g>
<g><path style="opacity:0.004" fill="#ffc1f7" d="M 412.5,328.5 C 412.897,327.475 413.563,327.308 414.5,328C 413.906,328.464 413.239,328.631 412.5,328.5 Z"/></g>
<g><path style="opacity:0.004" fill="#00fffe" d="M 141.5,328.5 C 142.833,329.167 142.833,329.167 141.5,328.5 Z"/></g>
<g><path style="opacity:0.004" fill="#0000ff" d="M 141.5,329.5 C 140.833,330.167 140.833,330.167 141.5,329.5 Z"/></g>
<g><path style="opacity:0.004" fill="#a3a21a" d="M 431.5,328.5 C 432.525,328.897 432.692,329.563 432,330.5C 431.536,329.906 431.369,329.239 431.5,328.5 Z"/></g>
<g><path style="opacity:0.004" fill="#fe0000" d="M 473.5,329.5 C 474.833,330.167 474.833,330.167 473.5,329.5 Z"/></g>
<g><path style="opacity:0.004" fill="#fe0000" d="M 585.5,329.5 C 584.833,330.167 584.833,330.167 585.5,329.5 Z"/></g>
<g><path style="opacity:0.004" fill="#fe0000" d="M 781.5,329.5 C 782.833,330.167 782.833,330.167 781.5,329.5 Z"/></g>
<g><path style="opacity:0.004" fill="#feff00" d="M 849.5,329.5 C 848.833,330.167 848.833,330.167 849.5,329.5 Z"/></g>
<g><path style="opacity:0.004" fill="#feff00" d="M 905.5,329.5 C 906.833,330.167 906.833,330.167 905.5,329.5 Z"/></g>
<g><path style="opacity:0.004" fill="#feff00" d="M 957.5,329.5 C 958.833,330.167 958.833,330.167 957.5,329.5 Z"/></g>
<g><path style="opacity:0.004" fill="#e9e92e" d="M 367.5,330.5 C 370.001,330.511 370.168,331.178 368,332.5C 367.536,331.906 367.369,331.239 367.5,330.5 Z"/></g>
<g><path style="opacity:0.008" fill="#b1ad71" d="M 419.5,330.5 C 422.001,330.511 422.168,331.178 420,332.5C 419.536,331.906 419.369,331.239 419.5,330.5 Z"/></g>
<g><path style="opacity:0.004" fill="#feff00" d="M 442.5,330.5 C 443.833,331.167 443.833,331.167 442.5,330.5 Z"/></g>
<g><path style="opacity:0.004" fill="#feff00" d="M 467.5,330.5 C 468.833,331.167 468.833,331.167 467.5,330.5 Z"/></g>
<g><path style="opacity:0.008" fill="#ffad6a" d="M 509.5,331.5 C 509.897,330.475 510.563,330.308 511.5,331C 510.906,331.464 510.239,331.631 509.5,331.5 Z"/></g>
<g><path style="opacity:0.004" fill="#feff00" d="M 515.5,330.5 C 516.833,331.167 516.833,331.167 515.5,330.5 Z"/></g>
<g><path style="opacity:0.004" fill="#ffd64c" d="M 531.5,331.5 C 531.897,330.475 532.563,330.308 533.5,331C 532.906,331.464 532.239,331.631 531.5,331.5 Z"/></g>
<g><path style="opacity:0.008" fill="#ffad6a" d="M 589.5,331.5 C 589.897,330.475 590.563,330.308 591.5,331C 590.906,331.464 590.239,331.631 589.5,331.5 Z"/></g>
<g><path style="opacity:0.012" fill="#dfc036" d="M 654.5,331.5 C 655.601,330.402 656.934,330.235 658.5,331C 657.318,332.768 655.985,332.935 654.5,331.5 Z"/></g>
<g><path style="opacity:0.004" fill="#fefffe" d="M 668.5,331.5 C 668.897,330.475 669.563,330.308 670.5,331C 669.906,331.464 669.239,331.631 668.5,331.5 Z"/></g>
<g><path style="opacity:0.024" fill="#c9965c" d="M 706.5,331.5 C 707.386,330.224 708.386,330.224 709.5,331.5C 708.575,332.562 707.575,332.562 706.5,331.5 Z"/></g>
<g><path style="opacity:0.004" fill="#feff00" d="M 763.5,330.5 C 764.833,331.167 764.833,331.167 763.5,330.5 Z"/></g>
<g><path style="opacity:0.004" fill="#feff00" d="M 827.5,330.5 C 828.833,331.167 828.833,331.167 827.5,330.5 Z"/></g>
<g><path style="opacity:0.02" fill="#b59b4e" d="M 829.5,331.5 C 830.251,330.427 831.251,330.26 832.5,331C 831.648,332.728 830.648,332.895 829.5,331.5 Z"/></g>
<g><path style="opacity:0.008" fill="#ffc25d" d="M 835.5,331.5 C 836.251,330.427 837.251,330.26 838.5,331C 837.552,331.483 836.552,331.649 835.5,331.5 Z"/></g>
<g><path style="opacity:0.008" fill="#ffad6a" d="M 857.5,331.5 C 857.897,330.475 858.563,330.308 859.5,331C 858.906,331.464 858.239,331.631 857.5,331.5 Z"/></g>
<g><path style="opacity:0.004" fill="#a78f70" d="M 896.5,331.5 C 897.601,330.402 898.934,330.235 900.5,331C 899.436,332.511 898.103,332.677 896.5,331.5 Z"/></g>
<g><path style="opacity:0.004" fill="#feff00" d="M 947.5,330.5 C 948.833,331.167 948.833,331.167 947.5,330.5 Z"/></g>
<g><path style="opacity:0.004" fill="#feff00" d="M 952.5,331.5 C 952.897,330.475 953.563,330.308 954.5,331C 953.906,331.464 953.239,331.631 952.5,331.5 Z"/></g>
<g><path style="opacity:0.004" fill="#feff00" d="M 979.5,330.5 C 980.833,331.167 980.833,331.167 979.5,330.5 Z"/></g>
<g><path style="opacity:0.008" fill="#ca7649" d="M 1007.5,331.5 C 1009.29,330.378 1011.29,330.211 1013.5,331C 1012.97,331.692 1012.31,332.192 1011.5,332.5C 1010.26,331.754 1008.93,331.421 1007.5,331.5 Z"/></g>
<g><path style="opacity:0.004" fill="#fefffe" d="M 111.5,331.5 C 112.525,331.897 112.692,332.563 112,333.5C 111.536,332.906 111.369,332.239 111.5,331.5 Z"/></g>
<g><path style="opacity:0.004" fill="#4f4e2c" d="M 592.5,330.5 C 594.337,330.639 594.67,331.306 593.5,332.5C 592.702,332.043 592.369,331.376 592.5,330.5 Z"/></g>
<g><path style="opacity:0.004" fill="#59582b" d="M 710.5,330.5 C 713.797,330.329 714.131,330.995 711.5,332.5C 710.702,332.043 710.369,331.376 710.5,330.5 Z"/></g>
<g><path style="opacity:0.004" fill="#d0cd4c" d="M 755.5,330.5 C 758.001,330.511 758.168,331.178 756,332.5C 755.536,331.906 755.369,331.239 755.5,330.5 Z"/></g>
<g><path style="opacity:0.004" fill="#e6e631" d="M 759.5,330.5 C 762.797,330.329 763.131,330.995 760.5,332.5C 759.702,332.043 759.369,331.376 759.5,330.5 Z"/></g>
<g><path style="opacity:0.004" fill="#fae92b" d="M 771.5,330.5 C 774.797,330.329 775.131,330.995 772.5,332.5C 771.702,332.043 771.369,331.376 771.5,330.5 Z"/></g>
<g><path style="opacity:0.004" fill="#f4e348" d="M 775.5,331.5 C 776.386,330.224 777.386,330.224 778.5,331.5C 777.575,332.562 776.575,332.562 775.5,331.5 Z"/></g>
<g><path style="opacity:0.004" fill="#00fffe" d="M 137.5,332.5 C 138.833,333.167 138.833,333.167 137.5,332.5 Z"/></g>
<g><path style="opacity:0.004" fill="#0000ff" d="M 229.5,337.5 C 228.833,338.167 228.833,338.167 229.5,337.5 Z"/></g>
<g><path style="opacity:0.004" fill="#0000ff" d="M 130.5,340.5 C 131.833,341.167 131.833,341.167 130.5,340.5 Z"/></g>
<g><path style="opacity:0.004" fill="#000000" d="M 232.5,341.5 C 231.833,342.167 231.833,342.167 232.5,341.5 Z"/></g>
<g><path style="opacity:0.004" fill="#fefffe" d="M 105.5,345.5 C 104.833,344.167 104.833,344.167 105.5,345.5 Z"/></g>
<g><path style="opacity:0.004" fill="#1f4e4e" d="M 231.5,343.5 C 232.525,343.897 232.692,344.563 232,345.5C 231.536,344.906 231.369,344.239 231.5,343.5 Z"/></g>
<g><path style="opacity:0.004" fill="#00fffe" d="M 126.5,345.5 C 127.833,346.167 127.833,346.167 126.5,345.5 Z"/></g>
<g><path style="opacity:0.008" fill="#7a60aa" d="M 233.5,350.5 C 233.897,349.475 234.563,349.308 235.5,350C 234.906,350.464 234.239,350.631 233.5,350.5 Z"/></g>
<g><path style="opacity:0.008" fill="#9abebd" d="M 99.5,352.5 C 102.001,352.511 102.168,353.178 100,354.5C 99.5357,353.906 99.369,353.239 99.5,352.5 Z"/></g>
<g><path style="opacity:0.004" fill="#0000ff" d="M 121.5,353.5 C 122.833,354.167 122.833,354.167 121.5,353.5 Z"/></g>
<g><path style="opacity:0.004" fill="#00fffe" d="M 237.5,353.5 C 236.833,354.167 236.833,354.167 237.5,353.5 Z"/></g>
<g><path style="opacity:0.004" fill="#909090" d="M 365.5,352.5 C 368.137,354.154 367.803,354.654 364.5,354C 365.056,353.617 365.389,353.117 365.5,352.5 Z"/></g>
<g><path style="opacity:0.006" fill="#8b7e9e" d="M 599.5,352.5 C 600.922,352.75 601.922,353.583 602.5,355C 600.511,355.519 599.511,354.686 599.5,352.5 Z"/></g>
<g><path style="opacity:0.004" fill="#fefffe" d="M 368.5,355.5 C 368.897,354.475 369.563,354.308 370.5,355C 369.906,355.464 369.239,355.631 368.5,355.5 Z"/></g>
<g><path style="opacity:0.012" fill="#6d6d6d" d="M 532.5,353.5 C 534.337,353.639 534.67,354.306 533.5,355.5C 532.702,355.043 532.369,354.376 532.5,353.5 Z"/></g>
<g><path style="opacity:0.004" fill="#0000ff" d="M 538.5,355.5 C 537.761,355.631 537.094,355.464 536.5,355C 537.437,354.308 538.103,354.475 538.5,355.5 Z"/></g>
<g><path style="opacity:0.016" fill="#9291a7" d="M 595.5,352.5 C 596.376,352.369 597.043,352.702 597.5,353.5C 596.536,356.083 595.202,356.583 593.5,355C 594.381,354.292 595.047,353.458 595.5,352.5 Z"/></g>
<g><path style="opacity:0.004" fill="#b8b8b8" d="M 684.5,355.5 C 685.251,354.427 686.251,354.26 687.5,355C 686.552,355.483 685.552,355.649 684.5,355.5 Z"/></g>
<g><path style="opacity:0.004" fill="#000000" d="M 100.5,356.5 C 99.8333,355.167 99.8333,355.167 100.5,356.5 Z"/></g>
<g><path style="opacity:0.004" fill="#00fffe" d="M 529.5,356.5 C 528.833,355.167 528.833,355.167 529.5,356.5 Z"/></g>
<g><path style="opacity:0.004" fill="#0000ff" d="M 538.5,355.5 C 539.833,356.167 539.833,356.167 538.5,355.5 Z"/></g>
<g><path style="opacity:0.004" fill="#0000ff" d="M 561.5,356.5 C 560.833,355.167 560.833,355.167 561.5,356.5 Z"/></g>
<g><path style="opacity:0.004" fill="#00fffe" d="M 570.5,355.5 C 571.833,356.167 571.833,356.167 570.5,355.5 Z"/></g>
<g><path style="opacity:0.004" fill="#00fffe" d="M 633.5,356.5 C 632.833,355.167 632.833,355.167 633.5,356.5 Z"/></g>
<g><path style="opacity:0.004" fill="#0000ff" d="M 665.5,356.5 C 664.833,355.167 664.833,355.167 665.5,356.5 Z"/></g>
<g><path style="opacity:0.004" fill="#0000ff" d="M 673.5,355.5 C 674.833,356.167 674.833,356.167 673.5,355.5 Z"/></g>
<g><path style="opacity:0.004" fill="#00fffe" d="M 407.5,358.5 C 408.833,359.167 408.833,359.167 407.5,358.5 Z"/></g>
<g><path style="opacity:0.004" fill="#b8b8b8" d="M 361.5,360.5 C 362.077,359.227 362.743,359.227 363.5,360.5C 363.03,361.463 362.363,361.463 361.5,360.5 Z"/></g>
<g><path style="opacity:0.004" fill="#00fffe" d="M 481.5,360.5 C 480.833,359.167 480.833,359.167 481.5,360.5 Z"/></g>
<g><path style="opacity:0.004" fill="#25a2a2" d="M 96.5,359.5 C 97.525,359.897 97.6917,360.563 97,361.5C 96.5357,360.906 96.369,360.239 96.5,359.5 Z"/></g>
<g><path style="opacity:0.004" fill="#000000" d="M 514.5,360.5 C 515.833,361.167 515.833,361.167 514.5,360.5 Z"/></g>
<g><path style="opacity:0.004" fill="#00fffe" d="M 407.5,362.5 C 408.833,363.167 408.833,363.167 407.5,362.5 Z"/></g>
<g><path style="opacity:0.004" fill="#00fffe" d="M 611.5,362.5 C 612.833,363.167 612.833,363.167 611.5,362.5 Z"/></g>
<g><path style="opacity:0.004" fill="#fefffe" d="M 477.5,364.5 C 476.833,363.167 476.833,363.167 477.5,364.5 Z"/></g>
<g><path style="opacity:0.004" fill="#0000ff" d="M 518.5,364.5 C 517.833,363.167 517.833,363.167 518.5,364.5 Z"/></g>
<g><path style="opacity:0.004" fill="#0000ff" d="M 113.5,365.5 C 114.833,366.167 114.833,366.167 113.5,365.5 Z"/></g>
<g><path style="opacity:0.008" fill="#79a9a8" d="M 518.5,364.5 C 519.525,364.897 519.692,365.563 519,366.5C 518.536,365.906 518.369,365.239 518.5,364.5 Z"/></g>
<g><path style="opacity:0.004" fill="#633dd4" d="M 375.5,367.5 C 375.897,366.475 376.563,366.308 377.5,367C 376.906,367.464 376.239,367.631 375.5,367.5 Z"/></g>
<g><path style="opacity:0.004" fill="#00fffe" d="M 399.5,366.5 C 400.833,367.167 400.833,367.167 399.5,366.5 Z"/></g>
<g><path style="opacity:0.004" fill="#0000ff" d="M 110.5,369.5 C 111.833,370.167 111.833,370.167 110.5,369.5 Z"/></g>
<g><path style="opacity:0.118" fill="#8aa2b3" d="M 684.5,356.5 C 684.5,374.167 684.5,391.833 684.5,409.5C 683.168,401.026 682.502,392.193 682.5,383C 682.502,373.807 683.168,364.974 684.5,356.5 Z"/></g>
<g><path style="opacity:0.004" fill="#0000ff" d="M 109.5,372.5 C 110.833,373.167 110.833,373.167 109.5,372.5 Z"/></g>
<g><path style="opacity:0.004" fill="#000000" d="M 263.5,372.5 C 264.833,373.167 264.833,373.167 263.5,372.5 Z"/></g>
<g><path style="opacity:0.004" fill="#00fffe" d="M 471.5,373.5 C 472.833,374.167 472.833,374.167 471.5,373.5 Z"/></g>
<g><path style="opacity:0.004" fill="#4d3bff" d="M 239.5,375.5 C 239.897,374.475 240.563,374.308 241.5,375C 240.906,375.464 240.239,375.631 239.5,375.5 Z"/></g>
<g><path style="opacity:0.004" fill="#1f4e4e" d="M 258.5,375.5 C 259.525,375.897 259.692,376.563 259,377.5C 258.536,376.906 258.369,376.239 258.5,375.5 Z"/></g>
<g><path style="opacity:0.008" fill="#7f7b51" d="M 73.5,379.5 C 74.0768,378.227 74.7435,378.227 75.5,379.5C 75.0302,380.463 74.3635,380.463 73.5,379.5 Z"/></g>
<g><path style="opacity:0.008" fill="#79a9a8" d="M 81.5,379.5 C 81.8966,378.475 82.5632,378.308 83.5,379C 82.9056,379.464 82.2389,379.631 81.5,379.5 Z"/></g>
<g><path style="opacity:0.008" fill="#535353" d="M 265.5,379.5 C 265.897,378.475 266.563,378.308 267.5,379C 266.906,379.464 266.239,379.631 265.5,379.5 Z"/></g>
<g><path style="opacity:0.004" fill="#4fc8ff" d="M 495.5,379.5 C 496.251,378.427 497.251,378.26 498.5,379C 497.552,379.483 496.552,379.649 495.5,379.5 Z"/></g>
<g><path style="opacity:0.979" fill="#5593d8" d="M 684.5,356.5 C 687.5,356.5 690.5,356.5 693.5,356.5C 693.5,374.167 693.5,391.833 693.5,409.5C 690.5,409.5 687.5,409.5 684.5,409.5C 684.5,391.833 684.5,374.167 684.5,356.5 Z"/></g>
<g><path style="opacity:0.004" fill="#f4c9aa" d="M 60.5,380.5 C 62.9828,380.73 63.4828,381.397 62,382.5C 60.9701,382.164 60.4701,381.497 60.5,380.5 Z"/></g>
<g><path style="opacity:0.004" fill="#1f0f4f" d="M 483.5,379.5 C 484.525,379.897 484.692,380.563 484,381.5C 483.536,380.906 483.369,380.239 483.5,379.5 Z"/></g>
<g><path style="opacity:0.004" fill="#b8b8b8" d="M 51.5,382.5 C 52.2506,381.427 53.2506,381.26 54.5,382C 53.552,382.483 52.552,382.649 51.5,382.5 Z"/></g>
<g><path style="opacity:0.975" fill="#4b92d9" d="M 529.5,356.5 C 532.5,356.5 535.5,356.5 538.5,356.5C 538.5,364.167 538.5,371.833 538.5,379.5C 546.167,379.5 553.833,379.5 561.5,379.5C 561.5,371.833 561.5,364.167 561.5,356.5C 564.5,356.5 567.5,356.5 570.5,356.5C 570.5,374.167 570.5,391.833 570.5,409.5C 567.5,409.5 564.5,409.5 561.5,409.5C 561.5,402.5 561.5,395.5 561.5,388.5C 553.833,388.5 546.167,388.5 538.5,388.5C 538.5,395.5 538.5,402.5 538.5,409.5C 535.5,409.5 532.5,409.5 529.5,409.5C 529.5,391.833 529.5,374.167 529.5,356.5 Z"/></g>
<g><path style="opacity:0.984" fill="#4c92da" d="M 410.5,356.5 C 413.833,356.5 417.167,356.5 420.5,356.5C 420.824,371.412 420.491,386.245 419.5,401C 428.43,401.694 437.097,401.527 445.5,400.5C 446.484,403.428 446.817,406.428 446.5,409.5C 435.5,409.5 424.5,409.5 413.5,409.5C 411.812,405.132 410.978,400.465 411,395.5C 410.5,382.504 410.333,369.504 410.5,356.5 Z"/></g>
<g><path style="opacity:0.012" fill="#4cc5c5" d="M 101.5,390.5 C 101.897,389.475 102.563,389.308 103.5,390C 102.906,390.464 102.239,390.631 101.5,390.5 Z"/></g>
<g><path style="opacity:0.004" fill="#25a2a2" d="M 155.5,388.5 C 156.525,388.897 156.692,389.563 156,390.5C 155.536,389.906 155.369,389.239 155.5,388.5 Z"/></g>
<g><path style="opacity:0.004" fill="#00fffe" d="M 171.5,389.5 C 172.833,390.167 172.833,390.167 171.5,389.5 Z"/></g>
<g><path style="opacity:0.004" fill="#bdb85b" d="M 303.5,388.5 C 306.001,388.511 306.168,389.178 304,390.5C 303.536,389.906 303.369,389.239 303.5,388.5 Z"/></g>
<g><path style="opacity:0.004" fill="#00fffe" d="M 390.5,389.5 C 391.833,390.167 391.833,390.167 390.5,389.5 Z"/></g>
<g><path style="opacity:0.004" fill="#402eb9" d="M 101.5,390.5 C 101.217,391.289 100.717,391.956 100,392.5C 99.4719,391.184 99.9719,390.517 101.5,390.5 Z"/></g>
<g><path style="opacity:0.503" fill="#8aa5c0" d="M 44.5,388.5 C 43.653,389.966 42.3197,390.8 40.5,391C 41.056,391.383 41.3893,391.883 41.5,392.5C 38.404,393.293 35.2373,394.293 32,395.5C 30.5962,395.491 29.4296,394.991 28.5,394C 33.2,390.488 38.5334,388.655 44.5,388.5 Z"/></g>
<g><path style="opacity:0.004" fill="#fefffe" d="M 64.5,393.5 C 64.8966,392.475 65.5632,392.308 66.5,393C 65.9056,393.464 65.2389,393.631 64.5,393.5 Z"/></g>
<g><path style="opacity:0.973" fill="#4d93da" d="M 514.5,361.5 C 514.81,363.144 515.81,364.144 517.5,364.5C 517.657,367.625 518.657,370.458 520.5,373C 520.355,373.772 520.022,374.439 519.5,375C 516.446,375.821 513.446,375.655 510.5,374.5C 507.781,365.621 501.781,362.454 492.5,365C 489.788,365.639 487.788,367.139 486.5,369.5C 479.888,378.914 479.888,388.414 486.5,398C 487.833,399 489.167,400 490.5,401C 495.167,401.667 499.833,401.667 504.5,401C 509.033,398.615 511.033,394.782 510.5,389.5C 505.833,389.5 501.167,389.5 496.5,389.5C 495.854,387.819 495.187,386.153 494.5,384.5C 494.616,382.448 495.616,381.115 497.5,380.5C 504.789,381.009 512.122,381.176 519.5,381C 520.485,390.417 520.818,399.917 520.5,409.5C 517.102,409.82 513.768,409.487 510.5,408.5C 511.326,407.549 511.492,406.549 511,405.5C 509.603,407.07 508.103,408.404 506.5,409.5C 497.08,412.707 488.413,411.374 480.5,405.5C 473.399,397.21 470.899,387.543 473,376.5C 473.431,372.033 474.931,368.033 477.5,364.5C 479.71,364.106 481.043,362.773 481.5,360.5C 490.076,355.218 499.243,354.218 509,357.5C 510.413,359.413 512.246,360.746 514.5,361.5 Z"/></g>
<g><path style="opacity:0.004" fill="#0000ff" d="M 486.5,369.5 C 487.833,370.167 487.833,370.167 486.5,369.5 Z"/></g>
<g><path style="opacity:0.004" fill="#633dd4" d="M 375.5,395.5 C 375.897,394.475 376.563,394.308 377.5,395C 376.906,395.464 376.239,395.631 375.5,395.5 Z"/></g>
<g><path style="opacity:0.193" fill="#81aac3" d="M 410.5,356.5 C 410.333,369.504 410.5,382.504 411,395.5C 410.978,400.465 411.812,405.132 413.5,409.5C 412.778,409.918 412.278,410.584 412,411.5C 410.521,409.618 409.688,407.451 409.5,405C 409.265,388.748 409.598,372.581 410.5,356.5 Z"/></g>
<g><path style="opacity:0.004" fill="#4ad3ff" d="M 140.5,396.5 C 142.337,396.639 142.67,397.306 141.5,398.5C 140.702,398.043 140.369,397.376 140.5,396.5 Z"/></g>
<g><path style="opacity:0.978" fill="#4c92da" d="M 633.5,356.5 C 636.909,356.249 640.242,356.583 643.5,357.5C 644.498,359.49 645.498,361.49 646.5,363.5C 646.957,364.298 647.624,364.631 648.5,364.5C 648.477,366.6 649.144,368.433 650.5,370C 652.491,373.509 654.824,376.675 657.5,379.5C 657.328,380.492 657.662,381.158 658.5,381.5C 660.382,385.594 662.549,389.594 665,393.5C 664.544,381.064 664.711,368.73 665.5,356.5C 668.167,356.5 670.833,356.5 673.5,356.5C 673.5,374.167 673.5,391.833 673.5,409.5C 670.5,409.5 667.5,409.5 664.5,409.5C 663.396,407.611 662.063,405.945 660.5,404.5C 659.579,401.917 658.246,399.584 656.5,397.5C 654.586,392.666 651.919,388.333 648.5,384.5C 647.579,381.917 646.246,379.584 644.5,377.5C 643.918,376.069 643.085,374.736 642,373.5C 641.5,385.495 641.333,397.495 641.5,409.5C 638.833,409.5 636.167,409.5 633.5,409.5C 633.5,391.833 633.5,374.167 633.5,356.5 Z"/></g>
<g><path style="opacity:0.004" fill="#000000" d="M 648.5,384.5 C 647.833,385.167 647.833,385.167 648.5,384.5 Z"/></g>
<g><path style="opacity:0.004" fill="#0000ff" d="M 658.5,380.5 C 659.833,381.167 659.833,381.167 658.5,380.5 Z"/></g>
<g><path style="opacity:0.004" fill="#1b0e3b" d="M 643.5,379.5 C 644.289,379.783 644.956,380.283 645.5,381C 644.184,381.528 643.517,381.028 643.5,379.5 Z"/></g>
<g><path style="opacity:0.004" fill="#00fffe" d="M 657.5,378.5 C 658.833,379.167 658.833,379.167 657.5,378.5 Z"/></g>
<g><path style="opacity:0.004" fill="#0000ff" d="M 644.5,377.5 C 643.833,378.167 643.833,378.167 644.5,377.5 Z"/></g>
<g><path style="opacity:0.004" fill="#000000" d="M 648.5,363.5 C 649.833,364.167 649.833,364.167 648.5,363.5 Z"/></g>
<g><path style="opacity:0.004" fill="#0000ff" d="M 662.5,361.5 C 663.833,362.167 663.833,362.167 662.5,361.5 Z"/></g>
<g><path style="opacity:0.004" fill="#000000" d="M 656.5,397.5 C 655.833,398.167 655.833,398.167 656.5,397.5 Z"/></g>
<g><path style="opacity:0.004" fill="#0000ff" d="M 254.5,400.5 C 255.833,401.167 255.833,401.167 254.5,400.5 Z"/></g>
<g><path style="opacity:0.004" fill="#00fffe" d="M 675.5,402.5 C 676.833,403.167 676.833,403.167 675.5,402.5 Z"/></g>
<g><path style="opacity:0.012" fill="#58acb6" d="M 326.5,404.5 C 325.833,404.5 325.5,404.167 325.5,403.5C 325.369,402.624 325.702,401.957 326.5,401.5C 327.776,402.614 327.776,403.614 326.5,404.5 Z"/></g>
<g><path style="opacity:0.978" fill="#4f92d8" d="M 402.5,409.5 C 389.833,409.5 377.167,409.5 364.5,409.5C 364.5,391.833 364.5,374.167 364.5,356.5C 377.167,356.5 389.833,356.5 402.5,356.5C 402.5,359.5 402.5,362.5 402.5,365.5C 393.167,365.5 383.833,365.5 374.5,365.5C 374.5,370.167 374.5,374.833 374.5,379.5C 383.167,379.5 391.833,379.5 400.5,379.5C 400.813,382.247 400.48,384.914 399.5,387.5C 398.833,387.833 398.167,388.167 397.5,388.5C 389.89,387.533 382.223,387.2 374.5,387.5C 374.5,392.167 374.5,396.833 374.5,401.5C 383.833,401.5 393.167,401.5 402.5,401.5C 402.5,404.167 402.5,406.833 402.5,409.5 Z"/></g>
<g><path style="opacity:0.978" fill="#4f93d9" d="M 617.5,409.5 C 615.889,405.271 614.556,400.938 613.5,396.5C 605.833,396.5 598.167,396.5 590.5,396.5C 589.93,401.128 588.596,405.461 586.5,409.5C 582.886,409.637 579.553,409.637 576.5,409.5C 582.793,391.613 589.459,373.946 596.5,356.5C 600.5,356.5 604.5,356.5 608.5,356.5C 608.748,359.58 609.414,362.58 610.5,365.5C 615.288,375.53 619.288,385.863 622.5,396.5C 623.978,396.238 625.311,396.571 626.5,397.5C 625.559,397.489 624.892,397.989 624.5,399C 625.713,402.64 626.88,406.14 628,409.5C 624.712,409.658 621.212,409.658 617.5,409.5 Z M 602.5,372.5 C 603.497,372.47 604.164,372.97 604.5,374C 605.486,378.449 607.153,382.615 609.5,386.5C 604.5,387.833 599.5,387.833 594.5,386.5C 597.149,380.25 599.649,373.917 602,367.5C 602.494,369.134 602.66,370.801 602.5,372.5 Z"/></g>
<g><path style="opacity:0.004" fill="#000000" d="M 660.5,404.5 C 659.833,405.167 659.833,405.167 660.5,404.5 Z"/></g>
<g><path style="opacity:0.004" fill="#00fffe" d="M 480.5,405.5 C 479.833,406.167 479.833,406.167 480.5,405.5 Z"/></g>
<g><path style="opacity:0.004" fill="#0000ff" d="M 36.5,406.5 C 37.8333,407.167 37.8333,407.167 36.5,406.5 Z"/></g>
<g><path style="opacity:0.004" fill="#000000" d="M 571.5,406.5 C 572.833,407.167 572.833,407.167 571.5,406.5 Z"/></g>
<g><path style="opacity:0.02" fill="#5c97c8" d="M 574.5,405.5 C 577.125,406.466 577.125,407.466 574.5,408.5C 573.438,407.575 573.438,406.575 574.5,405.5 Z"/></g>
<g><path style="opacity:0.004" fill="#000000" d="M 330.5,407.5 C 331.833,408.167 331.833,408.167 330.5,407.5 Z"/></g>
<g><path style="opacity:0.004" fill="#91fffe" d="M 680.5,407.5 C 681.525,407.897 681.692,408.563 681,409.5C 680.536,408.906 680.369,408.239 680.5,407.5 Z"/></g>
<g><path style="opacity:0.004" fill="#0000ff" d="M 281.5,409.5 C 280.833,410.167 280.833,410.167 281.5,409.5 Z"/></g>
<g><path style="opacity:0.004" fill="#0000ff" d="M 402.5,409.5 C 403.833,410.167 403.833,410.167 402.5,409.5 Z"/></g>
<g><path style="opacity:0.004" fill="#000000" d="M 446.5,409.5 C 447.833,410.167 447.833,410.167 446.5,409.5 Z"/></g>
<g><path style="opacity:0.004" fill="#00fffe" d="M 529.5,409.5 C 528.833,410.167 528.833,410.167 529.5,409.5 Z"/></g>
<g><path style="opacity:0.004" fill="#00fffe" d="M 538.5,409.5 C 539.167,409.5 539.5,409.833 539.5,410.5C 539.167,410.167 538.833,409.833 538.5,409.5 Z"/></g>
<g><path style="opacity:0.004" fill="#0000ff" d="M 561.5,409.5 C 560.833,410.167 560.833,410.167 561.5,409.5 Z"/></g>
<g><path style="opacity:0.004" fill="#00fffe" d="M 586.5,409.5 C 587.833,410.167 587.833,410.167 586.5,409.5 Z"/></g>
<g><path style="opacity:0.004" fill="#00fffe" d="M 617.5,409.5 C 616.833,410.167 616.833,410.167 617.5,409.5 Z"/></g>
<g><path style="opacity:0.004" fill="#000000" d="M 633.5,409.5 C 632.833,410.167 632.833,410.167 633.5,409.5 Z"/></g>
<g><path style="opacity:0.004" fill="#00fffe" d="M 641.5,409.5 C 642.833,410.167 642.833,410.167 641.5,409.5 Z"/></g>
<g><path style="opacity:0.004" fill="#0000ff" d="M 664.5,409.5 C 663.833,410.167 663.833,410.167 664.5,409.5 Z"/></g>
<g><path style="opacity:0.004" fill="#0000ff" d="M 673.5,409.5 C 674.833,410.167 674.833,410.167 673.5,409.5 Z"/></g>
<g><path style="opacity:0.004" fill="#0000ff" d="M 693.5,409.5 C 694.833,410.167 694.833,410.167 693.5,409.5 Z"/></g>
<g><path style="opacity:0.004" fill="#00fffe" d="M 91.5,410.5 C 92.8333,411.167 92.8333,411.167 91.5,410.5 Z"/></g>
<g><path style="opacity:0.004" fill="#00fffe" d="M 134.5,410.5 C 135.833,411.167 135.833,411.167 134.5,410.5 Z"/></g>
<g><path style="opacity:0.004" fill="#0000ff" d="M 402.5,410.5 C 402.103,411.525 401.437,411.692 400.5,411C 401.094,410.536 401.761,410.369 402.5,410.5 Z"/></g>
<g><path style="opacity:0.004" fill="#54b6ff" d="M 506.5,409.5 C 507.525,409.897 507.692,410.563 507,411.5C 506.536,410.906 506.369,410.239 506.5,409.5 Z"/></g>
<g><path style="opacity:0.004" fill="#00fffe" d="M 539.5,410.5 C 540.833,411.167 540.833,411.167 539.5,410.5 Z"/></g>
<g><path style="opacity:0.004" fill="#402eb9" d="M 571.5,410.5 C 574.001,410.511 574.168,411.178 572,412.5C 571.536,411.906 571.369,411.239 571.5,410.5 Z"/></g>
<g><path style="opacity:0.004" fill="#000000" d="M 666.5,410.5 C 667.833,411.167 667.833,411.167 666.5,410.5 Z"/></g>
<g><path style="opacity:0.004" fill="#000000" d="M 686.5,411.5 C 685.833,410.167 685.833,410.167 686.5,411.5 Z"/></g>
<g><path style="opacity:0.004" fill="#00fffe" d="M 333.5,411.5 C 334.833,412.167 334.833,412.167 333.5,411.5 Z"/></g>
<g><path style="opacity:0.004" fill="#70fffe" d="M 620.5,411.5 C 622.337,411.639 622.67,412.306 621.5,413.5C 620.702,413.043 620.369,412.376 620.5,411.5 Z"/></g>
<g><path style="opacity:0.004" fill="#fefffe" d="M 686.5,411.5 C 687.525,411.897 687.692,412.563 687,413.5C 686.536,412.906 686.369,412.239 686.5,411.5 Z"/></g>
<g><path style="opacity:0.004" fill="#1f0f4f" d="M 394.5,411.5 C 395.525,411.897 395.692,412.563 395,413.5C 394.536,412.906 394.369,412.239 394.5,411.5 Z"/></g>
<g><path style="opacity:0.004" fill="#000000" d="M 411.5,412.5 C 412.833,413.167 412.833,413.167 411.5,412.5 Z"/></g>
<g><path style="opacity:0.004" fill="#0000ff" d="M 288.5,413.5 C 287.833,414.167 287.833,414.167 288.5,413.5 Z"/></g>
<g><path style="opacity:0.004" fill="#00fffe" d="M 162.5,414.5 C 163.833,415.167 163.833,415.167 162.5,414.5 Z"/></g>
<g><path style="opacity:0.004" fill="#000000" d="M 233.5,415.5 C 234.833,416.167 234.833,416.167 233.5,415.5 Z"/></g>
<g><path style="opacity:0.004" fill="#adb8ff" d="M 335.5,415.5 C 337.337,415.639 337.67,416.306 336.5,417.5C 335.702,417.043 335.369,416.376 335.5,415.5 Z"/></g>
<g><path style="opacity:0.004" fill="#1f0f4f" d="M 686.5,415.5 C 687.525,415.897 687.692,416.563 687,417.5C 686.536,416.906 686.369,416.239 686.5,415.5 Z"/></g>
<g><path style="opacity:0.004" fill="#00fffe" d="M 293.5,417.5 C 292.833,418.167 292.833,418.167 293.5,417.5 Z"/></g>
<g><path style="opacity:0.004" fill="#5ed5ff" d="M 193.5,421.5 C 193.103,422.525 192.437,422.692 191.5,422C 192.094,421.536 192.761,421.369 193.5,421.5 Z"/></g>
<g><path style="opacity:0.008" fill="#8080ff" d="M 295.5,421.5 C 296.833,422.167 296.833,422.167 295.5,421.5 Z"/></g>
<g><path style="opacity:0.004" fill="#00fffe" d="M 245.5,423.5 C 246.833,424.167 246.833,424.167 245.5,423.5 Z"/></g>
<g><path style="opacity:0.004" fill="#d9d3ff" d="M 296.5,423.5 C 297.525,423.897 297.692,424.563 297,425.5C 296.536,424.906 296.369,424.239 296.5,423.5 Z"/></g>
<g><path style="opacity:0.004" fill="#00fffe" d="M 249.5,427.5 C 250.833,428.167 250.833,428.167 249.5,427.5 Z"/></g>
<g><path style="opacity:0.004" fill="#0000ff" d="M 212.5,429.5 C 211.833,430.167 211.833,430.167 212.5,429.5 Z"/></g>
<g><path style="opacity:0.004" fill="#0000ff" d="M 217.5,433.5 C 216.833,434.167 216.833,434.167 217.5,433.5 Z"/></g>
<g><path style="opacity:0.004" fill="#000000" d="M 220.5,436.5 C 219.833,437.167 219.833,437.167 220.5,436.5 Z"/></g>
<g><path style="opacity:0.004" fill="#0000ff" d="M 296.5,440.5 C 295.833,439.167 295.833,439.167 296.5,440.5 Z"/></g>
<g><path style="opacity:0.004" fill="#00fffe" d="M 329.5,440.5 C 330.833,441.167 330.833,441.167 329.5,440.5 Z"/></g>
<g><path style="opacity:0.004" fill="#000000" d="M 325.5,444.5 C 326.833,445.167 326.833,445.167 325.5,444.5 Z"/></g>
<g><path style="opacity:0.004" fill="#0000ff" d="M 220.5,448.5 C 219.833,447.167 219.833,447.167 220.5,448.5 Z"/></g>
<g><path style="opacity:0.004" fill="#0000ff" d="M 288.5,448.5 C 287.833,447.167 287.833,447.167 288.5,448.5 Z"/></g>
<g><path style="opacity:0.004" fill="#0000ff" d="M 321.5,448.5 C 322.833,449.167 322.833,449.167 321.5,448.5 Z"/></g>
<g><path style="opacity:0.004" fill="#0000ff" d="M 313.5,453.5 C 314.833,454.167 314.833,454.167 313.5,453.5 Z"/></g>
<g><path style="opacity:0.004" fill="#000000" d="M 213.5,455.5 C 212.833,454.167 212.833,454.167 213.5,455.5 Z"/></g>
<g><path style="opacity:0.004" fill="#000000" d="M 237.5,457.5 C 238.833,458.167 238.833,458.167 237.5,457.5 Z"/></g>
<g><path style="opacity:0.004" fill="#00fffe" d="M 194.5,462.5 C 195.833,463.167 195.833,463.167 194.5,462.5 Z"/></g>
<g><path style="opacity:0.004" fill="#0000ff" d="M 187.5,463.5 C 188.833,464.167 188.833,464.167 187.5,463.5 Z"/></g>
<g><path style="opacity:0.004" fill="#0000ff" d="M 215.5,471.5 C 216.833,472.167 216.833,472.167 215.5,471.5 Z"/></g>
<g><path style="opacity:0.004" fill="#4385ba" d="M 171.5,475.5 C 172.251,474.427 173.251,474.26 174.5,475C 173.552,475.483 172.552,475.649 171.5,475.5 Z"/></g>
<g><path style="opacity:0.004" fill="#4d3bff" d="M 176.5,474.5 C 178.337,474.639 178.67,475.306 177.5,476.5C 176.702,476.043 176.369,475.376 176.5,474.5 Z"/></g>
<g><path style="opacity:0.004" fill="#fefffe" d="M 232.5,478.5 C 232.897,477.475 233.563,477.308 234.5,478C 233.906,478.464 233.239,478.631 232.5,478.5 Z"/></g>
<g><path style="opacity:0.004" fill="#633dd4" d="M 235.5,478.5 C 235.897,477.475 236.563,477.308 237.5,478C 236.906,478.464 236.239,478.631 235.5,478.5 Z"/></g>
<g><path style="opacity:0.004" fill="#fefffe" d="M 240.5,478.5 C 240.897,477.475 241.563,477.308 242.5,478C 241.906,478.464 241.239,478.631 240.5,478.5 Z"/></g>
<g><path style="opacity:0.004" fill="#0000ff" d="M 172.5,479.5 C 172.897,478.475 173.563,478.308 174.5,479C 173.906,479.464 173.239,479.631 172.5,479.5 Z"/></g>
<g><path style="opacity:0.004" fill="#0000ff" d="M 223.5,478.5 C 224.833,479.167 224.833,479.167 223.5,478.5 Z"/></g>
<g><path style="opacity:0.004" fill="#0000ff" d="M 219.5,479.5 C 220.525,479.897 220.692,480.563 220,481.5C 219.536,480.906 219.369,480.239 219.5,479.5 Z"/></g>
<g><path style="opacity:0.004" fill="#d2d2d2" d="M 216.5,479.5 C 218.337,479.639 218.67,480.306 217.5,481.5C 216.702,481.043 216.369,480.376 216.5,479.5 Z"/></g>
</svg>
